{
.appVersion = "983";
DisplayStrings = (
"A\U00C6/AEacute E/DZ/Dz/IJ L/LJ J/Lj/NJ/Eng/Nj/OE \U00DE/Germandbls/Schwa"
);
classes = (
{
automatic = 1;

glyphs = (
{
glyphname = A;
lastChange = "2017-07-07 01:49:43 +0000";
layers = (
{
anchors = (
{
name = bottom;
position = "{620, 0}";
},
{
name = ogonek;
position = "{1116, 10}";
},
{
name = top;
position = "{630, 1171}";
}
);
layerId = "840BD324-B0A6-42B0-BD23-CB5E8C19394F";
paths = (
{
closed = 1;
nodes = (
"646 1074 LINE",
"983 86 LINE",
"796 86 LINE SMOOTH",
"763 86 OFFCURVE",
"747 65 OFFCURVE",
"747 44 CURVE SMOOTH",
"747 22 OFFCURVE",
"764 0 OFFCURVE",
"798 0 CURVE SMOOTH",
"1164 0 LINE SMOOTH",
"1197 0 OFFCURVE",
"1214 22 OFFCURVE",
"1214 44 CURVE SMOOTH",
"1214 65 OFFCURVE",
"1198 86 OFFCURVE",
"1166 86 CURVE SMOOTH",
"1085 86 LINE",
"725 1106 LINE SMOOTH",
"713 1140 OFFCURVE",
"690 1171 OFFCURVE",
"644 1171 CURVE SMOOTH",
"341 1171 LINE SMOOTH",
"308 1171 OFFCURVE",
"292 1149 OFFCURVE",
"292 1128 CURVE SMOOTH",
"292 1106 OFFCURVE",
"309 1085 OFFCURVE",
"342 1085 CURVE SMOOTH",
"559 1085 LINE",
"176 86 LINE",
"89 86 LINE SMOOTH",
"56 86 OFFCURVE",
"40 64 OFFCURVE",
"40 43 CURVE SMOOTH",
"40 21 OFFCURVE",
"57 0 OFFCURVE",
"90 0 CURVE SMOOTH",
"438 0 LINE SMOOTH",
"472 0 OFFCURVE",
"489 21 OFFCURVE",
"489 43 CURVE SMOOTH",
"489 64 OFFCURVE",
"472 86 OFFCURVE",
"439 86 CURVE SMOOTH",
"279 86 LINE"
);
},
{
closed = 1;
nodes = (
"865 475 LINE",
"415 475 LINE",
"382 392 LINE",
"895 392 LINE"
);
}
);
width = 1240;
},
{
anchors = (
{
name = bottom;
position = "{620, 0}";
},
{
name = ogonek;
position = "{1116, 10}";
},
{
name = top;
position = "{630, 1171}";
}
);
layerId = "F2E12B84-E402-48AA-89E7-06534AE23493";
paths = (
{
closed = 1;
nodes = (
"606 904 LINE",
"858 166 LINE",
"806 166 LINE SMOOTH",
"753 166 OFFCURVE",
"727 125 OFFCURVE",
"727 84 CURVE SMOOTH",
"727 42 OFFCURVE",
"754 0 OFFCURVE",
"808 0 CURVE SMOOTH",
"1140 0 LINE SMOOTH",
"1193 0 OFFCURVE",
"1220 42 OFFCURVE",
"1220 84 CURVE SMOOTH",
"1220 125 OFFCURVE",
"1194 166 OFFCURVE",
"1142 166 CURVE SMOOTH",
"1101 166 LINE",
"741 1106 LINE SMOOTH",
"728 1140 OFFCURVE",
"706 1171 OFFCURVE",
"660 1171 CURVE SMOOTH",
"321 1171 LINE SMOOTH",
"258 1171 OFFCURVE",
"232 1129 OFFCURVE",
"232 1085 CURVE SMOOTH",
"232 1040 OFFCURVE",
"259 999 OFFCURVE",
"322 999 CURVE SMOOTH",
"445 999 LINE",
"136 166 LINE",
"99 166 LINE SMOOTH",
"46 166 OFFCURVE",
"20 124 OFFCURVE",
"20 83 CURVE SMOOTH",
"20 41 OFFCURVE",
"47 0 OFFCURVE",
"100 0 CURVE SMOOTH",
"458 0 LINE SMOOTH",
"512 0 OFFCURVE",
"539 41 OFFCURVE",
"539 83 CURVE SMOOTH",
"539 124 OFFCURVE",
"512 166 OFFCURVE",
"459 166 CURVE SMOOTH",
"364 166 LINE"
);
},
{
closed = 1;
nodes = (
"865 495 LINE",
"415 495 LINE",
"362 333 LINE",
"915 333 LINE"
);
}
);
width = 1240;
}
);
unicode = 0041;
},
{
glyphname = AE;
lastChange = "2017-07-07 15:36:24 +0000";
layers = (
{
anchors = (
{
name = bottom;
position = "{620, 0}";
},
{
name = top;
position = "{690, 1171}";
}
);
layerId = "840BD324-B0A6-42B0-BD23-CB5E8C19394F";
paths = (
{
closed = 1;
nodes = (
"397 0 LINE SMOOTH",
"431 0 OFFCURVE",
"448 21 OFFCURVE",
"448 43 CURVE SMOOTH",
"448 64 OFFCURVE",
"431 86 OFFCURVE",
"398 86 CURVE SMOOTH",
"231 86 LINE",
"327 392 LINE",
"642 392 LINE",
"642 85 LINE",
"612 85 LINE SMOOTH",
"579 85 OFFCURVE",
"562 64 OFFCURVE",
"562 43 CURVE SMOOTH",
"562 22 OFFCURVE",
"579 0 OFFCURVE",
"613 0 CURVE SMOOTH",
"1059 0 LINE SMOOTH",
"1092 0 OFFCURVE",
"1115 19 OFFCURVE",
"1115 53 CURVE SMOOTH",
"1115 283 LINE SMOOTH",
"1115 319 OFFCURVE",
"1094 335 OFFCURVE",
"1073 335 CURVE SMOOTH",
"1052 335 OFFCURVE",
"1033 320 OFFCURVE",
"1032 296 CURVE SMOOTH",
"1016 85 LINE",
"729 85 LINE",
"729 560 LINE",
"871 560 LINE",
"884 452 LINE",
"886 424 OFFCURVE",
"905 409 OFFCURVE",
"924 409 CURVE SMOOTH",
"943 409 OFFCURVE",
"962 425 OFFCURVE",
"962 460 CURVE SMOOTH",
"962 732 LINE SMOOTH",
"962 769 OFFCURVE",
"943 785 OFFCURVE",
"924 785 CURVE SMOOTH",
"906 785 OFFCURVE",
"887 770 OFFCURVE",
"884 740 CURVE SMOOTH",
"871 637 LINE",
"729 637 LINE",
"729 1085 LINE",
"1013 1085 LINE",
"1027 887 LINE SMOOTH",
"1028 862 OFFCURVE",
"1046 849 OFFCURVE",
"1066 849 CURVE SMOOTH",
"1086 849 OFFCURVE",
"1106 863 OFFCURVE",
"1106 893 CURVE SMOOTH",
"1106 1117 LINE SMOOTH",
"1106 1151 OFFCURVE",
"1083 1171 OFFCURVE",
"1050 1171 CURVE SMOOTH",
"300 1171 LINE SMOOTH",
"267 1171 OFFCURVE",
"251 1149 OFFCURVE",
"251 1128 CURVE SMOOTH",
"251 1106 OFFCURVE",
"268 1085 OFFCURVE",
"301 1085 CURVE SMOOTH",
"463 1085 LINE",
"138 86 LINE",
"87 86 LINE SMOOTH",
"54 86 OFFCURVE",
"38 64 OFFCURVE",
"38 43 CURVE SMOOTH",
"38 21 OFFCURVE",
"55 0 OFFCURVE",
"88 0 CURVE SMOOTH"
);
},
{
closed = 1;
nodes = (
"545 1085 LINE",
"642 1085 LINE",
"642 475 LINE",
"354 475 LINE"
);
}
);
width = 1240;
},
{
anchors = (
{
name = bottom;
position = "{620, 0}";
},
{
name = top;
position = "{710, 1171}";
}
);
layerId = "F2E12B84-E402-48AA-89E7-06534AE23493";
paths = (
{
closed = 1;
nodes = (
"377 0 LINE SMOOTH",
"431 0 OFFCURVE",
"448 51 OFFCURVE",
"448 83 CURVE SMOOTH",
"448 114 OFFCURVE",
"431 166 OFFCURVE",
"378 166 CURVE SMOOTH",
"341 166 LINE",
"399 352 LINE",
"607 352 LINE",
"607 165 LINE",
"597 165 LINE SMOOTH",
"544 165 OFFCURVE",
"527 114 OFFCURVE",
"527 83 CURVE SMOOTH",
"527 52 OFFCURVE",
"544 0 OFFCURVE",
"598 0 CURVE SMOOTH",
"1109 0 LINE SMOOTH",
"1142 0 OFFCURVE",
"1162 19 OFFCURVE",
"1165 53 CURVE SMOOTH",
"1183 253 LINE SMOOTH",
"1188 309 OFFCURVE",
"1144 335 OFFCURVE",
"1103 335 CURVE SMOOTH",
"1062 335 OFFCURVE",
"1030 309 OFFCURVE",
"1020 266 CURVE SMOOTH",
"996 165 LINE",
"809 165 LINE",
"809 520 LINE",
"901 520 LINE",
"924 452 LINE SMOOTH",
"933 425 OFFCURVE",
"955 409 OFFCURVE",
"984 409 CURVE SMOOTH",
"1013 409 OFFCURVE",
"1042 425 OFFCURVE",
"1042 460 CURVE SMOOTH",
"1042 732 LINE SMOOTH",
"1042 769 OFFCURVE",
"1013 785 OFFCURVE",
"984 785 CURVE SMOOTH",
"956 785 OFFCURVE",
"935 769 OFFCURVE",
"924 740 CURVE SMOOTH",
"901 677 LINE",
"809 677 LINE",
"809 1005 LINE",
"993 1005 LINE",
"1015 917 LINE SMOOTH",
"1026 873 OFFCURVE",
"1056 849 OFFCURVE",
"1096 849 CURVE SMOOTH",
"1136 849 OFFCURVE",
"1180 873 OFFCURVE",
"1174 933 CURVE SMOOTH",
"1156 1117 LINE SMOOTH",
"1153 1151 OFFCURVE",
"1133 1171 OFFCURVE",
"1100 1171 CURVE SMOOTH",
"320 1171 LINE SMOOTH",
"247 1171 OFFCURVE",
"231 1119 OFFCURVE",
"231 1088 CURVE SMOOTH",
"231 1056 OFFCURVE",
"248 1005 OFFCURVE",
"321 1005 CURVE SMOOTH",
"403 1005 LINE",
"128 166 LINE",
"97 166 LINE SMOOTH",
"44 166 OFFCURVE",
"28 114 OFFCURVE",
"28 83 CURVE SMOOTH",
"28 51 OFFCURVE",
"45 0 OFFCURVE",
"98 0 CURVE SMOOTH"
);
},
{
closed = 1;
nodes = (
"595 1005 LINE",
"607 1005 LINE",
"607 505 LINE",
"447 505 LINE"
);
}
);
width = 1240;
}
);
unicode = 00C6;
},
{
glyphname = B;
lastChange = "2017-07-07 01:49:54 +0000";
layers = (
{
anchors = (
{
name = bottom;
position = "{620, 0}";
},
{
name = top;
position = "{620, 1171}";
}
);
layerId = "840BD324-B0A6-42B0-BD23-CB5E8C19394F";
paths = (
{
closed = 1;
nodes = (
"546 0 LINE SMOOTH",
"905 0 OFFCURVE",
"1108 94 OFFCURVE",
"1108 330 CURVE SMOOTH",
"1108 508 OFFCURVE",
"978 604 OFFCURVE",
"847 638 CURVE",
"936 669 OFFCURVE",
"1011 761 OFFCURVE",
"1011 885 CURVE SMOOTH",
"1011 1086 OFFCURVE",
"841 1171 OFFCURVE",
"546 1171 CURVE SMOOTH",
"180 1171 LINE SMOOTH",
"148 1171 OFFCURVE",
"132 1150 OFFCURVE",
"132 1129 CURVE SMOOTH",
"132 1107 OFFCURVE",
"148 1085 OFFCURVE",
"181 1085 CURVE SMOOTH",
"347 1085 LINE",
"347 86 LINE",
"187 86 LINE SMOOTH",
"154 86 OFFCURVE",
"137 64 OFFCURVE",
"137 43 CURVE SMOOTH",
"137 21 OFFCURVE",
"154 0 OFFCURVE",
"188 0 CURVE SMOOTH"
);
},
{
closed = 1;
nodes = (
"443 588 LINE",
"593 588 LINE SMOOTH",
"845 588 OFFCURVE",
"1012 516 OFFCURVE",
"1012 330 CURVE SMOOTH",
"1012 150 OFFCURVE",
"835 86 OFFCURVE",
"569 86 CURVE SMOOTH",
"443 86 LINE"
);
},
{
closed = 1;
nodes = (
"443 1085 LINE",
"569 1085 LINE SMOOTH",
"787 1085 OFFCURVE",
"925 1031 OFFCURVE",
"925 885 CURVE SMOOTH",
"925 749 OFFCURVE",
"797 672 OFFCURVE",
"593 672 CURVE SMOOTH",
"443 672 LINE"
);
}
);
width = 1240;
},
{
anchors = (
{
name = bottom;
position = "{620, 0}";
},
{
name = top;
position = "{620, 1171}";
}
);
layerId = "F2E12B84-E402-48AA-89E7-06534AE23493";
paths = (
{
closed = 1;
nodes = (
"601 0 LINE SMOOTH",
"930 0 OFFCURVE",
"1123 94 OFFCURVE",
"1123 350 CURVE SMOOTH",
"1123 508 OFFCURVE",
"993 604 OFFCURVE",
"872 638 CURVE",
"951 669 OFFCURVE",
"1026 761 OFFCURVE",
"1026 885 CURVE SMOOTH",
"1026 1086 OFFCURVE",
"866 1171 OFFCURVE",
"561 1171 CURVE SMOOTH",
"215 1171 LINE SMOOTH",
"143 1171 OFFCURVE",
"117 1130 OFFCURVE",
"117 1084 CURVE SMOOTH",
"117 1042 OFFCURVE",
"143 995 OFFCURVE",
"216 995 CURVE SMOOTH",
"272 995 LINE",
"272 176 LINE",
"212 176 LINE SMOOTH",
"149 176 OFFCURVE",
"122 129 OFFCURVE",
"122 88 CURVE SMOOTH",
"122 46 OFFCURVE",
"149 0 OFFCURVE",
"213 0 CURVE SMOOTH"
);
},
{
closed = 1;
nodes = (
"518 548 LINE",
"588 548 LINE SMOOTH",
"750 548 OFFCURVE",
"877 496 OFFCURVE",
"877 356 CURVE SMOOTH",
"877 260 OFFCURVE",
"790 176 OFFCURVE",
"574 176 CURVE SMOOTH",
"518 176 LINE"
);
},
{
closed = 1;
nodes = (
"518 995 LINE",
"564 995 LINE SMOOTH",
"692 995 OFFCURVE",
"790 959 OFFCURVE",
"790 855 CURVE SMOOTH",
"790 762 OFFCURVE",
"702 702 OFFCURVE",
"588 702 CURVE SMOOTH",
"518 702 LINE"
);
}
);
width = 1240;
}
);
unicode = 0042;
},
{
glyphname = C;
lastChange = "2017-07-06 15:11:18 +0000";
layers = (
{
anchors = (
{
name = bottom;
position = "{620, 0}";
},
{
name = top;
position = "{680, 1171}";
}
);
layerId = "840BD324-B0A6-42B0-BD23-CB5E8C19394F";
paths = (
{
closed = 1;
nodes = (
"946 -17 OFFCURVE",
"1130 191 OFFCURVE",
"1130 343 CURVE SMOOTH",
"1130 377 OFFCURVE",
"1106 393 OFFCURVE",
"1083 393 CURVE SMOOTH",
"1062 393 OFFCURVE",
"1044 380 OFFCURVE",
"1036 345 CURVE SMOOTH",
"1010 239 OFFCURVE",
"893 69 OFFCURVE",
"670 69 CURVE SMOOTH",
"435 69 OFFCURVE",
"228 263 OFFCURVE",
"228 600 CURVE SMOOTH",
"228 890 OFFCURVE",
"396 1101 OFFCURVE",
"668 1101 CURVE SMOOTH",
"850 1101 OFFCURVE",
"996 974 OFFCURVE",
"1026 827 CURVE SMOOTH",
"1032 797 OFFCURVE",
"1050 780 OFFCURVE",
"1074 780 CURVE SMOOTH",
"1097 780 OFFCURVE",
"1122 795 OFFCURVE",
"1120 827 CURVE SMOOTH",
"1100 1120 LINE SMOOTH",
"1098 1154 OFFCURVE",
"1076 1171 OFFCURVE",
"1051 1171 CURVE SMOOTH",
"1028 1171 OFFCURVE",
"999 1155 OFFCURVE",
"1002 1123 CURVE SMOOTH",
"1002 1121 OFFCURVE",
"1011 1059 OFFCURVE",
"1020 994 CURVE",
"981 1071 OFFCURVE",
"863 1187 OFFCURVE",
"669 1187 CURVE SMOOTH",
"361 1187 OFFCURVE",
"132 954 OFFCURVE",
"132 607 CURVE SMOOTH",
"132 225 OFFCURVE",
"361 -17 OFFCURVE",
"669 -17 CURVE SMOOTH"
);
}
);
width = 1240;
},
{
anchors = (
{
name = bottom;
position = "{620, 0}";
},
{
name = top;
position = "{620, 1171}";
}
);
background = {
paths = (
{
closed = 1;
nodes = (
"946 -17 OFFCURVE",
"1130 191 OFFCURVE",
"1130 343 CURVE SMOOTH",
"1130 377 OFFCURVE",
"1106 393 OFFCURVE",
"1083 393 CURVE SMOOTH",
"1062 393 OFFCURVE",
"1044 380 OFFCURVE",
"1036 345 CURVE SMOOTH",
"1010 239 OFFCURVE",
"893 69 OFFCURVE",
"670 69 CURVE SMOOTH",
"435 69 OFFCURVE",
"228 263 OFFCURVE",
"228 600 CURVE SMOOTH",
"228 890 OFFCURVE",
"396 1101 OFFCURVE",
"668 1101 CURVE SMOOTH",
"850 1101 OFFCURVE",
"996 974 OFFCURVE",
"1026 827 CURVE SMOOTH",
"1032 797 OFFCURVE",
"1050 780 OFFCURVE",
"1074 780 CURVE SMOOTH",
"1097 780 OFFCURVE",
"1122 795 OFFCURVE",
"1120 827 CURVE SMOOTH",
"1100 1120 LINE SMOOTH",
"1098 1154 OFFCURVE",
"1076 1171 OFFCURVE",
"1051 1171 CURVE SMOOTH",
"1027 1171 OFFCURVE",
"997 1154 OFFCURVE",
"1002 1121 CURVE SMOOTH",
"1020 994 LINE",
"981 1071 OFFCURVE",
"863 1187 OFFCURVE",
"669 1187 CURVE SMOOTH",
"361 1187 OFFCURVE",
"132 954 OFFCURVE",
"132 607 CURVE SMOOTH",
"132 225 OFFCURVE",
"361 -17 OFFCURVE",
"669 -17 CURVE SMOOTH"
);
}
);
};
layerId = "F2E12B84-E402-48AA-89E7-06534AE23493";
paths = (
{
closed = 1;
nodes = (
"966 -17 OFFCURVE",
"1140 171 OFFCURVE",
"1142 308 CURVE SMOOTH",
"1143 367 OFFCURVE",
"1100 403 OFFCURVE",
"1054 403 CURVE SMOOTH",
"1009 403 OFFCURVE",
"973 359 OFFCURVE",
"942 308 CURVE SMOOTH",
"905 247 OFFCURVE",
"823 159 OFFCURVE",
"697 159 CURVE SMOOTH",
"515 159 OFFCURVE",
"358 313 OFFCURVE",
"358 600 CURVE SMOOTH",
"358 830 OFFCURVE",
"506 1011 OFFCURVE",
"698 1011 CURVE SMOOTH",
"871 1011 OFFCURVE",
"963 931 OFFCURVE",
"988 845 CURVE SMOOTH",
"1000 805 OFFCURVE",
"1031 780 OFFCURVE",
"1070 780 CURVE SMOOTH",
"1108 780 OFFCURVE",
"1156 803 OFFCURVE",
"1150 854 CURVE SMOOTH",
"1122 1100 LINE SMOOTH",
"1117 1140 OFFCURVE",
"1082 1187 OFFCURVE",
"1020 1187 CURVE SMOOTH",
"967 1187 OFFCURVE",
"928 1154 OFFCURVE",
"928 1114 CURVE SMOOTH",
"928 1103 OFFCURVE",
"934 1087 OFFCURVE",
"948 1054 CURVE",
"917 1090 OFFCURVE",
"850 1187 OFFCURVE",
"659 1187 CURVE SMOOTH",
"341 1187 OFFCURVE",
"112 954 OFFCURVE",
"112 607 CURVE SMOOTH",
"112 225 OFFCURVE",
"371 -17 OFFCURVE",
"659 -17 CURVE SMOOTH"
);
}
);
width = 1240;
}
);
unicode = 0043;
},
{
glyphname = D;
lastChange = "2017-07-07 01:50:09 +0000";
layers = (
{
anchors = (
{
name = bottom;
position = "{620, 0}";
},
{
name = center;
position = "{620, 586}";
},
{
name = top;
position = "{580, 1151}";
}
);
layerId = "840BD324-B0A6-42B0-BD23-CB5E8C19394F";
paths = (
{
closed = 1;
nodes = (
"517 0 LINE SMOOTH",
"918 0 OFFCURVE",
"1135 188 OFFCURVE",
"1135 591 CURVE SMOOTH",
"1135 973 OFFCURVE",
"902 1171 OFFCURVE",
"519 1171 CURVE SMOOTH",
"161 1171 LINE SMOOTH",
"128 1171 OFFCURVE",
"111 1149 OFFCURVE",
"111 1127 CURVE SMOOTH",
"111 1106 OFFCURVE",
"127 1085 OFFCURVE",
"159 1085 CURVE SMOOTH",
"318 1085 LINE",
"318 86 LINE",
"155 86 LINE SMOOTH",
"122 86 OFFCURVE",
"105 64 OFFCURVE",
"105 43 CURVE SMOOTH",
"105 21 OFFCURVE",
"122 0 OFFCURVE",
"156 0 CURVE SMOOTH"
);
},
{
closed = 1;
nodes = (
"414 1085 LINE",
"538 1085 LINE SMOOTH",
"871 1085 OFFCURVE",
"1039 887 OFFCURVE",
"1039 591 CURVE SMOOTH",
"1039 276 OFFCURVE",
"895 86 OFFCURVE",
"524 86 CURVE SMOOTH",
"414 86 LINE"
);
}
);
width = 1240;
},
{
anchors = (
{
name = bottom;
position = "{620, 0}";
},
{
name = center;
position = "{620, 586}";
},
{
name = top;
position = "{620, 1171}";
}
);
layerId = "F2E12B84-E402-48AA-89E7-06534AE23493";
paths = (
{
closed = 1;
nodes = (
"497 0 LINE SMOOTH",
"918 0 OFFCURVE",
"1145 188 OFFCURVE",
"1145 591 CURVE SMOOTH",
"1145 973 OFFCURVE",
"902 1171 OFFCURVE",
"489 1171 CURVE SMOOTH",
"186 1171 LINE SMOOTH",
"128 1171 OFFCURVE",
"91 1132 OFFCURVE",
"91 1083 CURVE SMOOTH",
"91 1035 OFFCURVE",
"127 995 OFFCURVE",
"184 995 CURVE SMOOTH",
"243 995 LINE",
"243 176 LINE",
"180 176 LINE SMOOTH",
"122 176 OFFCURVE",
"85 134 OFFCURVE",
"85 88 CURVE SMOOTH",
"85 41 OFFCURVE",
"122 0 OFFCURVE",
"181 0 CURVE SMOOTH"
);
},
{
closed = 1;
nodes = (
"489 995 LINE",
"498 995 LINE SMOOTH",
"762 995 OFFCURVE",
"909 857 OFFCURVE",
"909 591 CURVE SMOOTH",
"909 336 OFFCURVE",
"785 176 OFFCURVE",
"498 176 CURVE SMOOTH",
"489 176 LINE"
);
}
);
width = 1240;
}
);
unicode = 0044;
},
{
glyphname = DZ;
lastChange = "2017-07-07 15:35:45 +0000";
layers = (
{
components = (
{
name = _halfd;
transform = "{1, 0, 0, 1, 7, 0}";
}
);
layerId = "840BD324-B0A6-42B0-BD23-CB5E8C19394F";
paths = (
{
closed = 1;
nodes = (
"1108 0 LINE SMOOTH",
"1137 0 OFFCURVE",
"1160 19 OFFCURVE",
"1159 53 CURVE",
"1169 315 LINE SMOOTH",
"1170 350 OFFCURVE",
"1144 363 OFFCURVE",
"1123 363 CURVE SMOOTH",
"1100 363 OFFCURVE",
"1079 346 OFFCURVE",
"1077 314 CURVE",
"1067 86 LINE",
"818 86 LINE",
"1156 1081 LINE SMOOTH",
"1157 1085 OFFCURVE",
"1162 1102 OFFCURVE",
"1162 1116 CURVE SMOOTH",
"1162 1142 OFFCURVE",
"1152 1171 OFFCURVE",
"1117 1171 CURVE SMOOTH",
"807 1171 LINE SMOOTH",
"756 1171 OFFCURVE",
"750 1144 OFFCURVE",
"749 1116 CURVE",
"739 866 LINE SMOOTH",
"738 834 OFFCURVE",
"755 817 OFFCURVE",
"780 817 CURVE SMOOTH",
"802 817 OFFCURVE",
"824 830 OFFCURVE",
"825 857 CURVE SMOOTH",
"835 1085 LINE",
"1065 1085 LINE",
"722 95 LINE SMOOTH",
"714 73 OFFCURVE",
"711 54 OFFCURVE",
"711 39 CURVE SMOOTH",
"711 14 OFFCURVE",
"722 0 OFFCURVE",
"746 0 CURVE SMOOTH"
);
}
);
width = 1240;
},
{
components = (
{
name = _halfd;
transform = "{1, 0, 0, 1, 7, 0}";
}
);
layerId = "F2E12B84-E402-48AA-89E7-06534AE23493";
paths = (
{
closed = 1;
nodes = (
"1098 0 LINE SMOOTH",
"1137 0 OFFCURVE",
"1160 19 OFFCURVE",
"1159 53 CURVE",
"1178 295 LINE SMOOTH",
"1182 350 OFFCURVE",
"1144 363 OFFCURVE",
"1123 363 CURVE SMOOTH",
"1090 363 OFFCURVE",
"1073 345 OFFCURVE",
"1067 314 CURVE SMOOTH",
"1037 166 LINE",
"888 166 LINE",
"1186 1081 LINE SMOOTH",
"1187 1085 OFFCURVE",
"1192 1102 OFFCURVE",
"1192 1116 CURVE SMOOTH",
"1192 1142 OFFCURVE",
"1182 1171 OFFCURVE",
"1147 1171 CURVE SMOOTH",
"807 1171 LINE SMOOTH",
"756 1171 OFFCURVE",
"750 1144 OFFCURVE",
"749 1116 CURVE SMOOTH",
"730 886 LINE SMOOTH",
"726 834 OFFCURVE",
"755 817 OFFCURVE",
"780 817 CURVE SMOOTH",
"802 817 OFFCURVE",
"830 830 OFFCURVE",
"835 857 CURVE SMOOTH",
"865 1005 LINE",
"985 1005 LINE",
"692 95 LINE SMOOTH",
"685 73 OFFCURVE",
"681 54 OFFCURVE",
"681 39 CURVE SMOOTH",
"681 14 OFFCURVE",
"692 0 OFFCURVE",
"716 0 CURVE SMOOTH"
);
}
);
width = 1240;
}
);
unicode = 01F1;
},
{
glyphname = DZcaron;
lastChange = "2017-06-26 22:00:10 +0000";
layers = (
{
components = (
{
name = _halfd;
}
);
layerId = "840BD324-B0A6-42B0-BD23-CB5E8C19394F";
paths = (
{
closed = 1;
nodes = (
"985 1320 LINE SMOOTH",
"981 1312 OFFCURVE",
"974 1299 OFFCURVE",
"953 1299 CURVE SMOOTH",
"932 1299 OFFCURVE",
"927 1312 OFFCURVE",
"922 1320 CURVE SMOOTH",
"758 1583 LINE SMOOTH",
"754 1590 OFFCURVE",
"750 1596 OFFCURVE",
"752 1606 CURVE SMOOTH",
"755 1623 OFFCURVE",
"770 1634 OFFCURVE",
"783 1634 CURVE SMOOTH",
"796 1634 OFFCURVE",
"805 1629 OFFCURVE",
"811 1621 CURVE SMOOTH",
"953 1432 LINE",
"1066 1621 LINE SMOOTH",
"1071 1629 OFFCURVE",
"1081 1637 OFFCURVE",
"1094 1637 CURVE SMOOTH",
"1107 1637 OFFCURVE",
"1125 1627 OFFCURVE",
"1125 1612 CURVE SMOOTH",
"1125 1601 OFFCURVE",
"1123 1592 OFFCURVE",
"1119 1583 CURVE SMOOTH"
);
},
{
closed = 1;
nodes = (
"1108 0 CURVE SMOOTH",
"746 0 LINE SMOOTH",
"722 0 OFFCURVE",
"711 14 OFFCURVE",
"711 39 CURVE SMOOTH",
"711 54 OFFCURVE",
"714 73 OFFCURVE",
"722 95 CURVE SMOOTH",
"1065 1085 LINE",
"835 1085 LINE",
"825 857 LINE SMOOTH",
"824 830 OFFCURVE",
"802 817 OFFCURVE",
"780 817 CURVE SMOOTH",
"755 817 OFFCURVE",
"738 834 OFFCURVE",
"739 866 CURVE SMOOTH",
"749 1116 LINE",
"750 1144 OFFCURVE",
"756 1171 OFFCURVE",
"807 1171 CURVE SMOOTH",
"1117 1171 LINE SMOOTH",
"1152 1171 OFFCURVE",
"1162 1142 OFFCURVE",
"1162 1116 CURVE SMOOTH",
"1162 1102 OFFCURVE",
"1157 1085 OFFCURVE",
"1156 1081 CURVE SMOOTH",
"818 86 LINE",
"1067 86 LINE",
"1077 314 LINE",
"1079 346 OFFCURVE",
"1100 363 OFFCURVE",
"1123 363 CURVE SMOOTH",
"1144 363 OFFCURVE",
"1170 350 OFFCURVE",
"1169 315 CURVE SMOOTH",
"1159 53 LINE",
"1160 19 OFFCURVE",
"1137 0 OFFCURVE"
);
}
);
width = 1240;
},
{
layerId = "F2E12B84-E402-48AA-89E7-06534AE23493";
width = 600;
}
);
unicode = 01C4;
},
{
glyphname = Eth;
lastChange = "2017-06-26 22:00:10 +0000";
layers = (
{
components = (
{
name = D;
}
);
layerId = "840BD324-B0A6-42B0-BD23-CB5E8C19394F";
paths = (
{
closed = 1;
nodes = (
"172 572 LINE SMOOTH",
"140 572 OFFCURVE",
"126 592 OFFCURVE",
"126 611 CURVE SMOOTH",
"126 630 OFFCURVE",
"138 648 OFFCURVE",
"168 648 CURVE SMOOTH",
"314 648 LINE",
"420 648 LINE",
"607 648 LINE SMOOTH",
"635 648 OFFCURVE",
"646 630 OFFCURVE",
"646 611 CURVE SMOOTH",
"646 592 OFFCURVE",
"633 572 OFFCURVE",
"605 572 CURVE SMOOTH",
"420 572 LINE",
"314 572 LINE"
);
}
);
width = 1240;
},
{
layerId = "F2E12B84-E402-48AA-89E7-06534AE23493";
width = 600;
}
);
unicode = 00D0;
},
{
glyphname = Dcroat;
lastChange = "2017-06-26 22:00:10 +0000";
layers = (
{
components = (
{
name = D;
}
);
layerId = "840BD324-B0A6-42B0-BD23-CB5E8C19394F";
paths = (
{
closed = 1;
nodes = (
"172 572 LINE SMOOTH",
"140 572 OFFCURVE",
"126 592 OFFCURVE",
"126 611 CURVE SMOOTH",
"126 630 OFFCURVE",
"138 648 OFFCURVE",
"168 648 CURVE SMOOTH",
"314 648 LINE",
"420 648 LINE",
"607 648 LINE SMOOTH",
"635 648 OFFCURVE",
"646 630 OFFCURVE",
"646 611 CURVE SMOOTH",
"646 592 OFFCURVE",
"633 572 OFFCURVE",
"605 572 CURVE SMOOTH",
"420 572 LINE",
"314 572 LINE"
);
}
);
width = 1240;
},
{
layerId = "F2E12B84-E402-48AA-89E7-06534AE23493";
width = 600;
}
);
unicode = 0110;
},
{
glyphname = E;
lastChange = "2017-07-07 01:51:13 +0000";
layers = (
{
anchors = (
{
name = bottom;
position = "{620, 0}";
},
{
name = ogonek;
position = "{1116, 10}";
},
{
name = top;
position = "{650, 1171}";
},
{
name = topleft;
position = "{20, 1171}";
}
);
layerId = "840BD324-B0A6-42B0-BD23-CB5E8C19394F";
paths = (
{
closed = 1;
nodes = (
"1051 0 LINE SMOOTH",
"1084 0 OFFCURVE",
"1104 19 OFFCURVE",
"1107 53 CURVE SMOOTH",
"1127 323 LINE SMOOTH",
"1130 359 OFFCURVE",
"1106 375 OFFCURVE",
"1085 375 CURVE SMOOTH",
"1064 375 OFFCURVE",
"1044 360 OFFCURVE",
"1041 336 CURVE SMOOTH",
"1008 108 LINE SMOOTH",
"1007 99 OFFCURVE",
"1000 85 OFFCURVE",
"986 85 CURVE",
"410 85 LINE",
"410 577 LINE",
"736 577 LINE",
"749 429 LINE SMOOTH",
"751 401 OFFCURVE",
"770 386 OFFCURVE",
"789 386 CURVE SMOOTH",
"808 386 OFFCURVE",
"827 402 OFFCURVE",
"827 437 CURVE SMOOTH",
"827 779 LINE SMOOTH",
"827 816 OFFCURVE",
"808 832 OFFCURVE",
"789 832 CURVE SMOOTH",
"771 832 OFFCURVE",
"752 817 OFFCURVE",
"749 787 CURVE SMOOTH",
"736 654 LINE",
"410 654 LINE",
"410 1085 LINE",
"981 1085 LINE",
"992 1085 OFFCURVE",
"1001 1073 OFFCURVE",
"1003 1062 CURVE SMOOTH",
"1033 841 LINE SMOOTH",
"1036 816 OFFCURVE",
"1055 803 OFFCURVE",
"1075 803 CURVE SMOOTH",
"1095 803 OFFCURVE",
"1117 817 OFFCURVE",
"1115 847 CURVE SMOOTH",
"1095 1117 LINE SMOOTH",
"1092 1151 OFFCURVE",
"1072 1171 OFFCURVE",
"1039 1171 CURVE SMOOTH",
"181 1171 LINE SMOOTH",
"148 1171 OFFCURVE",
"131 1149 OFFCURVE",
"131 1127 CURVE SMOOTH",
"131 1106 OFFCURVE",
"147 1085 OFFCURVE",
"179 1085 CURVE SMOOTH",
"314 1085 LINE",
"314 85 LINE",
"144 85 LINE SMOOTH",
"111 85 OFFCURVE",
"94 64 OFFCURVE",
"94 43 CURVE SMOOTH",
"94 22 OFFCURVE",
"111 0 OFFCURVE",
"145 0 CURVE SMOOTH"
);
}
);
width = 1240;
},
{
anchors = (
{
name = bottom;
position = "{620, 0}";
},
{
name = ogonek;
position = "{1116, 10}";
},
{
name = top;
position = "{620, 1171}";
},
{
name = topleft;
position = "{20, 1171}";
}
);
layerId = "F2E12B84-E402-48AA-89E7-06534AE23493";
paths = (
{
closed = 1;
nodes = (
"1092 0 LINE SMOOTH",
"1125 0 OFFCURVE",
"1145 19 OFFCURVE",
"1148 53 CURVE SMOOTH",
"1167 297 LINE SMOOTH",
"1171 353 OFFCURVE",
"1138 395 OFFCURVE",
"1090 395 CURVE SMOOTH",
"1045 395 OFFCURVE",
"1006 370 OFFCURVE",
"996 320 CURVE SMOOTH",
"970 188 LINE SMOOTH",
"968 179 OFFCURVE",
"961 165 OFFCURVE",
"947 165 CURVE",
"491 165 LINE",
"491 533 LINE",
"707 533 LINE",
"740 429 LINE SMOOTH",
"749 402 OFFCURVE",
"781 386 OFFCURVE",
"810 386 CURVE SMOOTH",
"839 386 OFFCURVE",
"878 402 OFFCURVE",
"878 437 CURVE SMOOTH",
"878 779 LINE SMOOTH",
"878 816 OFFCURVE",
"839 832 OFFCURVE",
"810 832 CURVE SMOOTH",
"782 832 OFFCURVE",
"751 815 OFFCURVE",
"740 787 CURVE SMOOTH",
"707 699 LINE",
"491 699 LINE",
"491 1005 LINE",
"942 1005 LINE",
"953 1005 OFFCURVE",
"963 993 OFFCURVE",
"965 982 CURVE SMOOTH",
"988 856 LINE SMOOTH",
"997 808 OFFCURVE",
"1036 783 OFFCURVE",
"1081 783 CURVE SMOOTH",
"1126 783 OFFCURVE",
"1158 812 OFFCURVE",
"1154 872 CURVE SMOOTH",
"1136 1117 LINE SMOOTH",
"1134 1151 OFFCURVE",
"1113 1171 OFFCURVE",
"1080 1171 CURVE SMOOTH",
"182 1171 LINE SMOOTH",
"129 1171 OFFCURVE",
"92 1139 OFFCURVE",
"92 1090 CURVE SMOOTH",
"92 1041 OFFCURVE",
"128 1005 OFFCURVE",
"180 1005 CURVE SMOOTH",
"245 1005 LINE",
"245 165 LINE",
"145 165 LINE SMOOTH",
"92 165 OFFCURVE",
"55 129 OFFCURVE",
"55 83 CURVE SMOOTH",
"55 37 OFFCURVE",
"92 0 OFFCURVE",
"146 0 CURVE SMOOTH"
);
}
);
width = 1240;
}
);
unicode = 0045;
},
{
glyphname = F;
lastChange = "2017-07-07 01:51:02 +0000";
layers = (
{
anchors = (
{
name = bottom;
position = "{620, 0}";
},
{
name = top;
position = "{620, 1171}";
}
);
layerId = "840BD324-B0A6-42B0-BD23-CB5E8C19394F";
paths = (
{
closed = 1;
nodes = (
"791 0 LINE SMOOTH",
"820 0 OFFCURVE",
"836 21 OFFCURVE",
"836 43 CURVE SMOOTH",
"836 64 OFFCURVE",
"821 85 OFFCURVE",
"790 85 CURVE SMOOTH",
"430 85 LINE",
"430 577 LINE",
"777 577 LINE",
"790 429 LINE SMOOTH",
"792 401 OFFCURVE",
"811 386 OFFCURVE",
"830 386 CURVE SMOOTH",
"849 386 OFFCURVE",
"868 402 OFFCURVE",
"868 437 CURVE SMOOTH",
"868 779 LINE SMOOTH",
"868 816 OFFCURVE",
"849 832 OFFCURVE",
"830 832 CURVE SMOOTH",
"812 832 OFFCURVE",
"793 817 OFFCURVE",
"790 787 CURVE SMOOTH",
"777 654 LINE",
"430 654 LINE",
"430 1085 LINE",
"1024 1085 LINE SMOOTH",
"1035 1085 OFFCURVE",
"1044 1073 OFFCURVE",
"1046 1062 CURVE",
"1076 841 LINE SMOOTH",
"1079 816 OFFCURVE",
"1098 803 OFFCURVE",
"1118 803 CURVE SMOOTH",
"1138 803 OFFCURVE",
"1160 817 OFFCURVE",
"1158 847 CURVE SMOOTH",
"1138 1117 LINE SMOOTH",
"1135 1151 OFFCURVE",
"1115 1171 OFFCURVE",
"1082 1171 CURVE SMOOTH",
"201 1171 LINE SMOOTH",
"168 1171 OFFCURVE",
"151 1149 OFFCURVE",
"151 1127 CURVE SMOOTH",
"151 1106 OFFCURVE",
"167 1085 OFFCURVE",
"199 1085 CURVE SMOOTH",
"334 1085 LINE",
"334 85 LINE",
"164 85 LINE SMOOTH",
"131 85 OFFCURVE",
"114 64 OFFCURVE",
"114 43 CURVE SMOOTH",
"114 22 OFFCURVE",
"131 0 OFFCURVE",
"165 0 CURVE SMOOTH"
);
}
);
width = 1240;
},
{
anchors = (
{
name = bottom;
position = "{620, 0}";
},
{
name = top;
position = "{620, 1171}";
}
);
layerId = "F2E12B84-E402-48AA-89E7-06534AE23493";
paths = (
{
closed = 1;
nodes = (
"778 0 LINE SMOOTH",
"835 0 OFFCURVE",
"858 40 OFFCURVE",
"858 80 CURVE SMOOTH",
"858 123 OFFCURVE",
"834 165 OFFCURVE",
"778 165 CURVE SMOOTH",
"511 165 LINE",
"511 533 LINE",
"727 533 LINE",
"760 429 LINE SMOOTH",
"769 402 OFFCURVE",
"801 386 OFFCURVE",
"830 386 CURVE SMOOTH",
"859 386 OFFCURVE",
"898 402 OFFCURVE",
"898 437 CURVE SMOOTH",
"898 779 LINE SMOOTH",
"898 816 OFFCURVE",
"859 832 OFFCURVE",
"830 832 CURVE SMOOTH",
"802 832 OFFCURVE",
"771 815 OFFCURVE",
"760 787 CURVE SMOOTH",
"727 699 LINE",
"511 699 LINE",
"511 1005 LINE",
"962 1005 LINE",
"973 1005 OFFCURVE",
"983 993 OFFCURVE",
"985 982 CURVE SMOOTH",
"1008 856 LINE SMOOTH",
"1017 808 OFFCURVE",
"1056 783 OFFCURVE",
"1101 783 CURVE SMOOTH",
"1146 783 OFFCURVE",
"1178 812 OFFCURVE",
"1174 872 CURVE SMOOTH",
"1156 1117 LINE SMOOTH",
"1154 1151 OFFCURVE",
"1133 1171 OFFCURVE",
"1100 1171 CURVE SMOOTH",
"192 1171 LINE SMOOTH",
"149 1171 OFFCURVE",
"112 1139 OFFCURVE",
"112 1090 CURVE SMOOTH",
"112 1041 OFFCURVE",
"148 1005 OFFCURVE",
"190 1005 CURVE SMOOTH",
"265 1005 LINE",
"265 165 LINE",
"155 165 LINE SMOOTH",
"112 165 OFFCURVE",
"75 129 OFFCURVE",
"75 83 CURVE SMOOTH",
"75 37 OFFCURVE",
"112 0 OFFCURVE",
"156 0 CURVE SMOOTH"
);
}
);
width = 1240;
}
);
unicode = 0046;
},
{
glyphname = G;
lastChange = "2017-07-06 15:14:37 +0000";
layers = (
{
anchors = (
{
name = bottom;
position = "{620, 0}";
},
{
name = top;
position = "{644, 1171}";
}
);
layerId = "840BD324-B0A6-42B0-BD23-CB5E8C19394F";
paths = (
{
closed = 1;
nodes = (
"844 -17 OFFCURVE",
"970 159 OFFCURVE",
"973 192 CURVE",
"973 367 LINE",
"972 272 OFFCURVE",
"835 69 OFFCURVE",
"607 69 CURVE SMOOTH",
"382 69 OFFCURVE",
"196 263 OFFCURVE",
"196 600 CURVE SMOOTH",
"196 890 OFFCURVE",
"343 1101 OFFCURVE",
"618 1101 CURVE SMOOTH",
"815 1101 OFFCURVE",
"937 957 OFFCURVE",
"972 837 CURVE SMOOTH",
"981 807 OFFCURVE",
"996 790 OFFCURVE",
"1020 790 CURVE SMOOTH",
"1043 790 OFFCURVE",
"1065 805 OFFCURVE",
"1063 837 CURVE SMOOTH",
"1043 1120 LINE SMOOTH",
"1041 1154 OFFCURVE",
"1022 1171 OFFCURVE",
"998 1171 CURVE SMOOTH",
"973 1171 OFFCURVE",
"948 1154 OFFCURVE",
"952 1121 CURVE SMOOTH",
"958 1075 OFFCURVE",
"964 1028 OFFCURVE",
"970 982 CURVE",
"923 1080 OFFCURVE",
"804 1187 OFFCURVE",
"615 1187 CURVE SMOOTH",
"307 1187 OFFCURVE",
"100 954 OFFCURVE",
"100 607 CURVE SMOOTH",
"100 225 OFFCURVE",
"308 -17 OFFCURVE",
"606 -17 CURVE SMOOTH"
);
},
{
closed = 1;
nodes = (
"1043 -8 OFFCURVE",
"1066 11 OFFCURVE",
"1066 49 CURVE SMOOTH",
"1066 470 LINE",
"1129 470 LINE SMOOTH",
"1163 470 OFFCURVE",
"1180 492 OFFCURVE",
"1180 514 CURVE SMOOTH",
"1180 535 OFFCURVE",
"1164 556 OFFCURVE",
"1131 556 CURVE SMOOTH",
"787 556 LINE SMOOTH",
"754 556 OFFCURVE",
"738 535 OFFCURVE",
"738 514 CURVE SMOOTH",
"738 492 OFFCURVE",
"755 470 OFFCURVE",
"788 470 CURVE SMOOTH",
"972 470 LINE",
"972 280 LINE",
"972 255 LINE",
"972 51 LINE SMOOTH",
"972 12 OFFCURVE",
"997 -8 OFFCURVE",
"1020 -8 CURVE SMOOTH"
);
}
);
width = 1240;
},
{
anchors = (
{
name = bottom;
position = "{620, 0}";
},
{
name = top;
position = "{620, 1171}";
}
);
layerId = "F2E12B84-E402-48AA-89E7-06534AE23493";
paths = (
{
closed = 1;
nodes = (
"824 -17 OFFCURVE",
"905 119 OFFCURVE",
"905 126 CURVE",
"883 325 LINE",
"883 255 OFFCURVE",
"775 159 OFFCURVE",
"657 159 CURVE SMOOTH",
"472 159 OFFCURVE",
"346 354 OFFCURVE",
"346 600 CURVE SMOOTH",
"346 800 OFFCURVE",
"463 1011 OFFCURVE",
"678 1011 CURVE SMOOTH",
"851 1011 OFFCURVE",
"942 931 OFFCURVE",
"968 845 CURVE SMOOTH",
"980 805 OFFCURVE",
"1011 780 OFFCURVE",
"1050 780 CURVE SMOOTH",
"1088 780 OFFCURVE",
"1136 803 OFFCURVE",
"1130 854 CURVE SMOOTH",
"1102 1100 LINE SMOOTH",
"1097 1140 OFFCURVE",
"1062 1187 OFFCURVE",
"1000 1187 CURVE SMOOTH",
"947 1187 OFFCURVE",
"908 1154 OFFCURVE",
"908 1114 CURVE SMOOTH",
"908 1103 OFFCURVE",
"914 1087 OFFCURVE",
"928 1054 CURVE",
"897 1090 OFFCURVE",
"820 1187 OFFCURVE",
"629 1187 CURVE SMOOTH",
"317 1187 OFFCURVE",
"100 944 OFFCURVE",
"100 607 CURVE SMOOTH",
"100 226 OFFCURVE",
"328 -17 OFFCURVE",
"626 -17 CURVE SMOOTH"
);
},
{
closed = 1;
nodes = (
"1053 -18 OFFCURVE",
"1096 11 OFFCURVE",
"1096 69 CURVE SMOOTH",
"1096 430 LINE",
"1119 430 LINE SMOOTH",
"1173 430 OFFCURVE",
"1190 472 OFFCURVE",
"1190 504 CURVE SMOOTH",
"1190 535 OFFCURVE",
"1172 576 OFFCURVE",
"1119 576 CURVE SMOOTH",
"747 576 LINE SMOOTH",
"702 576 OFFCURVE",
"678 535 OFFCURVE",
"678 504 CURVE SMOOTH",
"678 472 OFFCURVE",
"703 430 OFFCURVE",
"748 430 CURVE SMOOTH",
"882 430 LINE",
"882 233 LINE",
"902 144 LINE",
"902 71 LINE SMOOTH",
"902 12 OFFCURVE",
"957 -18 OFFCURVE",
"1000 -18 CURVE SMOOTH"
);
}
);
width = 1240;
}
);
unicode = 0047;
},
{
glyphname = H;
lastChange = "2017-07-07 01:52:49 +0000";
layers = (
{
anchors = (
{
name = bottom;
position = "{620, 0}";
},
{
name = center;
position = "{620, 586}";
},
{
name = top;
position = "{630, 1171}";
},
{
name = topleft;
position = "{20, 1171}";
}
);
layerId = "840BD324-B0A6-42B0-BD23-CB5E8C19394F";
paths = (
{
closed = 1;
nodes = (
"459 0 LINE SMOOTH",
"492 0 OFFCURVE",
"509 23 OFFCURVE",
"509 46 CURVE SMOOTH",
"509 66 OFFCURVE",
"493 86 OFFCURVE",
"461 86 CURVE SMOOTH",
"358 86 LINE",
"358 558 LINE",
"904 558 LINE",
"904 86 LINE",
"801 86 LINE SMOOTH",
"769 86 OFFCURVE",
"753 65 OFFCURVE",
"753 44 CURVE SMOOTH",
"753 22 OFFCURVE",
"770 0 OFFCURVE",
"803 0 CURVE SMOOTH",
"1097 0 LINE SMOOTH",
"1130 0 OFFCURVE",
"1147 22 OFFCURVE",
"1147 43 CURVE SMOOTH",
"1147 65 OFFCURVE",
"1130 86 OFFCURVE",
"1097 86 CURVE SMOOTH",
"997 86 LINE",
"997 1085 LINE",
"1097 1085 LINE SMOOTH",
"1130 1085 OFFCURVE",
"1147 1107 OFFCURVE",
"1147 1130 CURVE SMOOTH",
"1147 1150 OFFCURVE",
"1130 1171 OFFCURVE",
"1097 1171 CURVE SMOOTH",
"803 1171 LINE SMOOTH",
"770 1171 OFFCURVE",
"753 1149 OFFCURVE",
"753 1127 CURVE SMOOTH",
"753 1106 OFFCURVE",
"768 1085 OFFCURVE",
"801 1085 CURVE SMOOTH",
"904 1085 LINE",
"904 638 LINE",
"358 638 LINE",
"358 1085 LINE",
"461 1085 LINE SMOOTH",
"494 1085 OFFCURVE",
"509 1106 OFFCURVE",
"509 1127 CURVE SMOOTH",
"509 1149 OFFCURVE",
"492 1171 OFFCURVE",
"459 1171 CURVE SMOOTH",
"157 1171 LINE SMOOTH",
"124 1171 OFFCURVE",
"107 1149 OFFCURVE",
"107 1128 CURVE SMOOTH",
"107 1106 OFFCURVE",
"124 1085 OFFCURVE",
"157 1085 CURVE SMOOTH",
"265 1085 LINE",
"265 86 LINE",
"141 86 LINE SMOOTH",
"109 86 OFFCURVE",
"93 65 OFFCURVE",
"93 44 CURVE SMOOTH",
"93 22 OFFCURVE",
"110 0 OFFCURVE",
"143 0 CURVE SMOOTH"
);
}
);
width = 1240;
},
{
anchors = (
{
name = bottom;
position = "{620, 0}";
},
{
name = center;
position = "{620, 586}";
},
{
name = top;
position = "{620, 1171}";
},
{
name = topleft;
position = "{20, 1171}";
}
);
layerId = "F2E12B84-E402-48AA-89E7-06534AE23493";
paths = (
{
closed = 1;
nodes = (
"496 0 LINE SMOOTH",
"544 0 OFFCURVE",
"581 45 OFFCURVE",
"581 86 CURVE SMOOTH",
"581 129 OFFCURVE",
"546 172 OFFCURVE",
"498 172 CURVE SMOOTH",
"433 172 LINE",
"431 508 LINE",
"807 508 LINE",
"809 172 LINE",
"744 172 LINE SMOOTH",
"695 172 OFFCURVE",
"658 129 OFFCURVE",
"658 86 CURVE SMOOTH",
"658 45 OFFCURVE",
"695 0 OFFCURVE",
"744 0 CURVE SMOOTH",
"1108 0 LINE SMOOTH",
"1156 0 OFFCURVE",
"1193 45 OFFCURVE",
"1193 86 CURVE SMOOTH",
"1193 128 OFFCURVE",
"1156 172 OFFCURVE",
"1108 172 CURVE SMOOTH",
"1052 172 LINE",
"1050 999 LINE",
"1108 999 LINE SMOOTH",
"1156 999 OFFCURVE",
"1193 1044 OFFCURVE",
"1193 1087 CURVE SMOOTH",
"1193 1127 OFFCURVE",
"1156 1171 OFFCURVE",
"1108 1171 CURVE SMOOTH",
"743 1171 LINE SMOOTH",
"695 1171 OFFCURVE",
"658 1131 OFFCURVE",
"658 1084 CURVE SMOOTH",
"658 1037 OFFCURVE",
"693 999 OFFCURVE",
"741 999 CURVE SMOOTH",
"807 999 LINE",
"807 698 LINE",
"431 698 LINE",
"431 999 LINE",
"496 999 LINE SMOOTH",
"545 999 OFFCURVE",
"582 1037 OFFCURVE",
"582 1084 CURVE SMOOTH",
"582 1131 OFFCURVE",
"545 1171 OFFCURVE",
"496 1171 CURVE SMOOTH",
"132 1171 LINE SMOOTH",
"84 1171 OFFCURVE",
"47 1126 OFFCURVE",
"47 1085 CURVE SMOOTH",
"47 1043 OFFCURVE",
"84 999 OFFCURVE",
"132 999 CURVE SMOOTH",
"188 999 LINE",
"190 172 LINE",
"132 172 LINE SMOOTH",
"84 172 OFFCURVE",
"47 129 OFFCURVE",
"47 86 CURVE SMOOTH",
"47 46 OFFCURVE",
"84 0 OFFCURVE",
"132 0 CURVE SMOOTH"
);
}
);
width = 1240;
}
);
unicode = 0048;
},
{
glyphname = Hbar;
lastChange = "2017-07-06 00:36:50 +0000";
layers = (
{
components = (
{
name = H;
}
);
layerId = "840BD324-B0A6-42B0-BD23-CB5E8C19394F";
paths = (
{
closed = 1;
nodes = (
"1106 855 LINE SMOOTH",
"1139 855 OFFCURVE",
"1147 875 OFFCURVE",
"1147 894 CURVE SMOOTH",
"1147 913 OFFCURVE",
"1141 931 OFFCURVE",
"1108 931 CURVE SMOOTH",
"149 931 LINE SMOOTH",
"114 931 OFFCURVE",
"107 913 OFFCURVE",
"107 894 CURVE SMOOTH",
"107 875 OFFCURVE",
"116 855 OFFCURVE",
"153 855 CURVE SMOOTH"
);
}
);
width = 1240;
},
{
layerId = "F2E12B84-E402-48AA-89E7-06534AE23493";
width = 600;
}
);
unicode = 0126;
},
{
glyphname = I;
lastChange = "2017-07-07 01:53:40 +0000";
layers = (
{
anchors = (
{
name = bottom;
position = "{620, 0}";
},
{
name = ogonek;
position = "{1116, 10}";
},
{
name = top;
position = "{670, 1171}";
},
{
name = topleft;
position = "{20, 1171}";
}
);
layerId = "840BD324-B0A6-42B0-BD23-CB5E8C19394F";
paths = (
{
closed = 1;
nodes = (
"995 0 LINE SMOOTH",
"1028 0 OFFCURVE",
"1045 21 OFFCURVE",
"1045 43 CURVE SMOOTH",
"1045 64 OFFCURVE",
"1029 86 OFFCURVE",
"996 86 CURVE SMOOTH",
"710 86 LINE",
"710 1085 LINE",
"996 1085 LINE SMOOTH",
"1029 1085 OFFCURVE",
"1045 1106 OFFCURVE",
"1045 1127 CURVE SMOOTH",
"1045 1149 OFFCURVE",
"1028 1171 OFFCURVE",
"995 1171 CURVE SMOOTH",
"310 1171 LINE SMOOTH",
"277 1171 OFFCURVE",
"259 1149 OFFCURVE",
"259 1127 CURVE SMOOTH",
"259 1106 OFFCURVE",
"276 1085 OFFCURVE",
"309 1085 CURVE SMOOTH",
"614 1085 LINE",
"614 86 LINE",
"309 86 LINE SMOOTH",
"276 86 OFFCURVE",
"259 64 OFFCURVE",
"259 43 CURVE SMOOTH",
"259 21 OFFCURVE",
"277 0 OFFCURVE",
"310 0 CURVE SMOOTH"
);
}
);
width = 1240;
},
{
anchors = (
{
name = bottom;
position = "{620, 0}";
},
{
name = ogonek;
position = "{1116, 10}";
},
{
name = top;
position = "{620, 1171}";
},
{
name = topleft;
position = "{20, 1171}";
}
);
layerId = "F2E12B84-E402-48AA-89E7-06534AE23493";
paths = (
{
closed = 1;
nodes = (
"963 0 LINE SMOOTH",
"1026 0 OFFCURVE",
"1053 46 OFFCURVE",
"1053 88 CURVE SMOOTH",
"1053 129 OFFCURVE",
"1027 176 OFFCURVE",
"964 176 CURVE SMOOTH",
"753 176 LINE",
"753 995 LINE",
"964 995 LINE SMOOTH",
"1017 995 OFFCURVE",
"1053 1041 OFFCURVE",
"1053 1082 CURVE SMOOTH",
"1053 1124 OFFCURVE",
"1016 1171 OFFCURVE",
"963 1171 CURVE SMOOTH",
"278 1171 LINE SMOOTH",
"215 1171 OFFCURVE",
"187 1124 OFFCURVE",
"187 1082 CURVE SMOOTH",
"187 1041 OFFCURVE",
"214 995 OFFCURVE",
"277 995 CURVE SMOOTH",
"507 995 LINE",
"507 176 LINE",
"277 176 LINE SMOOTH",
"214 176 OFFCURVE",
"187 129 OFFCURVE",
"187 88 CURVE SMOOTH",
"187 46 OFFCURVE",
"215 0 OFFCURVE",
"278 0 CURVE SMOOTH"
);
}
);
width = 1240;
}
);
unicode = 0049;
},
{
glyphname = IJ;
lastChange = "2017-07-07 15:52:45 +0000";
layers = (
{
layerId = "840BD324-B0A6-42B0-BD23-CB5E8C19394F";
paths = (
{
closed = 1;
nodes = (
"838 -329 OFFCURVE",
"961 -164 OFFCURVE",
"961 121 CURVE SMOOTH",
"960 1085 LINE",
"1064 1085 LINE SMOOTH",
"1097 1085 OFFCURVE",
"1113 1107 OFFCURVE",
"1113 1128 CURVE SMOOTH",
"1113 1150 OFFCURVE",
"1096 1171 OFFCURVE",
"1063 1171 CURVE SMOOTH",
"760 1171 LINE SMOOTH",
"727 1171 OFFCURVE",
"709 1149 OFFCURVE",
"709 1127 CURVE SMOOTH",
"709 1106 OFFCURVE",
"726 1085 OFFCURVE",
"759 1085 CURVE SMOOTH",
"864 1085 LINE",
"865 118 LINE",
"865 -112 OFFCURVE",
"768 -246 OFFCURVE",
"601 -246 CURVE SMOOTH",
"447 -246 OFFCURVE",
"352 -156 OFFCURVE",
"352 -47 CURVE SMOOTH",
"352 -16 OFFCURVE",
"330 1 OFFCURVE",
"304 1 CURVE SMOOTH",
"275 1 OFFCURVE",
"254 -18 OFFCURVE",
"254 -47 CURVE SMOOTH",
"254 -209 OFFCURVE",
"384 -329 OFFCURVE",
"601 -329 CURVE SMOOTH"
);
},
{
closed = 1;
nodes = (
"558 120 LINE SMOOTH",
"591 120 OFFCURVE",
"608 141 OFFCURVE",
"608 163 CURVE SMOOTH",
"608 184 OFFCURVE",
"592 206 OFFCURVE",
"559 206 CURVE SMOOTH",
"428 206 LINE",
"428 1085 LINE",
"547 1085 LINE SMOOTH",
"580 1085 OFFCURVE",
"596 1107 OFFCURVE",
"596 1128 CURVE SMOOTH",
"596 1150 OFFCURVE",
"579 1171 OFFCURVE",
"546 1171 CURVE SMOOTH",
"218 1171 LINE SMOOTH",
"185 1171 OFFCURVE",
"167 1149 OFFCURVE",
"167 1127 CURVE SMOOTH",
"167 1106 OFFCURVE",
"184 1085 OFFCURVE",
"217 1085 CURVE SMOOTH",
"332 1085 LINE",
"332 206 LINE",
"217 206 LINE SMOOTH",
"184 206 OFFCURVE",
"167 184 OFFCURVE",
"167 163 CURVE SMOOTH",
"167 141 OFFCURVE",
"185 120 OFFCURVE",
"218 120 CURVE SMOOTH"
);
}
);
width = 1240;
},
{
layerId = "F2E12B84-E402-48AA-89E7-06534AE23493";
paths = (
{
closed = 1;
nodes = (
"863 -369 OFFCURVE",
"1016 -214 OFFCURVE",
"1016 141 CURVE SMOOTH",
"1015 995 LINE",
"1049 995 LINE SMOOTH",
"1112 995 OFFCURVE",
"1138 1046 OFFCURVE",
"1138 1087 CURVE SMOOTH",
"1138 1129 OFFCURVE",
"1111 1171 OFFCURVE",
"1048 1171 CURVE SMOOTH",
"755 1171 LINE SMOOTH",
"692 1171 OFFCURVE",
"664 1129 OFFCURVE",
"664 1087 CURVE SMOOTH",
"664 1046 OFFCURVE",
"691 995 OFFCURVE",
"754 995 CURVE SMOOTH",
"789 995 LINE",
"790 138 LINE SMOOTH",
"790 -62 OFFCURVE",
"733 -186 OFFCURVE",
"606 -186 CURVE SMOOTH",
"505 -186 OFFCURVE",
"427 -128 OFFCURVE",
"427 -27 CURVE SMOOTH",
"427 44 OFFCURVE",
"365 76 OFFCURVE",
"319 76 CURVE SMOOTH",
"270 76 OFFCURVE",
"209 42 OFFCURVE",
"209 -27 CURVE SMOOTH",
"209 -238 OFFCURVE",
"356 -369 OFFCURVE",
"606 -369 CURVE SMOOTH"
);
},
{
closed = 1;
nodes = (
"503 140 LINE SMOOTH",
"566 140 OFFCURVE",
"593 191 OFFCURVE",
"593 233 CURVE SMOOTH",
"593 274 OFFCURVE",
"567 326 OFFCURVE",
"504 326 CURVE SMOOTH",
"453 326 LINE",
"453 995 LINE",
"492 995 LINE SMOOTH",
"555 995 OFFCURVE",
"581 1046 OFFCURVE",
"581 1088 CURVE SMOOTH",
"581 1130 OFFCURVE",
"554 1171 OFFCURVE",
"491 1171 CURVE SMOOTH",
"193 1171 LINE SMOOTH",
"130 1171 OFFCURVE",
"102 1129 OFFCURVE",
"102 1087 CURVE SMOOTH",
"102 1046 OFFCURVE",
"129 995 OFFCURVE",
"192 995 CURVE SMOOTH",
"227 995 LINE",
"227 326 LINE",
"192 326 LINE SMOOTH",
"129 326 OFFCURVE",
"102 274 OFFCURVE",
"102 233 CURVE SMOOTH",
"102 191 OFFCURVE",
"130 140 OFFCURVE",
"193 140 CURVE SMOOTH"
);
}
);
width = 1240;
}
);
unicode = 0132;
},
{
glyphname = J;
lastChange = "2017-07-07 01:55:01 +0000";
layers = (
{
anchors = (
{
name = bottom;
position = "{620, 0}";
},
{
name = top;
position = "{730, 1171}";
}
);
layerId = "840BD324-B0A6-42B0-BD23-CB5E8C19394F";
paths = (
{
closed = 1;
nodes = (
"752 -13 OFFCURVE",
"865 142 OFFCURVE",
"865 387 CURVE SMOOTH",
"865 1085 LINE",
"1036 1085 LINE SMOOTH",
"1069 1085 OFFCURVE",
"1085 1107 OFFCURVE",
"1085 1128 CURVE SMOOTH",
"1085 1150 OFFCURVE",
"1068 1171 OFFCURVE",
"1035 1171 CURVE SMOOTH",
"400 1171 LINE SMOOTH",
"367 1171 OFFCURVE",
"351 1149 OFFCURVE",
"351 1127 CURVE SMOOTH",
"351 1106 OFFCURVE",
"367 1085 OFFCURVE",
"399 1085 CURVE SMOOTH",
"769 1085 LINE",
"769 384 LINE SMOOTH",
"769 194 OFFCURVE",
"682 70 OFFCURVE",
"500 70 CURVE SMOOTH",
"341 70 OFFCURVE",
"246 160 OFFCURVE",
"246 320 CURVE SMOOTH",
"246 352 OFFCURVE",
"224 368 OFFCURVE",
"198 368 CURVE SMOOTH",
"169 368 OFFCURVE",
"148 349 OFFCURVE",
"148 320 CURVE SMOOTH",
"148 107 OFFCURVE",
"278 -13 OFFCURVE",
"500 -13 CURVE SMOOTH"
);
}
);
width = 1240;
},
{
anchors = (
{
name = bottom;
position = "{620, 0}";
},
{
name = top;
position = "{620, 1171}";
}
);
layerId = "F2E12B84-E402-48AA-89E7-06534AE23493";
paths = (
{
closed = 1;
nodes = (
"802 -13 OFFCURVE",
"965 142 OFFCURVE",
"965 417 CURVE SMOOTH",
"965 995 LINE",
"1040 995 LINE SMOOTH",
"1103 995 OFFCURVE",
"1135 1037 OFFCURVE",
"1135 1083 CURVE SMOOTH",
"1135 1125 OFFCURVE",
"1102 1171 OFFCURVE",
"1039 1171 CURVE SMOOTH",
"416 1171 LINE SMOOTH",
"353 1171 OFFCURVE",
"321 1124 OFFCURVE",
"321 1082 CURVE SMOOTH",
"321 1036 OFFCURVE",
"353 995 OFFCURVE",
"415 995 CURVE SMOOTH",
"719 995 LINE",
"719 424 LINE SMOOTH",
"719 264 OFFCURVE",
"653 170 OFFCURVE",
"530 170 CURVE SMOOTH",
"441 170 OFFCURVE",
"356 222 OFFCURVE",
"356 320 CURVE SMOOTH",
"356 392 OFFCURVE",
"304 428 OFFCURVE",
"248 428 CURVE SMOOTH",
"189 428 OFFCURVE",
"138 389 OFFCURVE",
"138 320 CURVE SMOOTH",
"138 127 OFFCURVE",
"298 -13 OFFCURVE",
"530 -13 CURVE SMOOTH"
);
}
);
width = 1240;
}
);
unicode = 004A;
},
{
glyphname = K;
lastChange = "2017-07-07 01:55:21 +0000";
layers = (
{
anchors = (
{
name = bottom;
position = "{620, 0}";
},
{
name = top;
position = "{620, 1171}";
}
);
layerId = "840BD324-B0A6-42B0-BD23-CB5E8C19394F";
paths = (
{
closed = 1;
nodes = (
"519 0 LINE SMOOTH",
"552 0 OFFCURVE",
"569 21 OFFCURVE",
"569 43 CURVE SMOOTH",
"569 64 OFFCURVE",
"553 86 OFFCURVE",
"520 86 CURVE SMOOTH",
"362 86 LINE",
"362 405 LINE",
"1029 1085 LINE",
"1157 1085 LINE SMOOTH",
"1189 1085 OFFCURVE",
"1205 1105 OFFCURVE",
"1205 1127 CURVE SMOOTH",
"1205 1149 OFFCURVE",
"1189 1171 OFFCURVE",
"1156 1171 CURVE SMOOTH",
"794 1171 LINE SMOOTH",
"762 1171 OFFCURVE",
"744 1147 OFFCURVE",
"744 1127 CURVE SMOOTH",
"744 1108 OFFCURVE",
"760 1085 OFFCURVE",
"793 1085 CURVE",
"911 1085 LINE",
"358 519 LINE",
"358 1084 LINE",
"521 1084 LINE SMOOTH",
"554 1084 OFFCURVE",
"569 1105 OFFCURVE",
"569 1126 CURVE SMOOTH",
"569 1148 OFFCURVE",
"552 1171 OFFCURVE",
"519 1171 CURVE SMOOTH",
"94 1171 LINE SMOOTH",
"60 1171 OFFCURVE",
"43 1149 OFFCURVE",
"43 1127 CURVE SMOOTH",
"43 1105 OFFCURVE",
"60 1084 OFFCURVE",
"93 1084 CURVE SMOOTH",
"262 1084 LINE",
"262 86 LINE",
"93 86 LINE SMOOTH",
"60 86 OFFCURVE",
"43 64 OFFCURVE",
"43 43 CURVE SMOOTH",
"43 21 OFFCURVE",
"60 0 OFFCURVE",
"94 0 CURVE SMOOTH"
);
},
{
closed = 1;
nodes = (
"1158 0 LINE SMOOTH",
"1191 0 OFFCURVE",
"1207 21 OFFCURVE",
"1207 43 CURVE SMOOTH",
"1207 64 OFFCURVE",
"1191 86 OFFCURVE",
"1159 86 CURVE SMOOTH",
"1072 86 LINE",
"611 676 LINE",
"537 621 LINE",
"955 86 LINE",
"779 86 LINE SMOOTH",
"746 86 OFFCURVE",
"730 64 OFFCURVE",
"730 43 CURVE SMOOTH",
"730 21 OFFCURVE",
"747 0 OFFCURVE",
"780 0 CURVE SMOOTH"
);
}
);
width = 1240;
},
{
anchors = (
{
name = bottom;
position = "{620, 0}";
},
{
name = top;
position = "{620, 1171}";
}
);
layerId = "F2E12B84-E402-48AA-89E7-06534AE23493";
paths = (
{
closed = 1;
nodes = (
"489 0 LINE SMOOTH",
"552 0 OFFCURVE",
"579 46 OFFCURVE",
"579 88 CURVE SMOOTH",
"579 129 OFFCURVE",
"553 176 OFFCURVE",
"490 176 CURVE SMOOTH",
"432 176 LINE",
"432 375 LINE",
"1077 995 LINE",
"1127 995 LINE SMOOTH",
"1189 995 OFFCURVE",
"1215 1040 OFFCURVE",
"1215 1082 CURVE SMOOTH",
"1215 1124 OFFCURVE",
"1189 1171 OFFCURVE",
"1126 1171 CURVE SMOOTH",
"794 1171 LINE SMOOTH",
"732 1171 OFFCURVE",
"704 1122 OFFCURVE",
"704 1082 CURVE SMOOTH",
"704 1043 OFFCURVE",
"730 995 OFFCURVE",
"793 995 CURVE SMOOTH",
"851 995 LINE",
"428 589 LINE",
"428 994 LINE",
"491 994 LINE SMOOTH",
"554 994 OFFCURVE",
"579 1040 OFFCURVE",
"579 1081 CURVE SMOOTH",
"579 1123 OFFCURVE",
"552 1171 OFFCURVE",
"489 1171 CURVE SMOOTH",
"134 1171 LINE SMOOTH",
"70 1171 OFFCURVE",
"43 1124 OFFCURVE",
"43 1082 CURVE SMOOTH",
"43 1040 OFFCURVE",
"70 994 OFFCURVE",
"133 994 CURVE SMOOTH",
"182 994 LINE",
"182 176 LINE",
"133 176 LINE SMOOTH",
"70 176 OFFCURVE",
"43 129 OFFCURVE",
"43 88 CURVE SMOOTH",
"43 46 OFFCURVE",
"70 0 OFFCURVE",
"134 0 CURVE SMOOTH"
);
},
{
closed = 1;
nodes = (
"1126 0 LINE SMOOTH",
"1189 0 OFFCURVE",
"1215 46 OFFCURVE",
"1215 88 CURVE SMOOTH",
"1215 129 OFFCURVE",
"1189 176 OFFCURVE",
"1127 176 CURVE SMOOTH",
"1082 176 LINE",
"704 698 LINE",
"523 591 LINE",
"835 176 LINE",
"779 176 LINE SMOOTH",
"716 176 OFFCURVE",
"690 129 OFFCURVE",
"690 88 CURVE SMOOTH",
"690 46 OFFCURVE",
"717 0 OFFCURVE",
"780 0 CURVE SMOOTH"
);
}
);
width = 1240;
}
);
unicode = 004B;
},
{
glyphname = L;
lastChange = "2017-07-07 01:55:36 +0000";
layers = (
{
anchors = (
{
name = bottom;
position = "{708, -175}";
},
{
name = center;
position = "{620, 586}";
},
{
name = top;
position = "{440, 1171}";
},
{
name = topright;
position = "{1220, 1171}";
}
);
layerId = "840BD324-B0A6-42B0-BD23-CB5E8C19394F";
paths = (
{
closed = 1;
nodes = (
"1048 0 LINE SMOOTH",
"1091 0 OFFCURVE",
"1115 29 OFFCURVE",
"1120 66 CURVE",
"1150 387 LINE",
"1150 393 LINE SMOOTH",
"1150 425 OFFCURVE",
"1127 442 OFFCURVE",
"1101 442 CURVE SMOOTH",
"1078 442 OFFCURVE",
"1057 428 OFFCURVE",
"1053 399 CURVE SMOOTH",
"1019 123 LINE SMOOTH",
"1015 92 OFFCURVE",
"998 88 OFFCURVE",
"976 86 CURVE",
"489 86 LINE",
"489 1085 LINE",
"641 1085 LINE SMOOTH",
"674 1085 OFFCURVE",
"691 1106 OFFCURVE",
"691 1127 CURVE SMOOTH",
"691 1149 OFFCURVE",
"674 1171 OFFCURVE",
"640 1171 CURVE SMOOTH",
"167 1171 LINE SMOOTH",
"134 1171 OFFCURVE",
"117 1149 OFFCURVE",
"117 1127 CURVE SMOOTH",
"117 1106 OFFCURVE",
"133 1085 OFFCURVE",
"166 1085 CURVE SMOOTH",
"393 1085 LINE",
"393 86 LINE",
"124 86 LINE SMOOTH",
"91 86 OFFCURVE",
"74 64 OFFCURVE",
"74 43 CURVE SMOOTH",
"74 21 OFFCURVE",
"91 0 OFFCURVE",
"125 0 CURVE SMOOTH"
);
}
);
width = 1240;
},
{
anchors = (
{
name = bottom;
position = "{620, 0}";
},
{
name = center;
position = "{620, 586}";
},
{
name = top;
position = "{620, 1171}";
},
{
name = topright;
position = "{1220, 1171}";
}
);
layerId = "F2E12B84-E402-48AA-89E7-06534AE23493";
paths = (
{
closed = 1;
nodes = (
"1048 0 LINE SMOOTH",
"1101 0 OFFCURVE",
"1135 29 OFFCURVE",
"1140 86 CURVE",
"1170 447 LINE",
"1170 453 LINE SMOOTH",
"1170 525 OFFCURVE",
"1117 552 OFFCURVE",
"1071 552 CURVE SMOOTH",
"1028 552 OFFCURVE",
"978 528 OFFCURVE",
"969 459 CURVE SMOOTH",
"939 213 LINE SMOOTH",
"935 182 OFFCURVE",
"918 178 OFFCURVE",
"896 176 CURVE",
"539 176 LINE",
"539 995 LINE",
"621 995 LINE SMOOTH",
"684 995 OFFCURVE",
"711 1041 OFFCURVE",
"711 1082 CURVE SMOOTH",
"711 1124 OFFCURVE",
"684 1171 OFFCURVE",
"620 1171 CURVE SMOOTH",
"197 1171 LINE SMOOTH",
"134 1171 OFFCURVE",
"107 1124 OFFCURVE",
"107 1082 CURVE SMOOTH",
"107 1041 OFFCURVE",
"133 995 OFFCURVE",
"196 995 CURVE SMOOTH",
"293 995 LINE",
"293 176 LINE",
"154 176 LINE SMOOTH",
"91 176 OFFCURVE",
"64 129 OFFCURVE",
"64 88 CURVE SMOOTH",
"64 46 OFFCURVE",
"91 0 OFFCURVE",
"155 0 CURVE SMOOTH"
);
}
);
width = 1240;
}
);
unicode = 004C;
},
{
glyphname = LJ;
lastChange = "2017-07-07 15:59:55 +0000";
layers = (
{
layerId = "840BD324-B0A6-42B0-BD23-CB5E8C19394F";
paths = (
{
closed = 1;
nodes = (
"540 0 LINE SMOOTH",
"583 0 OFFCURVE",
"607 29 OFFCURVE",
"612 66 CURVE",
"642 387 LINE",
"642 393 LINE SMOOTH",
"642 425 OFFCURVE",
"621 442 OFFCURVE",
"595 442 CURVE SMOOTH",
"572 442 OFFCURVE",
"555 428 OFFCURVE",
"551 399 CURVE SMOOTH",
"517 123 LINE SMOOTH",
"513 92 OFFCURVE",
"498 88 OFFCURVE",
"476 86 CURVE",
"234 86 LINE",
"234 1085 LINE",
"416 1085 LINE SMOOTH",
"449 1085 OFFCURVE",
"466 1106 OFFCURVE",
"466 1127 CURVE SMOOTH",
"466 1149 OFFCURVE",
"449 1171 OFFCURVE",
"415 1171 CURVE SMOOTH",
"56 1171 LINE SMOOTH",
"23 1171 OFFCURVE",
"6 1149 OFFCURVE",
"6 1127 CURVE SMOOTH",
"6 1106 OFFCURVE",
"22 1085 OFFCURVE",
"55 1085 CURVE SMOOTH",
"138 1085 LINE",
"138 86 LINE",
"63 86 LINE SMOOTH",
"30 86 OFFCURVE",
"13 64 OFFCURVE",
"13 43 CURVE SMOOTH",
"13 21 OFFCURVE",
"30 0 OFFCURVE",
"64 0 CURVE SMOOTH"
);
},
{
closed = 1;
nodes = (
"1058 -13 OFFCURVE",
"1154 72 OFFCURVE",
"1154 367 CURVE SMOOTH",
"1154 1085 LINE",
"1225 1085 LINE SMOOTH",
"1258 1085 OFFCURVE",
"1274 1107 OFFCURVE",
"1274 1128 CURVE SMOOTH",
"1274 1150 OFFCURVE",
"1257 1171 OFFCURVE",
"1224 1171 CURVE SMOOTH",
"829 1171 LINE SMOOTH",
"796 1171 OFFCURVE",
"780 1149 OFFCURVE",
"780 1127 CURVE SMOOTH",
"780 1106 OFFCURVE",
"796 1085 OFFCURVE",
"828 1085 CURVE SMOOTH",
"1053 1085 LINE",
"1053 364 LINE SMOOTH",
"1053 149 OFFCURVE",
"1000 73 OFFCURVE",
"924 73 CURVE SMOOTH",
"856 73 OFFCURVE",
"793 143 OFFCURVE",
"793 250 CURVE SMOOTH",
"793 273 LINE SMOOTH",
"793 313 OFFCURVE",
"770 328 OFFCURVE",
"746 328 CURVE SMOOTH",
"722 328 OFFCURVE",
"697 312 OFFCURVE",
"697 273 CURVE SMOOTH",
"697 251 LINE SMOOTH",
"697 87 OFFCURVE",
"793 -13 OFFCURVE",
"924 -13 CURVE SMOOTH"
);
}
);
width = 1240;
},
{
layerId = "F2E12B84-E402-48AA-89E7-06534AE23493";
paths = (
{
closed = 1;
nodes = (
"520 0 LINE SMOOTH",
"563 0 OFFCURVE",
"587 29 OFFCURVE",
"592 66 CURVE",
"622 347 LINE",
"622 353 LINE SMOOTH",
"622 425 OFFCURVE",
"581 442 OFFCURVE",
"555 442 CURVE SMOOTH",
"532 442 OFFCURVE",
"496 428 OFFCURVE",
"488 379 CURVE SMOOTH",
"457 183 LINE SMOOTH",
"452 152 OFFCURVE",
"438 148 OFFCURVE",
"416 146 CURVE",
"334 146 LINE",
"334 1025 LINE",
"416 1025 LINE SMOOTH",
"469 1025 OFFCURVE",
"496 1056 OFFCURVE",
"496 1097 CURVE SMOOTH",
"496 1139 OFFCURVE",
"469 1171 OFFCURVE",
"415 1171 CURVE SMOOTH",
"86 1171 LINE SMOOTH",
"33 1171 OFFCURVE",
"6 1139 OFFCURVE",
"6 1097 CURVE SMOOTH",
"6 1056 OFFCURVE",
"32 1025 OFFCURVE",
"85 1025 CURVE SMOOTH",
"118 1025 LINE",
"118 146 LINE",
"83 146 LINE SMOOTH",
"40 146 OFFCURVE",
"13 114 OFFCURVE",
"13 73 CURVE SMOOTH",
"13 40 OFFCURVE",
"40 0 OFFCURVE",
"84 0 CURVE SMOOTH"
);
},
{
closed = 1;
nodes = (
"1088 -13 OFFCURVE",
"1174 72 OFFCURVE",
"1174 367 CURVE SMOOTH",
"1174 1025 LINE",
"1195 1025 LINE SMOOTH",
"1248 1025 OFFCURVE",
"1274 1057 OFFCURVE",
"1274 1098 CURVE SMOOTH",
"1274 1140 OFFCURVE",
"1247 1171 OFFCURVE",
"1194 1171 CURVE SMOOTH",
"809 1171 LINE SMOOTH",
"756 1171 OFFCURVE",
"730 1139 OFFCURVE",
"730 1097 CURVE SMOOTH",
"730 1056 OFFCURVE",
"756 1025 OFFCURVE",
"808 1025 CURVE SMOOTH",
"973 1025 LINE",
"973 364 LINE SMOOTH",
"973 209 OFFCURVE",
"949 133 OFFCURVE",
"895 133 CURVE SMOOTH",
"846 133 OFFCURVE",
"822 203 OFFCURVE",
"822 251 CURVE SMOOTH",
"822 273 LINE SMOOTH",
"822 313 OFFCURVE",
"795 348 OFFCURVE",
"751 348 CURVE SMOOTH",
"707 348 OFFCURVE",
"677 312 OFFCURVE",
"677 273 CURVE SMOOTH",
"677 251 LINE SMOOTH",
"677 87 OFFCURVE",
"773 -13 OFFCURVE",
"904 -13 CURVE SMOOTH"
);
}
);
width = 1240;
}
);
unicode = 01C7;
},
{
glyphname = Lj;
lastChange = "2017-07-07 16:00:43 +0000";
layers = (
{
layerId = "840BD324-B0A6-42B0-BD23-CB5E8C19394F";
paths = (
{
closed = 1;
nodes = (
"719 0 LINE SMOOTH",
"762 0 OFFCURVE",
"786 29 OFFCURVE",
"791 66 CURVE",
"821 387 LINE",
"821 393 LINE SMOOTH",
"821 425 OFFCURVE",
"801 442 OFFCURVE",
"775 442 CURVE SMOOTH",
"752 442 OFFCURVE",
"734 428 OFFCURVE",
"730 399 CURVE SMOOTH",
"696 123 LINE SMOOTH",
"692 92 OFFCURVE",
"677 88 OFFCURVE",
"655 86 CURVE",
"353 86 LINE",
"353 1085 LINE",
"465 1085 LINE SMOOTH",
"498 1085 OFFCURVE",
"515 1106 OFFCURVE",
"515 1127 CURVE SMOOTH",
"515 1149 OFFCURVE",
"498 1171 OFFCURVE",
"464 1171 CURVE SMOOTH",
"155 1171 LINE SMOOTH",
"122 1171 OFFCURVE",
"105 1149 OFFCURVE",
"105 1127 CURVE SMOOTH",
"105 1106 OFFCURVE",
"121 1085 OFFCURVE",
"154 1085 CURVE SMOOTH",
"257 1085 LINE",
"257 86 LINE",
"112 86 LINE SMOOTH",
"79 86 OFFCURVE",
"62 64 OFFCURVE",
"62 43 CURVE SMOOTH",
"62 21 OFFCURVE",
"79 0 OFFCURVE",
"113 0 CURVE SMOOTH"
);
},
{
closed = 1;
nodes = (
"973 -309 OFFCURVE",
"1116 -198 OFFCURVE",
"1116 50 CURVE SMOOTH",
"1116 785 LINE SMOOTH",
"1116 806 OFFCURVE",
"1100 816 OFFCURVE",
"1080 814 CURVE SMOOTH",
"750 784 LINE SMOOTH",
"724 782 OFFCURVE",
"710 765 OFFCURVE",
"710 745 CURVE SMOOTH",
"710 724 OFFCURVE",
"725 699 OFFCURVE",
"754 702 CURVE SMOOTH",
"1020 730 LINE",
"1020 50 LINE SMOOTH",
"1020 -155 OFFCURVE",
"910 -220 OFFCURVE",
"735 -220 CURVE SMOOTH",
"696 -220 OFFCURVE",
"677 -243 OFFCURVE",
"677 -265 CURVE SMOOTH",
"677 -287 OFFCURVE",
"695 -309 OFFCURVE",
"728 -309 CURVE SMOOTH"
);
},
{
closed = 1;
nodes = (
"1072 990 OFFCURVE",
"1112 1029 OFFCURVE",
"1112 1080 CURVE SMOOTH",
"1112 1130 OFFCURVE",
"1072 1171 OFFCURVE",
"1022 1171 CURVE SMOOTH",
"971 1171 OFFCURVE",
"931 1130 OFFCURVE",
"931 1080 CURVE SMOOTH",
"931 1029 OFFCURVE",
"971 990 OFFCURVE",
"1022 990 CURVE SMOOTH"
);
}
);
width = 1240;
},
{
layerId = "F2E12B84-E402-48AA-89E7-06534AE23493";
paths = (
{
closed = 1;
nodes = (
"719 0 LINE SMOOTH",
"762 0 OFFCURVE",
"786 29 OFFCURVE",
"791 66 CURVE",
"821 387 LINE",
"821 393 LINE SMOOTH",
"821 425 OFFCURVE",
"801 442 OFFCURVE",
"775 442 CURVE SMOOTH",
"752 442 OFFCURVE",
"734 428 OFFCURVE",
"730 399 CURVE SMOOTH",
"696 123 LINE SMOOTH",
"692 92 OFFCURVE",
"677 88 OFFCURVE",
"655 86 CURVE",
"353 86 LINE",
"353 1085 LINE",
"465 1085 LINE SMOOTH",
"498 1085 OFFCURVE",
"515 1106 OFFCURVE",
"515 1127 CURVE SMOOTH",
"515 1149 OFFCURVE",
"498 1171 OFFCURVE",
"464 1171 CURVE SMOOTH",
"155 1171 LINE SMOOTH",
"122 1171 OFFCURVE",
"105 1149 OFFCURVE",
"105 1127 CURVE SMOOTH",
"105 1106 OFFCURVE",
"121 1085 OFFCURVE",
"154 1085 CURVE SMOOTH",
"257 1085 LINE",
"257 86 LINE",
"112 86 LINE SMOOTH",
"79 86 OFFCURVE",
"62 64 OFFCURVE",
"62 43 CURVE SMOOTH",
"62 21 OFFCURVE",
"79 0 OFFCURVE",
"113 0 CURVE SMOOTH"
);
},
{
closed = 1;
nodes = (
"973 -309 OFFCURVE",
"1116 -198 OFFCURVE",
"1116 50 CURVE SMOOTH",
"1116 785 LINE SMOOTH",
"1116 806 OFFCURVE",
"1100 816 OFFCURVE",
"1080 814 CURVE SMOOTH",
"750 784 LINE SMOOTH",
"724 782 OFFCURVE",
"710 765 OFFCURVE",
"710 745 CURVE SMOOTH",
"710 724 OFFCURVE",
"725 699 OFFCURVE",
"754 702 CURVE SMOOTH",
"1020 730 LINE",
"1020 50 LINE SMOOTH",
"1020 -155 OFFCURVE",
"910 -220 OFFCURVE",
"735 -220 CURVE SMOOTH",
"696 -220 OFFCURVE",
"677 -243 OFFCURVE",
"677 -265 CURVE SMOOTH",
"677 -287 OFFCURVE",
"695 -309 OFFCURVE",
"728 -309 CURVE SMOOTH"
);
},
{
closed = 1;
nodes = (
"1072 990 OFFCURVE",
"1112 1029 OFFCURVE",
"1112 1080 CURVE SMOOTH",
"1112 1130 OFFCURVE",
"1072 1171 OFFCURVE",
"1022 1171 CURVE SMOOTH",
"971 1171 OFFCURVE",
"931 1130 OFFCURVE",
"931 1080 CURVE SMOOTH",
"931 1029 OFFCURVE",
"971 990 OFFCURVE",
"1022 990 CURVE SMOOTH"
);
}
);
width = 1240;
}
);
unicode = 01C8;
},
{
glyphname = Lslash;
lastChange = "2017-06-26 22:00:10 +0000";
layers = (
{
components = (
{
name = L;
}
);
layerId = "840BD324-B0A6-42B0-BD23-CB5E8C19394F";
paths = (
{
closed = 1;
nodes = (
"757 748 CURVE SMOOTH",
"782 748 OFFCURVE",
"798 730 OFFCURVE",
"798 702 CURVE SMOOTH",
"798 683 OFFCURVE",
"786 676 OFFCURVE",
"760 665 CURVE SMOOTH",
"215 441 LINE SMOOTH",
"207 438 OFFCURVE",
"199 438 OFFCURVE",
"193 438 CURVE SMOOTH",
"168 438 OFFCURVE",
"153 456 OFFCURVE",
"153 484 CURVE SMOOTH",
"153 503 OFFCURVE",
"166 513 OFFCURVE",
"193 524 CURVE SMOOTH",
"738 745 LINE SMOOTH",
"745 748 OFFCURVE",
"751 748 OFFCURVE"
);
}
);
width = 1240;
},
{
layerId = "F2E12B84-E402-48AA-89E7-06534AE23493";
width = 600;
}
);
unicode = 0141;
},
{
glyphname = M;
lastChange = "2017-07-07 01:58:18 +0000";
layers = (
{
anchors = (
{
name = bottom;
position = "{620, 0}";
},
{
name = top;
position = "{620, 1171}";
}
);
layerId = "840BD324-B0A6-42B0-BD23-CB5E8C19394F";
paths = (
{
closed = 1;
nodes = (
"417 0 LINE SMOOTH",
"451 0 OFFCURVE",
"468 22 OFFCURVE",
"468 44 CURVE SMOOTH",
"468 65 OFFCURVE",
"452 86 OFFCURVE",
"418 86 CURVE SMOOTH",
"295 86 LINE",
"295 978 LINE",
"567 385 LINE SMOOTH",
"581 355 OFFCURVE",
"601 342 OFFCURVE",
"625 342 CURVE SMOOTH",
"650 342 OFFCURVE",
"670 353 OFFCURVE",
"684 385 CURVE SMOOTH",
"951 979 LINE",
"951 86 LINE",
"815 86 LINE SMOOTH",
"782 86 OFFCURVE",
"766 65 OFFCURVE",
"766 44 CURVE SMOOTH",
"766 22 OFFCURVE",
"783 0 OFFCURVE",
"817 0 CURVE SMOOTH",
"1170 0 LINE SMOOTH",
"1203 0 OFFCURVE",
"1220 22 OFFCURVE",
"1220 44 CURVE SMOOTH",
"1220 65 OFFCURVE",
"1204 86 OFFCURVE",
"1172 86 CURVE SMOOTH",
"1044 86 LINE",
"1044 1085 LINE",
"1157 1085 LINE SMOOTH",
"1190 1085 OFFCURVE",
"1207 1106 OFFCURVE",
"1207 1127 CURVE SMOOTH",
"1207 1149 OFFCURVE",
"1190 1171 OFFCURVE",
"1156 1171 CURVE SMOOTH",
"974 1171 LINE SMOOTH",
"952 1171 OFFCURVE",
"937 1158 OFFCURVE",
"929 1141 CURVE SMOOTH",
"630 470 LINE",
"318 1136 LINE SMOOTH",
"310 1154 OFFCURVE",
"296 1171 OFFCURVE",
"272 1171 CURVE SMOOTH",
"84 1171 LINE SMOOTH",
"51 1171 OFFCURVE",
"34 1149 OFFCURVE",
"34 1127 CURVE SMOOTH",
"34 1106 OFFCURVE",
"50 1085 OFFCURVE",
"83 1085 CURVE SMOOTH",
"203 1085 LINE",
"203 86 LINE",
"69 86 LINE SMOOTH",
"36 86 OFFCURVE",
"20 64 OFFCURVE",
"20 43 CURVE SMOOTH",
"20 21 OFFCURVE",
"37 0 OFFCURVE",
"70 0 CURVE SMOOTH"
);
}
);
width = 1240;
},
{
anchors = (
{
name = bottom;
position = "{620, 0}";
},
{
name = top;
position = "{620, 1171}";
}
);
layerId = "F2E12B84-E402-48AA-89E7-06534AE23493";
paths = (
{
closed = 1;
nodes = (
"407 0 LINE SMOOTH",
"461 0 OFFCURVE",
"488 47 OFFCURVE",
"488 89 CURVE SMOOTH",
"488 135 OFFCURVE",
"462 176 OFFCURVE",
"408 176 CURVE SMOOTH",
"345 176 LINE",
"345 698 LINE",
"557 395 LINE SMOOTH",
"578 366 OFFCURVE",
"591 352 OFFCURVE",
"615 352 CURVE SMOOTH",
"640 352 OFFCURVE",
"653 363 OFFCURVE",
"674 395 CURVE SMOOTH",
"871 699 LINE",
"871 176 LINE",
"805 176 LINE SMOOTH",
"752 176 OFFCURVE",
"726 135 OFFCURVE",
"726 89 CURVE SMOOTH",
"726 47 OFFCURVE",
"753 0 OFFCURVE",
"807 0 CURVE SMOOTH",
"1130 0 LINE SMOOTH",
"1183 0 OFFCURVE",
"1210 47 OFFCURVE",
"1210 89 CURVE SMOOTH",
"1210 130 OFFCURVE",
"1184 176 OFFCURVE",
"1132 176 CURVE SMOOTH",
"1094 176 LINE",
"1094 995 LINE",
"1117 995 LINE SMOOTH",
"1180 995 OFFCURVE",
"1207 1041 OFFCURVE",
"1207 1082 CURVE SMOOTH",
"1207 1124 OFFCURVE",
"1180 1171 OFFCURVE",
"1116 1171 CURVE SMOOTH",
"969 1171 LINE SMOOTH",
"947 1171 OFFCURVE",
"935 1158 OFFCURVE",
"924 1141 CURVE SMOOTH",
"626 690 LINE",
"318 1136 LINE SMOOTH",
"306 1154 OFFCURVE",
"296 1171 OFFCURVE",
"272 1171 CURVE SMOOTH",
"114 1171 LINE SMOOTH",
"51 1171 OFFCURVE",
"24 1124 OFFCURVE",
"24 1082 CURVE SMOOTH",
"24 1041 OFFCURVE",
"50 995 OFFCURVE",
"113 995 CURVE SMOOTH",
"138 995 LINE",
"138 176 LINE",
"99 176 LINE SMOOTH",
"46 176 OFFCURVE",
"20 129 OFFCURVE",
"20 88 CURVE SMOOTH",
"20 46 OFFCURVE",
"47 0 OFFCURVE",
"100 0 CURVE SMOOTH"
);
}
);
width = 1240;
}
);
unicode = 004D;
},
{
glyphname = N;
lastChange = "2017-07-07 01:58:06 +0000";
layers = (
{
anchors = (
{
name = bottom;
position = "{680, -140}";
},
{
name = top;
position = "{620, 1171}";
}
);
layerId = "840BD324-B0A6-42B0-BD23-CB5E8C19394F";
paths = (
{
closed = 1;
nodes = (
"1005 -16 OFFCURVE",
"1027 4 OFFCURVE",
"1027 47 CURVE SMOOTH",
"1027 1085 LINE",
"1127 1085 LINE SMOOTH",
"1159 1085 OFFCURVE",
"1175 1106 OFFCURVE",
"1175 1127 CURVE SMOOTH",
"1175 1149 OFFCURVE",
"1158 1171 OFFCURVE",
"1125 1171 CURVE SMOOTH",
"786 1171 LINE SMOOTH",
"752 1171 OFFCURVE",
"735 1149 OFFCURVE",
"735 1127 CURVE SMOOTH",
"735 1106 OFFCURVE",
"751 1085 OFFCURVE",
"784 1085 CURVE SMOOTH",
"936 1085 LINE",
"939 176 LINE",
"407 1147 LINE SMOOTH",
"398 1163 OFFCURVE",
"389 1171 OFFCURVE",
"367 1171 CURVE SMOOTH",
"120 1171 LINE SMOOTH",
"87 1171 OFFCURVE",
"70 1149 OFFCURVE",
"70 1127 CURVE SMOOTH",
"70 1106 OFFCURVE",
"86 1085 OFFCURVE",
"119 1085 CURVE SMOOTH",
"267 1085 LINE",
"267 86 LINE",
"149 86 LINE SMOOTH",
"116 86 OFFCURVE",
"100 64 OFFCURVE",
"100 43 CURVE SMOOTH",
"100 21 OFFCURVE",
"117 0 OFFCURVE",
"150 0 CURVE SMOOTH",
"498 0 LINE SMOOTH",
"531 0 OFFCURVE",
"548 21 OFFCURVE",
"548 43 CURVE SMOOTH",
"548 64 OFFCURVE",
"532 86 OFFCURVE",
"499 86 CURVE SMOOTH",
"361 86 LINE",
"361 1042 LINE",
"924 22 LINE SMOOTH",
"938 -3 OFFCURVE",
"958 -16 OFFCURVE",
"979 -16 CURVE SMOOTH"
);
}
);
width = 1240;
},
{
anchors = (
{
name = bottom;
position = "{620, 0}";
},
{
name = top;
position = "{620, 1171}";
}
);
layerId = "F2E12B84-E402-48AA-89E7-06534AE23493";
paths = (
{
closed = 1;
nodes = (
"1038 -16 OFFCURVE",
"1067 4 OFFCURVE",
"1067 47 CURVE SMOOTH",
"1067 995 LINE",
"1106 995 LINE SMOOTH",
"1168 995 OFFCURVE",
"1195 1041 OFFCURVE",
"1195 1082 CURVE SMOOTH",
"1195 1124 OFFCURVE",
"1168 1171 OFFCURVE",
"1105 1171 CURVE SMOOTH",
"776 1171 LINE SMOOTH",
"712 1171 OFFCURVE",
"685 1124 OFFCURVE",
"685 1082 CURVE SMOOTH",
"685 1041 OFFCURVE",
"711 995 OFFCURVE",
"774 995 CURVE SMOOTH",
"856 995 LINE",
"859 496 LINE",
"377 1147 LINE SMOOTH",
"365 1163 OFFCURVE",
"359 1171 OFFCURVE",
"337 1171 CURVE SMOOTH",
"140 1171 LINE SMOOTH",
"77 1171 OFFCURVE",
"50 1124 OFFCURVE",
"50 1082 CURVE SMOOTH",
"50 1041 OFFCURVE",
"76 995 OFFCURVE",
"139 995 CURVE SMOOTH",
"187 995 LINE",
"187 176 LINE",
"149 176 LINE SMOOTH",
"86 176 OFFCURVE",
"60 129 OFFCURVE",
"60 88 CURVE SMOOTH",
"60 46 OFFCURVE",
"87 0 OFFCURVE",
"150 0 CURVE SMOOTH",
"478 0 LINE SMOOTH",
"541 0 OFFCURVE",
"568 46 OFFCURVE",
"568 88 CURVE SMOOTH",
"568 129 OFFCURVE",
"542 176 OFFCURVE",
"479 176 CURVE SMOOTH",
"411 176 LINE",
"411 712 LINE",
"920 39 LINE SMOOTH",
"951 -2 OFFCURVE",
"978 -16 OFFCURVE",
"1009 -16 CURVE SMOOTH"
);
}
);
width = 1240;
}
);
unicode = 004E;
},
{
glyphname = NJ;
lastChange = "2017-06-26 22:00:10 +0000";
layers = (
{
layerId = "840BD324-B0A6-42B0-BD23-CB5E8C19394F";
paths = (
{
closed = 1;
nodes = (
"79 1085 LINE SMOOTH",
"46 1085 OFFCURVE",
"30 1106 OFFCURVE",
"30 1127 CURVE SMOOTH",
"30 1149 OFFCURVE",
"47 1171 OFFCURVE",
"80 1171 CURVE SMOOTH",
"233 1171 LINE SMOOTH",
"255 1171 OFFCURVE",
"267 1164 OFFCURVE",
"273 1147 CURVE SMOOTH",
"595 257 LINE",
"595 1085 LINE",
"504 1085 LINE SMOOTH",
"471 1085 OFFCURVE",
"455 1106 OFFCURVE",
"455 1127 CURVE SMOOTH",
"455 1149 OFFCURVE",
"472 1171 OFFCURVE",
"506 1171 CURVE SMOOTH",
"1224 1171 LINE SMOOTH",
"1257 1171 OFFCURVE",
"1274 1150 OFFCURVE",
"1274 1128 CURVE SMOOTH",
"1274 1107 OFFCURVE",
"1258 1085 OFFCURVE",
"1225 1085 CURVE SMOOTH",
"1151 1085 LINE",
"1151 277 LINE SMOOTH",
"1151 68 OFFCURVE",
"1085 -17 OFFCURVE",
"964 -17 CURVE SMOOTH",
"856 -17 OFFCURVE",
"786 68 OFFCURVE",
"786 181 CURVE SMOOTH",
"786 233 LINE SMOOTH",
"786 262 OFFCURVE",
"810 283 OFFCURVE",
"834 283 CURVE SMOOTH",
"858 283 OFFCURVE",
"879 263 OFFCURVE",
"879 233 CURVE SMOOTH",
"879 180 LINE SMOOTH",
"879 113 OFFCURVE",
"913 67 OFFCURVE",
"964 67 CURVE SMOOTH",
"1025 67 OFFCURVE",
"1058 125 OFFCURVE",
"1058 269 CURVE SMOOTH",
"1058 1085 LINE",
"682 1085 LINE",
"682 53 LINE SMOOTH",
"682 10 OFFCURVE",
"666 -10 OFFCURVE",
"640 -10 CURVE SMOOTH",
"619 -10 OFFCURVE",
"603 3 OFFCURVE",
"594 28 CURVE SMOOTH",
"225 1024 LINE",
"225 86 LINE",
"299 86 LINE SMOOTH",
"332 86 OFFCURVE",
"348 64 OFFCURVE",
"348 43 CURVE SMOOTH",
"348 21 OFFCURVE",
"331 0 OFFCURVE",
"298 0 CURVE SMOOTH",
"100 0 LINE SMOOTH",
"67 0 OFFCURVE",
"50 21 OFFCURVE",
"50 43 CURVE SMOOTH",
"50 64 OFFCURVE",
"66 86 OFFCURVE",
"99 86 CURVE SMOOTH",
"135 86 LINE",
"135 1085 LINE"
);
}
);
width = 1240;
},
{
layerId = "F2E12B84-E402-48AA-89E7-06534AE23493";
width = 600;
}
);
unicode = 01CA;
},
{
glyphname = Eng;
lastChange = "2017-06-26 22:00:10 +0000";
layers = (
{
layerId = "840BD324-B0A6-42B0-BD23-CB5E8C19394F";
paths = (
{
closed = 1;
nodes = (
"629 -401 CURVE SMOOTH",
"598 -401 OFFCURVE",
"584 -378 OFFCURVE",
"584 -357 CURVE SMOOTH",
"584 -337 OFFCURVE",
"597 -315 OFFCURVE",
"630 -315 CURVE SMOOTH",
"782 -315 OFFCURVE",
"943 -211 OFFCURVE",
"943 -2 CURVE SMOOTH",
"943 52 LINE",
"875 177 OFFCURVE",
"506 844 OFFCURVE",
"381 1084 CURVE",
"381 86 LINE",
"519 86 LINE SMOOTH",
"552 86 OFFCURVE",
"568 64 OFFCURVE",
"568 43 CURVE SMOOTH",
"568 21 OFFCURVE",
"551 0 OFFCURVE",
"518 0 CURVE SMOOTH",
"160 0 LINE SMOOTH",
"127 0 OFFCURVE",
"110 21 OFFCURVE",
"110 43 CURVE SMOOTH",
"110 64 OFFCURVE",
"126 86 OFFCURVE",
"159 86 CURVE SMOOTH",
"285 86 LINE",
"285 1085 LINE",
"129 1085 LINE SMOOTH",
"96 1085 OFFCURVE",
"80 1106 OFFCURVE",
"80 1127 CURVE SMOOTH",
"80 1149 OFFCURVE",
"97 1171 OFFCURVE",
"130 1171 CURVE SMOOTH",
"407 1171 LINE SMOOTH",
"429 1171 OFFCURVE",
"439 1163 OFFCURVE",
"447 1147 CURVE SMOOTH",
"943 224 LINE",
"943 1085 LINE",
"794 1085 LINE SMOOTH",
"761 1085 OFFCURVE",
"745 1106 OFFCURVE",
"745 1127 CURVE SMOOTH",
"745 1149 OFFCURVE",
"762 1171 OFFCURVE",
"796 1171 CURVE SMOOTH",
"1133 1171 LINE SMOOTH",
"1166 1171 OFFCURVE",
"1183 1149 OFFCURVE",
"1183 1127 CURVE SMOOTH",
"1183 1106 OFFCURVE",
"1167 1085 OFFCURVE",
"1135 1085 CURVE SMOOTH",
"1039 1085 LINE",
"1039 1 LINE SMOOTH",
"1039 -252 OFFCURVE",
"841 -401 OFFCURVE"
);
}
);
width = 1240;
},
{
layerId = "F2E12B84-E402-48AA-89E7-06534AE23493";
width = 600;
}
);
unicode = 014A;
},
{
glyphname = Nj;
lastChange = "2017-06-26 22:00:10 +0000";
layers = (
{
layerId = "840BD324-B0A6-42B0-BD23-CB5E8C19394F";
paths = (
{
closed = 1;
nodes = (
"1136 -178 OFFCURVE",
"973 -309 OFFCURVE",
"748 -309 CURVE SMOOTH",
"715 -309 OFFCURVE",
"697 -287 OFFCURVE",
"697 -265 CURVE SMOOTH",
"697 -243 OFFCURVE",
"716 -220 OFFCURVE",
"755 -220 CURVE SMOOTH",
"910 -220 OFFCURVE",
"1040 -135 OFFCURVE",
"1040 40 CURVE SMOOTH",
"1040 727 LINE",
"854 712 LINE SMOOTH",
"825 710 OFFCURVE",
"810 734 OFFCURVE",
"810 755 CURVE SMOOTH",
"810 775 OFFCURVE",
"824 792 OFFCURVE",
"850 794 CURVE SMOOTH",
"1100 814 LINE SMOOTH",
"1120 816 OFFCURVE",
"1136 806 OFFCURVE",
"1136 785 CURVE SMOOTH",
"1136 37 LINE SMOOTH"
);
},
{
closed = 1;
nodes = (
"961 1130 OFFCURVE",
"1001 1171 OFFCURVE",
"1052 1171 CURVE SMOOTH",
"1102 1171 OFFCURVE",
"1142 1130 OFFCURVE",
"1142 1080 CURVE SMOOTH",
"1142 1029 OFFCURVE",
"1102 990 OFFCURVE",
"1052 990 CURVE SMOOTH",
"1001 990 OFFCURVE",
"961 1029 OFFCURVE",
"961 1080 CURVE SMOOTH"
);
},
{
closed = 1;
nodes = (
"730 47 LINE SMOOTH",
"730 4 OFFCURVE",
"716 -16 OFFCURVE",
"690 -16 CURVE SMOOTH",
"669 -16 OFFCURVE",
"653 -3 OFFCURVE",
"644 22 CURVE SMOOTH",
"255 1064 LINE",
"255 86 LINE",
"329 86 LINE SMOOTH",
"362 86 OFFCURVE",
"378 64 OFFCURVE",
"378 43 CURVE SMOOTH",
"378 21 OFFCURVE",
"361 0 OFFCURVE",
"328 0 CURVE SMOOTH",
"110 0 LINE SMOOTH",
"77 0 OFFCURVE",
"60 21 OFFCURVE",
"60 43 CURVE SMOOTH",
"60 64 OFFCURVE",
"76 86 OFFCURVE",
"109 86 CURVE SMOOTH",
"165 86 LINE",
"165 1085 LINE",
"89 1085 LINE SMOOTH",
"56 1085 OFFCURVE",
"40 1106 OFFCURVE",
"40 1127 CURVE SMOOTH",
"40 1149 OFFCURVE",
"57 1171 OFFCURVE",
"90 1171 CURVE SMOOTH",
"283 1171 LINE SMOOTH",
"305 1171 OFFCURVE",
"317 1164 OFFCURVE",
"323 1147 CURVE SMOOTH",
"643 282 LINE",
"643 1085 LINE",
"564 1085 LINE SMOOTH",
"531 1085 OFFCURVE",
"515 1106 OFFCURVE",
"515 1127 CURVE SMOOTH",
"515 1149 OFFCURVE",
"532 1171 OFFCURVE",
"566 1171 CURVE SMOOTH",
"793 1171 LINE SMOOTH",
"826 1171 OFFCURVE",
"843 1149 OFFCURVE",
"843 1127 CURVE SMOOTH",
"843 1106 OFFCURVE",
"827 1085 OFFCURVE",
"795 1085 CURVE SMOOTH",
"730 1085 LINE"
);
}
);
width = 1240;
},
{
layerId = "F2E12B84-E402-48AA-89E7-06534AE23493";
width = 600;
}
);
unicode = 01CB;
},
{
glyphname = O;
lastChange = "2017-07-06 15:03:37 +0000";
layers = (
{
anchors = (
{
name = bottom;
position = "{620, 0}";
},
{
name = center;
position = "{620, 586}";
},
{
name = ogonek;
position = "{1116, 10}";
},
{
name = top;
position = "{620, 1171}";
},
{
name = topleft;
position = "{20, 1171}";
},
{
name = topright;
position = "{1141, 1291}";
}
);
layerId = "840BD324-B0A6-42B0-BD23-CB5E8C19394F";
paths = (
{
closed = 1;
nodes = (
"961 -17 OFFCURVE",
"1135 291 OFFCURVE",
"1135 582 CURVE SMOOTH",
"1135 883 OFFCURVE",
"961 1187 OFFCURVE",
"620 1187 CURVE SMOOTH",
"279 1187 OFFCURVE",
"105 883 OFFCURVE",
"105 582 CURVE SMOOTH",
"105 291 OFFCURVE",
"279 -17 OFFCURVE",
"620 -17 CURVE SMOOTH"
);
},
{
closed = 1;
nodes = (
"340 69 OFFCURVE",
"201 336 OFFCURVE",
"201 582 CURVE SMOOTH",
"201 842 OFFCURVE",
"344 1101 OFFCURVE",
"620 1101 CURVE SMOOTH",
"896 1101 OFFCURVE",
"1039 842 OFFCURVE",
"1039 582 CURVE SMOOTH",
"1039 336 OFFCURVE",
"900 69 OFFCURVE",
"620 69 CURVE SMOOTH"
);
}
);
width = 1240;
},
{
anchors = (
{
name = bottom;
position = "{620, 0}";
},
{
name = center;
position = "{620, 586}";
},
{
name = ogonek;
position = "{1116, 10}";
},
{
name = top;
position = "{620, 1171}";
},
{
name = topleft;
position = "{20, 1171}";
},
{
name = topright;
position = "{1220, 1171}";
}
);
layerId = "F2E12B84-E402-48AA-89E7-06534AE23493";
paths = (
{
closed = 1;
nodes = (
"935 -17 OFFCURVE",
"1145 223 OFFCURVE",
"1145 582 CURVE SMOOTH",
"1145 945 OFFCURVE",
"935 1187 OFFCURVE",
"620 1187 CURVE SMOOTH",
"305 1187 OFFCURVE",
"95 945 OFFCURVE",
"95 582 CURVE SMOOTH",
"95 223 OFFCURVE",
"305 -17 OFFCURVE",
"620 -17 CURVE SMOOTH"
);
},
{
closed = 1;
nodes = (
"453 173 OFFCURVE",
"342 337 OFFCURVE",
"342 583 CURVE SMOOTH",
"342 831 OFFCURVE",
"453 997 OFFCURVE",
"620 997 CURVE SMOOTH",
"787 997 OFFCURVE",
"898 831 OFFCURVE",
"898 583 CURVE SMOOTH",
"898 337 OFFCURVE",
"787 173 OFFCURVE",
"620 173 CURVE SMOOTH"
);
}
);
width = 1240;
}
);
unicode = 004F;
},
{
glyphname = Oslash;
lastChange = "2017-06-26 22:00:10 +0000";
layers = (
{
components = (
{
name = O;
}
);
layerId = "840BD324-B0A6-42B0-BD23-CB5E8C19394F";
paths = (
{
closed = 1;
nodes = (
"277 -192 OFFCURVE",
"288 -187 OFFCURVE",
"295 -172 CURVE SMOOTH",
"1033 1274 LINE SMOOTH",
"1036 1279 OFFCURVE",
"1037 1284 OFFCURVE",
"1037 1289 CURVE SMOOTH",
"1037 1308 OFFCURVE",
"1017 1321 OFFCURVE",
"999 1321 CURVE SMOOTH",
"988 1321 OFFCURVE",
"978 1316 OFFCURVE",
"972 1305 CURVE SMOOTH",
"229 -146 LINE SMOOTH",
"227 -150 OFFCURVE",
"226 -154 OFFCURVE",
"226 -158 CURVE SMOOTH",
"226 -176 OFFCURVE",
"246 -192 OFFCURVE",
"265 -192 CURVE SMOOTH"
);
}
);
width = 1240;
},
{
layerId = "F2E12B84-E402-48AA-89E7-06534AE23493";
width = 600;
}
);
unicode = 00D8;
},
{
glyphname = OE;
lastChange = "2017-06-26 22:00:10 +0000";
layers = (
{
layerId = "840BD324-B0A6-42B0-BD23-CB5E8C19394F";
paths = (
{
closed = 1;
nodes = (
"924 437 LINE SMOOTH",
"924 402 OFFCURVE",
"905 386 OFFCURVE",
"886 386 CURVE SMOOTH",
"867 386 OFFCURVE",
"848 401 OFFCURVE",
"846 429 CURVE SMOOTH",
"833 577 LINE",
"677 577 LINE",
"677 85 LINE",
"1012 85 LINE",
"1028 336 LINE SMOOTH",
"1029 360 OFFCURVE",
"1051 375 OFFCURVE",
"1072 375 CURVE SMOOTH",
"1093 375 OFFCURVE",
"1114 359 OFFCURVE",
"1114 323 CURVE SMOOTH",
"1114 53 LINE SMOOTH",
"1114 19 OFFCURVE",
"1091 0 OFFCURVE",
"1058 0 CURVE SMOOTH",
"564 0 LINE SMOOTH",
"563 0 LINE SMOOTH",
"340 0 OFFCURVE",
"118 200 OFFCURVE",
"118 582 CURVE SMOOTH",
"118 965 OFFCURVE",
"342 1172 OFFCURVE",
"566 1172 CURVE SMOOTH",
"726 1172 OFFCURVE",
"886 1171 OFFCURVE",
"1046 1171 CURVE SMOOTH",
"1079 1171 OFFCURVE",
"1102 1151 OFFCURVE",
"1102 1117 CURVE SMOOTH",
"1102 847 LINE SMOOTH",
"1102 817 OFFCURVE",
"1082 803 OFFCURVE",
"1062 803 CURVE SMOOTH",
"1042 803 OFFCURVE",
"1021 816 OFFCURVE",
"1020 841 CURVE SMOOTH",
"1006 1084 LINE",
"677 1084 LINE",
"677 654 LINE",
"833 654 LINE",
"846 787 LINE SMOOTH",
"849 817 OFFCURVE",
"868 832 OFFCURVE",
"886 832 CURVE SMOOTH",
"905 832 OFFCURVE",
"924 816 OFFCURVE",
"924 779 CURVE SMOOTH"
);
},
{
closed = 1;
nodes = (
"214 582 CURVE SMOOTH",
"214 260 OFFCURVE",
"387 82 OFFCURVE",
"561 82 CURVE SMOOTH",
"579 82 LINE",
"579 1084 LINE",
"564 1084 LINE SMOOTH",
"389 1084 OFFCURVE",
"214 913 OFFCURVE"
);
}
);
width = 1240;
},
{
layerId = "F2E12B84-E402-48AA-89E7-06534AE23493";
width = 600;
}
);
unicode = 0152;
},
{
glyphname = P;
lastChange = "2017-07-07 01:59:05 +0000";
layers = (
{
anchors = (
{
name = bottom;
position = "{620, 0}";
},
{
name = top;
position = "{620, 1171}";
}
);
layerId = "840BD324-B0A6-42B0-BD23-CB5E8C19394F";
paths = (
{
closed = 1;
nodes = (
"792 0 LINE SMOOTH",
"825 0 OFFCURVE",
"842 21 OFFCURVE",
"842 43 CURVE SMOOTH",
"842 64 OFFCURVE",
"826 86 OFFCURVE",
"793 86 CURVE SMOOTH",
"464 86 LINE",
"464 441 LINE",
"574 441 LINE SMOOTH",
"917 441 OFFCURVE",
"1112 560 OFFCURVE",
"1112 806 CURVE SMOOTH",
"1112 1054 OFFCURVE",
"904 1171 OFFCURVE",
"574 1171 CURVE SMOOTH",
"210 1171 LINE SMOOTH",
"177 1171 OFFCURVE",
"160 1149 OFFCURVE",
"160 1127 CURVE SMOOTH",
"160 1106 OFFCURVE",
"176 1085 OFFCURVE",
"209 1085 CURVE SMOOTH",
"368 1085 LINE",
"368 86 LINE",
"195 86 LINE SMOOTH",
"162 86 OFFCURVE",
"145 64 OFFCURVE",
"145 43 CURVE SMOOTH",
"145 21 OFFCURVE",
"162 0 OFFCURVE",
"196 0 CURVE SMOOTH"
);
},
{
closed = 1;
nodes = (
"464 1085 LINE",
"594 1085 LINE SMOOTH",
"814 1085 OFFCURVE",
"1016 1015 OFFCURVE",
"1016 802 CURVE SMOOTH",
"1016 606 OFFCURVE",
"824 527 OFFCURVE",
"600 527 CURVE SMOOTH",
"464 527 LINE"
);
}
);
width = 1240;
},
{
anchors = (
{
name = bottom;
position = "{620, 0}";
},
{
name = top;
position = "{620, 1171}";
}
);
layerId = "F2E12B84-E402-48AA-89E7-06534AE23493";
paths = (
{
closed = 1;
nodes = (
"772 0 LINE SMOOTH",
"835 0 OFFCURVE",
"862 38 OFFCURVE",
"862 80 CURVE SMOOTH",
"862 121 OFFCURVE",
"836 166 OFFCURVE",
"773 166 CURVE SMOOTH",
"554 166 LINE",
"554 441 LINE",
"594 441 LINE SMOOTH",
"977 441 OFFCURVE",
"1152 560 OFFCURVE",
"1152 806 CURVE SMOOTH",
"1152 1054 OFFCURVE",
"964 1171 OFFCURVE",
"594 1171 CURVE SMOOTH",
"230 1171 LINE SMOOTH",
"167 1171 OFFCURVE",
"140 1129 OFFCURVE",
"140 1087 CURVE SMOOTH",
"140 1046 OFFCURVE",
"166 1005 OFFCURVE",
"229 1005 CURVE SMOOTH",
"308 1005 LINE",
"308 166 LINE",
"225 166 LINE SMOOTH",
"162 166 OFFCURVE",
"135 122 OFFCURVE",
"135 81 CURVE SMOOTH",
"135 39 OFFCURVE",
"162 0 OFFCURVE",
"226 0 CURVE SMOOTH"
);
},
{
closed = 1;
nodes = (
"554 1005 LINE",
"624 1005 LINE SMOOTH",
"784 1005 OFFCURVE",
"906 935 OFFCURVE",
"906 802 CURVE SMOOTH",
"906 686 OFFCURVE",
"794 607 OFFCURVE",
"630 607 CURVE SMOOTH",
"554 607 LINE"
);
}
);
width = 1240;
}
);
unicode = 0050;
},
{
glyphname = Thorn;
lastChange = "2017-06-26 22:00:10 +0000";
layers = (
{
layerId = "840BD324-B0A6-42B0-BD23-CB5E8C19394F";
paths = (
{
closed = 1;
nodes = (
"961 594 CURVE SMOOTH",
"961 769 OFFCURVE",
"756 816 OFFCURVE",
"429 816 CURVE",
"429 370 LINE",
"730 370 OFFCURVE",
"961 410 OFFCURVE"
);
},
{
closed = 1;
nodes = (
"1057 594 CURVE SMOOTH",
"1057 358 OFFCURVE",
"794 288 OFFCURVE",
"429 288 CURVE",
"429 82 LINE",
"656 82 LINE SMOOTH",
"689 82 OFFCURVE",
"695 61 OFFCURVE",
"695 41 CURVE SMOOTH",
"695 20 OFFCURVE",
"688 0 OFFCURVE",
"655 0 CURVE SMOOTH",
"109 0 LINE SMOOTH",
"75 0 OFFCURVE",
"68 20 OFFCURVE",
"68 41 CURVE SMOOTH",
"68 61 OFFCURVE",
"75 82 OFFCURVE",
"108 82 CURVE SMOOTH",
"333 82 LINE",
"333 1085 LINE",
"121 1085 LINE SMOOTH",
"88 1085 OFFCURVE",
"82 1106 OFFCURVE",
"82 1127 CURVE SMOOTH",
"82 1149 OFFCURVE",
"89 1171 OFFCURVE",
"123 1171 CURVE SMOOTH",
"600 1171 LINE SMOOTH",
"627 1171 OFFCURVE",
"631 1151 OFFCURVE",
"631 1130 CURVE SMOOTH",
"631 1108 OFFCURVE",
"625 1085 OFFCURVE",
"592 1085 CURVE SMOOTH",
"429 1085 LINE",
"429 898 LINE",
"813 898 OFFCURVE",
"1057 818 OFFCURVE"
);
}
);
width = 1240;
},
{
layerId = "F2E12B84-E402-48AA-89E7-06534AE23493";
width = 600;
}
);
unicode = 00DE;
},
{
glyphname = Q;
lastChange = "2017-07-03 17:26:58 +0000";
layers = (
{
anchors = (
{
name = bottom;
position = "{620, 0}";
},
{
name = top;
position = "{620, 1171}";
}
);
layerId = "840BD324-B0A6-42B0-BD23-CB5E8C19394F";
paths = (
{
closed = 1;
nodes = (
"967 -15 OFFCURVE",
"1132 286 OFFCURVE",
"1132 582 CURVE SMOOTH",
"1132 883 OFFCURVE",
"961 1187 OFFCURVE",
"620 1187 CURVE SMOOTH",
"279 1187 OFFCURVE",
"108 883 OFFCURVE",
"108 582 CURVE SMOOTH",
"108 256 OFFCURVE",
"280 -19 OFFCURVE",
"620 -17 CURVE SMOOTH"
);
},
{
closed = 1;
nodes = (
"340 66 OFFCURVE",
"204 306 OFFCURVE",
"204 582 CURVE SMOOTH",
"204 842 OFFCURVE",
"344 1101 OFFCURVE",
"620 1101 CURVE SMOOTH",
"896 1101 OFFCURVE",
"1036 842 OFFCURVE",
"1036 582 CURVE SMOOTH",
"1036 326 OFFCURVE",
"900 66 OFFCURVE",
"620 66 CURVE SMOOTH"
);
},
{
closed = 1;
nodes = (
"1030 -253 OFFCURVE",
"1107 -218 OFFCURVE",
"1147 -171 CURVE SMOOTH",
"1177 -136 OFFCURVE",
"1190 -95 OFFCURVE",
"1155 -72 CURVE SMOOTH",
"1103 -38 OFFCURVE",
"1035 -76 OFFCURVE",
"972 -171 CURVE",
"790 -170 OFFCURVE",
"742 -38 OFFCURVE",
"722 59 CURVE SMOOTH",
"688 223 OFFCURVE",
"620 392 OFFCURVE",
"410 392 CURVE SMOOTH",
"281 392 OFFCURVE",
"216 322 OFFCURVE",
"204 306 CURVE",
"250 240 LINE",
"259 259 OFFCURVE",
"310 307 OFFCURVE",
"410 307 CURVE SMOOTH",
"542 307 OFFCURVE",
"599 200 OFFCURVE",
"637 30 CURVE SMOOTH",
"666 -101 OFFCURVE",
"761 -253 OFFCURVE",
"970 -253 CURVE SMOOTH"
);
}
);
width = 1240;
},
{
anchors = (
{
name = bottom;
position = "{620, 0}";
},
{
name = top;
position = "{620, 1171}";
}
);
layerId = "F2E12B84-E402-48AA-89E7-06534AE23493";
paths = (
{
closed = 1;
nodes = (
"951 -17 OFFCURVE",
"1135 301 OFFCURVE",
"1135 582 CURVE SMOOTH",
"1135 873 OFFCURVE",
"951 1187 OFFCURVE",
"620 1187 CURVE SMOOTH",
"289 1187 OFFCURVE",
"105 873 OFFCURVE",
"105 582 CURVE SMOOTH",
"105 301 OFFCURVE",
"289 -17 OFFCURVE",
"620 -17 CURVE SMOOTH"
);
},
{
closed = 1;
nodes = (
"441 173 OFFCURVE",
"352 378 OFFCURVE",
"352 583 CURVE SMOOTH",
"352 798 OFFCURVE",
"444 997 OFFCURVE",
"620 997 CURVE SMOOTH",
"796 997 OFFCURVE",
"888 798 OFFCURVE",
"888 583 CURVE SMOOTH",
"888 378 OFFCURVE",
"799 173 OFFCURVE",
"620 173 CURVE SMOOTH"
);
},
{
closed = 1;
nodes = (
"1103 -263 OFFCURVE",
"1210 -199 OFFCURVE",
"1210 -93 CURVE SMOOTH",
"1210 -55 OFFCURVE",
"1197 -30 OFFCURVE",
"1175 -15 CURVE SMOOTH",
"1127 18 OFFCURVE",
"1055 -16 OFFCURVE",
"992 -111 CURVE",
"860 -110 OFFCURVE",
"817 34 OFFCURVE",
"801 111 CURVE SMOOTH",
"769 267 OFFCURVE",
"730 502 OFFCURVE",
"500 502 CURVE SMOOTH",
"381 502 OFFCURVE",
"306 422 OFFCURVE",
"294 417 CURVE",
"349 289 LINE",
"349 299 OFFCURVE",
"410 347 OFFCURVE",
"469 347 CURVE SMOOTH",
"590 347 OFFCURVE",
"609 150 OFFCURVE",
"632 59 CURVE SMOOTH",
"676 -141 OFFCURVE",
"811 -263 OFFCURVE",
"1010 -263 CURVE SMOOTH"
);
}
);
width = 1240;
}
);
unicode = 0051;
},
{
glyphname = R;
lastChange = "2017-07-07 01:59:10 +0000";
layers = (
{
anchors = (
{
name = bottom;
position = "{620, 0}";
},
{
name = top;
position = "{620, 1141}";
}
);
layerId = "840BD324-B0A6-42B0-BD23-CB5E8C19394F";
paths = (
{
closed = 1;
nodes = (
"588 0 LINE SMOOTH",
"622 0 OFFCURVE",
"638 21 OFFCURVE",
"638 43 CURVE SMOOTH",
"638 62 OFFCURVE",
"622 86 OFFCURVE",
"589 86 CURVE SMOOTH",
"419 86 LINE",
"419 482 LINE",
"584 482 LINE SMOOTH",
"827 482 OFFCURVE",
"1047 592 OFFCURVE",
"1047 834 CURVE SMOOTH",
"1047 1064 OFFCURVE",
"847 1171 OFFCURVE",
"537 1171 CURVE SMOOTH",
"217 1171 LINE SMOOTH",
"183 1171 OFFCURVE",
"166 1149 OFFCURVE",
"166 1127 CURVE SMOOTH",
"166 1106 OFFCURVE",
"183 1085 OFFCURVE",
"216 1085 CURVE SMOOTH",
"323 1085 LINE",
"323 86 LINE",
"188 86 LINE SMOOTH",
"155 86 OFFCURVE",
"138 62 OFFCURVE",
"138 43 CURVE SMOOTH",
"138 21 OFFCURVE",
"155 0 OFFCURVE",
"189 0 CURVE SMOOTH"
);
},
{
closed = 1;
nodes = (
"1070 0 LINE SMOOTH",
"1114 0 OFFCURVE",
"1130 21 OFFCURVE",
"1130 44 CURVE SMOOTH",
"1130 62 OFFCURVE",
"1116 86 OFFCURVE",
"1069 86 CURVE SMOOTH",
"980 86 LINE",
"726 558 LINE",
"635 536 LINE",
"895 48 LINE SMOOTH",
"906 27 OFFCURVE",
"924 0 OFFCURVE",
"950 0 CURVE SMOOTH"
);
},
{
closed = 1;
nodes = (
"419 1085 LINE",
"536 1085 LINE SMOOTH",
"774 1085 OFFCURVE",
"951 1020 OFFCURVE",
"951 827 CURVE SMOOTH",
"951 627 OFFCURVE",
"774 569 OFFCURVE",
"516 569 CURVE SMOOTH",
"419 569 LINE"
);
}
);
width = 1240;
},
{
anchors = (
{
name = bottom;
position = "{620, 0}";
},
{
name = top;
position = "{620, 1171}";
}
);
layerId = "F2E12B84-E402-48AA-89E7-06534AE23493";
paths = (
{
closed = 1;
nodes = (
"592 0 LINE SMOOTH",
"645 0 OFFCURVE",
"672 36 OFFCURVE",
"672 78 CURVE SMOOTH",
"672 119 OFFCURVE",
"646 166 OFFCURVE",
"593 166 CURVE SMOOTH",
"514 166 LINE",
"514 441 LINE",
"554 441 LINE SMOOTH",
"937 441 OFFCURVE",
"1112 560 OFFCURVE",
"1112 806 CURVE SMOOTH",
"1112 1054 OFFCURVE",
"924 1171 OFFCURVE",
"554 1171 CURVE SMOOTH",
"190 1171 LINE SMOOTH",
"127 1171 OFFCURVE",
"100 1129 OFFCURVE",
"100 1087 CURVE SMOOTH",
"100 1046 OFFCURVE",
"126 1005 OFFCURVE",
"189 1005 CURVE SMOOTH",
"268 1005 LINE",
"268 166 LINE",
"175 166 LINE SMOOTH",
"122 166 OFFCURVE",
"95 119 OFFCURVE",
"95 78 CURVE SMOOTH",
"95 36 OFFCURVE",
"122 0 OFFCURVE",
"176 0 CURVE SMOOTH"
);
},
{
closed = 1;
nodes = (
"1100 0 LINE SMOOTH",
"1154 0 OFFCURVE",
"1180 41 OFFCURVE",
"1180 84 CURVE SMOOTH",
"1180 122 OFFCURVE",
"1156 166 OFFCURVE",
"1099 166 CURVE SMOOTH",
"1010 166 LINE",
"816 558 LINE",
"615 496 LINE",
"815 48 LINE SMOOTH",
"824 27 OFFCURVE",
"844 0 OFFCURVE",
"870 0 CURVE SMOOTH"
);
},
{
closed = 1;
nodes = (
"514 1005 LINE",
"584 1005 LINE SMOOTH",
"754 1005 OFFCURVE",
"866 925 OFFCURVE",
"866 802 CURVE SMOOTH",
"866 696 OFFCURVE",
"764 607 OFFCURVE",
"590 607 CURVE SMOOTH",
"514 607 LINE"
);
}
);
width = 1240;
}
);
unicode = 0052;
},
{
glyphname = S;
lastChange = "2017-07-06 15:28:13 +0000";
layers = (
{
anchors = (
{
name = bottom;
position = "{620, 0}";
},
{
name = top;
position = "{630, 1171}";
}
);
layerId = "840BD324-B0A6-42B0-BD23-CB5E8C19394F";
paths = (
{
closed = 1;
nodes = (
"309 -17 OFFCURVE",
"323 6 OFFCURVE",
"317 46 CURVE SMOOTH",
"311 88 OFFCURVE",
"305 130 OFFCURVE",
"299 172 CURVE",
"348 86 OFFCURVE",
"476 -17 OFFCURVE",
"659 -17 CURVE SMOOTH",
"871 -17 OFFCURVE",
"1037 71 OFFCURVE",
"1037 278 CURVE SMOOTH",
"1037 689 OFFCURVE",
"313 600 OFFCURVE",
"313 916 CURVE SMOOTH",
"313 1038 OFFCURVE",
"435 1101 OFFCURVE",
"586 1101 CURVE SMOOTH",
"771 1101 OFFCURVE",
"920 969 OFFCURVE",
"928 868 CURVE SMOOTH",
"931 832 OFFCURVE",
"946 811 OFFCURVE",
"963 811 CURVE SMOOTH",
"981 811 OFFCURVE",
"1001 828 OFFCURVE",
"999 864 CURVE SMOOTH",
"987 1117 LINE SMOOTH",
"985 1169 OFFCURVE",
"971 1187 OFFCURVE",
"942 1187 CURVE SMOOTH",
"915 1187 OFFCURVE",
"892 1167 OFFCURVE",
"898 1120 CURVE SMOOTH",
"902 1086 OFFCURVE",
"907 1052 OFFCURVE",
"911 1018 CURVE",
"869 1099 OFFCURVE",
"764 1187 OFFCURVE",
"586 1187 CURVE SMOOTH",
"374 1187 OFFCURVE",
"217 1091 OFFCURVE",
"217 916 CURVE SMOOTH",
"217 510 OFFCURVE",
"941 631 OFFCURVE",
"941 274 CURVE SMOOTH",
"941 133 OFFCURVE",
"808 69 OFFCURVE",
"662 69 CURVE SMOOTH",
"461 69 OFFCURVE",
"293 223 OFFCURVE",
"293 329 CURVE SMOOTH",
"293 362 OFFCURVE",
"275 378 OFFCURVE",
"257 378 CURVE SMOOTH",
"239 378 OFFCURVE",
"222 363 OFFCURVE",
"223 331 CURVE SMOOTH",
"230 46 LINE SMOOTH",
"231 5 OFFCURVE",
"246 -17 OFFCURVE",
"277 -17 CURVE SMOOTH"
);
}
);
width = 1240;
},
{
anchors = (
{
name = bottom;
position = "{620, 0}";
},
{
name = top;
position = "{620, 1171}";
}
);
layerId = "F2E12B84-E402-48AA-89E7-06534AE23493";
paths = (
{
closed = 1;
nodes = (
"366 -17 OFFCURVE",
"410 10 OFFCURVE",
"410 66 CURVE SMOOTH",
"410 92 OFFCURVE",
"398 129 OFFCURVE",
"392 152 CURVE",
"431 86 OFFCURVE",
"539 -17 OFFCURVE",
"702 -17 CURVE SMOOTH",
"894 -17 OFFCURVE",
"1060 91 OFFCURVE",
"1060 288 CURVE SMOOTH",
"1060 778 OFFCURVE",
"446 597 OFFCURVE",
"446 881 CURVE SMOOTH",
"446 978 OFFCURVE",
"538 1021 OFFCURVE",
"639 1021 CURVE SMOOTH",
"751 1021 OFFCURVE",
"833 943 OFFCURVE",
"868 869 CURVE SMOOTH",
"884 835 OFFCURVE",
"915 811 OFFCURVE",
"962 811 CURVE SMOOTH",
"1007 811 OFFCURVE",
"1036 838 OFFCURVE",
"1030 884 CURVE SMOOTH",
"1007 1102 LINE SMOOTH",
"1000 1164 OFFCURVE",
"967 1189 OFFCURVE",
"905 1189 CURVE SMOOTH",
"855 1189 OFFCURVE",
"811 1164 OFFCURVE",
"811 1120 CURVE SMOOTH",
"811 1111 OFFCURVE",
"815 1099 OFFCURVE",
"821 1078 CURVE",
"809 1083 OFFCURVE",
"727 1187 OFFCURVE",
"559 1187 CURVE SMOOTH",
"357 1187 OFFCURVE",
"200 1081 OFFCURVE",
"200 886 CURVE SMOOTH",
"200 412 OFFCURVE",
"814 595 OFFCURVE",
"814 301 CURVE SMOOTH",
"814 213 OFFCURVE",
"721 169 OFFCURVE",
"655 169 CURVE SMOOTH",
"520 169 OFFCURVE",
"381 242 OFFCURVE",
"364 328 CURVE SMOOTH",
"355 373 OFFCURVE",
"325 393 OFFCURVE",
"284 393 CURVE SMOOTH",
"241 393 OFFCURVE",
"198 363 OFFCURVE",
"198 309 CURVE SMOOTH",
"198 81 LINE SMOOTH",
"198 15 OFFCURVE",
"249 -17 OFFCURVE",
"310 -17 CURVE SMOOTH"
);
}
);
width = 1240;
}
);
unicode = 0053;
},
{
glyphname = Germandbls;
lastChange = "2017-06-29 15:11:55 +0000";
layers = (
{
layerId = "840BD324-B0A6-42B0-BD23-CB5E8C19394F";
paths = (
{
closed = 1;
nodes = (
"928 645 OFFCURVE",
"1072 509 OFFCURVE",
"1072 323 CURVE SMOOTH",
"1072 137 OFFCURVE",
"955 0 OFFCURVE",
"769 0 CURVE SMOOTH",
"631 0 OFFCURVE",
"516 99 OFFCURVE",
"516 171 CURVE SMOOTH",
"516 193 OFFCURVE",
"532 211 OFFCURVE",
"555 211 CURVE SMOOTH",
"583 211 OFFCURVE",
"597 192 OFFCURVE",
"615 163 CURVE SMOOTH",
"646 113 OFFCURVE",
"716 85 OFFCURVE",
"769 85 CURVE SMOOTH",
"896 85 OFFCURVE",
"974 192 OFFCURVE",
"974 325 CURVE SMOOTH",
"974 470 OFFCURVE",
"852 569 OFFCURVE",
"679 606 CURVE SMOOTH",
"647 613 OFFCURVE",
"626 631 OFFCURVE",
"626 652 CURVE SMOOTH",
"626 672 OFFCURVE",
"642 691 OFFCURVE",
"661 707 CURVE SMOOTH",
"764 794 OFFCURVE",
"940 988 OFFCURVE",
"950 1101 CURVE",
"861 1101 OFFCURVE",
"773 1101 OFFCURVE",
"631 1101 CURVE SMOOTH",
"480 1101 OFFCURVE",
"396 979 OFFCURVE",
"396 790 CURVE",
"396 40 LINE",
"396 15 OFFCURVE",
"377 0 OFFCURVE",
"345 0 CURVE SMOOTH",
"175 0 LINE SMOOTH",
"143 0 OFFCURVE",
"124 19 OFFCURVE",
"124 40 CURVE SMOOTH",
"124 67 OFFCURVE",
"139 86 OFFCURVE",
"173 86 CURVE SMOOTH",
"304 86 LINE",
"304 790 LINE SMOOTH",
"304 1032 OFFCURVE",
"422 1188 OFFCURVE",
"631 1188 CURVE SMOOTH",
"786 1188 OFFCURVE",
"895 1188 OFFCURVE",
"1005 1188 CURVE SMOOTH",
"1037 1188 OFFCURVE",
"1055 1167 OFFCURVE",
"1050 1134 CURVE SMOOTH",
"1028 980 OFFCURVE",
"897 803 OFFCURVE",
"742 665 CURVE"
);
}
);
width = 1240;
},
{
layerId = "F2E12B84-E402-48AA-89E7-06534AE23493";
width = 600;
}
);
unicode = 1E9E;
},
{
glyphname = Schwa;
lastChange = "2017-06-26 22:00:10 +0000";
layers = (
{
anchors = (
{
name = bottom;
position = "{620, 397}";
},
{
name = ogonek;
position = "{124, 1161}";
},
{
name = top;
position = "{620, 1171}";
}
);
layerId = "840BD324-B0A6-42B0-BD23-CB5E8C19394F";
paths = (
{
closed = 1;
nodes = (
"371 1188 OFFCURVE",
"232 1081 OFFCURVE",
"152 987 CURVE SMOOTH",
"141 974 OFFCURVE",
"135 958 OFFCURVE",
"135 944 CURVE SMOOTH",
"135 920 OFFCURVE",
"147 896 OFFCURVE",
"175 896 CURVE SMOOTH",
"187 896 OFFCURVE",
"202 900 OFFCURVE",
"215 914 CURVE SMOOTH",
"298 1003 OFFCURVE",
"390 1102 OFFCURVE",
"583 1102 CURVE SMOOTH",
"902 1102 OFFCURVE",
"1042 826 OFFCURVE",
"1042 594 CURVE SMOOTH",
"1042 312 OFFCURVE",
"904 74 OFFCURVE",
"604 74 CURVE SMOOTH",
"327 74 OFFCURVE",
"215 310 OFFCURVE",
"209 531 CURVE",
"1052 535 LINE",
"1052 624 LINE",
"191 619 LINE SMOOTH",
"142 619 OFFCURVE",
"115 578 OFFCURVE",
"115 536 CURVE SMOOTH",
"115 248 OFFCURVE",
"300 -12 OFFCURVE",
"606 -12 CURVE SMOOTH",
"947 -12 OFFCURVE",
"1138 248 OFFCURVE",
"1138 594 CURVE SMOOTH",
"1138 880 OFFCURVE",
"952 1188 OFFCURVE",
"583 1188 CURVE SMOOTH"
);
}
);
width = 1240;
},
{
layerId = "F2E12B84-E402-48AA-89E7-06534AE23493";
width = 600;
}
);
unicode = 018F;
},
{
glyphname = T;
lastChange = "2017-07-07 01:59:42 +0000";
layers = (
{
anchors = (
{
name = bottom;
position = "{620, 0}";
},
{
name = center;
position = "{620, 586}";
},
{
name = top;
position = "{620, 1171}";
}
);
layerId = "840BD324-B0A6-42B0-BD23-CB5E8C19394F";
paths = (
{
closed = 1;
nodes = (
"907 0 LINE SMOOTH",
"940 0 OFFCURVE",
"958 22 OFFCURVE",
"958 44 CURVE SMOOTH",
"958 65 OFFCURVE",
"941 86 OFFCURVE",
"909 86 CURVE SMOOTH",
"667 86 LINE",
"667 1085 LINE",
"999 1085 LINE",
"1029 814 LINE SMOOTH",
"1032 786 OFFCURVE",
"1052 771 OFFCURVE",
"1073 771 CURVE SMOOTH",
"1096 771 OFFCURVE",
"1121 788 OFFCURVE",
"1119 823 CURVE SMOOTH",
"1099 1117 LINE SMOOTH",
"1097 1152 OFFCURVE",
"1088 1171 OFFCURVE",
"1059 1171 CURVE SMOOTH",
"183 1171 LINE SMOOTH",
"152 1171 OFFCURVE",
"143 1153 OFFCURVE",
"141 1117 CURVE SMOOTH",
"121 823 LINE SMOOTH",
"119 788 OFFCURVE",
"146 769 OFFCURVE",
"170 769 CURVE SMOOTH",
"190 769 OFFCURVE",
"207 783 OFFCURVE",
"211 814 CURVE SMOOTH",
"243 1085 LINE",
"571 1085 LINE",
"571 86 LINE",
"329 86 LINE SMOOTH",
"296 86 OFFCURVE",
"279 65 OFFCURVE",
"279 44 CURVE SMOOTH",
"279 22 OFFCURVE",
"297 0 OFFCURVE",
"331 0 CURVE SMOOTH"
);
}
);
width = 1240;
},
{
anchors = (
{
name = bottom;
position = "{620, 0}";
},
{
name = center;
position = "{620, 586}";
},
{
name = top;
position = "{620, 1171}";
}
);
layerId = "F2E12B84-E402-48AA-89E7-06534AE23493";
paths = (
{
closed = 1;
nodes = (
"907 0 LINE SMOOTH",
"960 0 OFFCURVE",
"988 47 OFFCURVE",
"988 89 CURVE SMOOTH",
"988 130 OFFCURVE",
"961 176 OFFCURVE",
"907 176 CURVE SMOOTH",
"747 176 LINE",
"747 994 LINE",
"959 994 LINE",
"989 804 LINE SMOOTH",
"995 766 OFFCURVE",
"1032 741 OFFCURVE",
"1073 741 CURVE SMOOTH",
"1116 741 OFFCURVE",
"1152 768 OFFCURVE",
"1148 823 CURVE SMOOTH",
"1129 1117 LINE SMOOTH",
"1127 1152 OFFCURVE",
"1118 1171 OFFCURVE",
"1089 1171 CURVE SMOOTH",
"153 1171 LINE SMOOTH",
"122 1171 OFFCURVE",
"113 1153 OFFCURVE",
"111 1117 CURVE SMOOTH",
"92 823 LINE SMOOTH",
"88 768 OFFCURVE",
"126 739 OFFCURVE",
"170 739 CURVE SMOOTH",
"210 739 OFFCURVE",
"244 763 OFFCURVE",
"251 804 CURVE SMOOTH",
"283 994 LINE",
"491 994 LINE",
"491 176 LINE",
"331 176 LINE SMOOTH",
"276 176 OFFCURVE",
"249 130 OFFCURVE",
"249 89 CURVE SMOOTH",
"249 47 OFFCURVE",
"277 0 OFFCURVE",
"331 0 CURVE SMOOTH"
);
}
);
width = 1240;
}
);
unicode = 0054;
},
{
glyphname = Tbar;
lastChange = "2017-06-26 22:00:10 +0000";
layers = (
{
components = (
{
name = T;
}
);
layerId = "840BD324-B0A6-42B0-BD23-CB5E8C19394F";
paths = (
{
closed = 1;
nodes = (
"837 572 LINE SMOOTH",
"870 572 OFFCURVE",
"878 592 OFFCURVE",
"878 611 CURVE SMOOTH",
"878 630 OFFCURVE",
"872 648 OFFCURVE",
"839 648 CURVE SMOOTH",
"400 648 LINE SMOOTH",
"365 648 OFFCURVE",
"358 630 OFFCURVE",
"358 611 CURVE SMOOTH",
"358 592 OFFCURVE",
"367 572 OFFCURVE",
"404 572 CURVE SMOOTH"
);
}
);
width = 1240;
},
{
layerId = "F2E12B84-E402-48AA-89E7-06534AE23493";
width = 600;
}
);
unicode = 0166;
},
{
glyphname = U;
lastChange = "2017-07-07 01:59:53 +0000";
layers = (
{
anchors = (
{
name = bottom;
position = "{620, 0}";
},
{
name = ogonek;
position = "{1116, 10}";
},
{
name = top;
position = "{650, 1171}";
},
{
name = topright;
position = "{1260, 1302}";
}
);
layerId = "840BD324-B0A6-42B0-BD23-CB5E8C19394F";
paths = (
{
closed = 1;
nodes = (
"864 -17 OFFCURVE",
"1027 157 OFFCURVE",
"1027 411 CURVE SMOOTH",
"1027 1085 LINE",
"1170 1085 LINE SMOOTH",
"1196 1085 OFFCURVE",
"1214 1106 OFFCURVE",
"1214 1127 CURVE SMOOTH",
"1214 1149 OFFCURVE",
"1196 1171 OFFCURVE",
"1169 1171 CURVE SMOOTH",
"811 1171 LINE SMOOTH",
"777 1171 OFFCURVE",
"760 1149 OFFCURVE",
"760 1127 CURVE SMOOTH",
"760 1106 OFFCURVE",
"777 1085 OFFCURVE",
"810 1085 CURVE SMOOTH",
"931 1085 LINE",
"931 411 LINE SMOOTH",
"931 211 OFFCURVE",
"811 69 OFFCURVE",
"625 69 CURVE SMOOTH",
"426 69 OFFCURVE",
"316 195 OFFCURVE",
"316 413 CURVE SMOOTH",
"316 1085 LINE",
"478 1085 LINE SMOOTH",
"511 1085 OFFCURVE",
"527 1106 OFFCURVE",
"527 1127 CURVE SMOOTH",
"527 1149 OFFCURVE",
"510 1171 OFFCURVE",
"477 1171 CURVE SMOOTH",
"76 1171 LINE SMOOTH",
"43 1171 OFFCURVE",
"26 1149 OFFCURVE",
"26 1127 CURVE SMOOTH",
"26 1106 OFFCURVE",
"42 1085 OFFCURVE",
"75 1085 CURVE SMOOTH",
"220 1085 LINE",
"220 413 LINE SMOOTH",
"220 142 OFFCURVE",
"386 -17 OFFCURVE",
"625 -17 CURVE SMOOTH"
);
}
);
width = 1240;
},
{
anchors = (
{
name = bottom;
position = "{620, 0}";
},
{
name = ogonek;
position = "{1116, 10}";
},
{
name = top;
position = "{620, 1171}";
},
{
name = topright;
position = "{1220, 1171}";
}
);
layerId = "F2E12B84-E402-48AA-89E7-06534AE23493";
paths = (
{
closed = 1;
nodes = (
"887 -17 OFFCURVE",
"1080 142 OFFCURVE",
"1080 413 CURVE SMOOTH",
"1080 995 LINE",
"1135 995 LINE SMOOTH",
"1198 995 OFFCURVE",
"1224 1041 OFFCURVE",
"1224 1082 CURVE SMOOTH",
"1224 1124 OFFCURVE",
"1197 1171 OFFCURVE",
"1134 1171 CURVE SMOOTH",
"773 1171 LINE SMOOTH",
"710 1171 OFFCURVE",
"683 1124 OFFCURVE",
"683 1082 CURVE SMOOTH",
"683 1041 OFFCURVE",
"709 995 OFFCURVE",
"772 995 CURVE SMOOTH",
"834 995 LINE",
"834 433 LINE SMOOTH",
"834 305 OFFCURVE",
"757 179 OFFCURVE",
"603 179 CURVE SMOOTH",
"462 179 OFFCURVE",
"399 305 OFFCURVE",
"399 431 CURVE SMOOTH",
"399 995 LINE",
"440 995 LINE SMOOTH",
"503 995 OFFCURVE",
"530 1041 OFFCURVE",
"530 1082 CURVE SMOOTH",
"530 1124 OFFCURVE",
"503 1171 OFFCURVE",
"439 1171 CURVE SMOOTH",
"101 1171 LINE SMOOTH",
"44 1171 OFFCURVE",
"16 1124 OFFCURVE",
"16 1082 CURVE SMOOTH",
"16 1041 OFFCURVE",
"44 995 OFFCURVE",
"100 995 CURVE SMOOTH",
"153 995 LINE",
"153 411 LINE SMOOTH",
"153 157 OFFCURVE",
"309 -17 OFFCURVE",
"608 -17 CURVE SMOOTH"
);
}
);
width = 1240;
}
);
unicode = 0055;
},
{
glyphname = Uhorn;
lastChange = "2017-06-26 22:00:10 +0000";
layers = (
{
anchors = (
{
name = bottom;
position = "{620, 0}";
},
{
name = ogonek;
position = "{1116, 10}";
},
{
name = top;
position = "{650, 1171}";
},
{
name = topright;
position = "{1240, 1302}";
}
);
components = (
{
name = horncomb;
transform = "{1, 0, 0, 1, 411, 179}";
}
);
layerId = "840BD324-B0A6-42B0-BD23-CB5E8C19394F";
paths = (
{
closed = 1;
nodes = (
"844 -17 OFFCURVE",
"1007 157 OFFCURVE",
"1007 411 CURVE SMOOTH",
"1007 1085 LINE",
"1009 1171 LINE",
"791 1171 LINE SMOOTH",
"757 1171 OFFCURVE",
"740 1149 OFFCURVE",
"740 1127 CURVE SMOOTH",
"740 1106 OFFCURVE",
"757 1085 OFFCURVE",
"790 1085 CURVE SMOOTH",
"911 1085 LINE",
"911 411 LINE SMOOTH",
"911 211 OFFCURVE",
"791 69 OFFCURVE",
"625 69 CURVE SMOOTH",
"446 69 OFFCURVE",
"336 195 OFFCURVE",
"336 413 CURVE SMOOTH",
"336 1085 LINE",
"498 1085 LINE SMOOTH",
"531 1085 OFFCURVE",
"547 1106 OFFCURVE",
"547 1127 CURVE SMOOTH",
"547 1149 OFFCURVE",
"530 1171 OFFCURVE",
"497 1171 CURVE SMOOTH",
"96 1171 LINE SMOOTH",
"63 1171 OFFCURVE",
"46 1149 OFFCURVE",
"46 1127 CURVE SMOOTH",
"46 1106 OFFCURVE",
"62 1085 OFFCURVE",
"95 1085 CURVE SMOOTH",
"240 1085 LINE",
"240 413 LINE SMOOTH",
"240 142 OFFCURVE",
"406 -17 OFFCURVE",
"625 -17 CURVE SMOOTH"
);
}
);
width = 1240;
},
{
layerId = "F2E12B84-E402-48AA-89E7-06534AE23493";
width = 600;
}
);
unicode = 01AF;
},
{
glyphname = V;
lastChange = "2017-07-07 02:01:29 +0000";
layers = (
{
anchors = (
{
name = bottom;
position = "{620, 0}";
},
{
name = top;
position = "{620, 1171}";
}
);
layerId = "840BD324-B0A6-42B0-BD23-CB5E8C19394F";
paths = (
{
closed = 1;
nodes = (
"670 -17 OFFCURVE",
"682 3 OFFCURVE",
"698 39 CURVE",
"1044 1085 LINE",
"1130 1085 LINE SMOOTH",
"1163 1085 OFFCURVE",
"1178 1107 OFFCURVE",
"1178 1128 CURVE SMOOTH",
"1178 1150 OFFCURVE",
"1162 1171 OFFCURVE",
"1129 1171 CURVE SMOOTH",
"825 1171 LINE SMOOTH",
"791 1171 OFFCURVE",
"774 1150 OFFCURVE",
"774 1128 CURVE SMOOTH",
"774 1107 OFFCURVE",
"791 1085 OFFCURVE",
"824 1085 CURVE SMOOTH",
"944 1085 LINE",
"639 126 LINE",
"312 1085 LINE",
"447 1085 LINE SMOOTH",
"480 1085 OFFCURVE",
"496 1107 OFFCURVE",
"496 1128 CURVE SMOOTH",
"496 1150 OFFCURVE",
"479 1171 OFFCURVE",
"446 1171 CURVE SMOOTH",
"106 1171 LINE SMOOTH",
"73 1171 OFFCURVE",
"56 1149 OFFCURVE",
"56 1127 CURVE SMOOTH",
"56 1106 OFFCURVE",
"72 1085 OFFCURVE",
"104 1085 CURVE SMOOTH",
"208 1085 LINE",
"570 39 LINE SMOOTH",
"581 6 OFFCURVE",
"598 -17 OFFCURVE",
"634 -17 CURVE SMOOTH"
);
}
);
width = 1240;
},
{
anchors = (
{
name = bottom;
position = "{644, 0}";
},
{
name = top;
position = "{644, 1171}";
}
);
layerId = "F2E12B84-E402-48AA-89E7-06534AE23493";
paths = (
{
closed = 1;
nodes = (
"686 -17 OFFCURVE",
"711 6 OFFCURVE",
"723 39 CURVE SMOOTH",
"1066 995 LINE",
"1120 995 LINE SMOOTH",
"1182 995 OFFCURVE",
"1208 1041 OFFCURVE",
"1208 1082 CURVE SMOOTH",
"1208 1124 OFFCURVE",
"1181 1171 OFFCURVE",
"1118 1171 CURVE SMOOTH",
"808 1171 LINE SMOOTH",
"745 1171 OFFCURVE",
"718 1125 OFFCURVE",
"718 1083 CURVE SMOOTH",
"718 1042 OFFCURVE",
"744 995 OFFCURVE",
"807 995 CURVE SMOOTH",
"852 995 LINE",
"641 366 LINE",
"430 995 LINE",
"480 995 LINE SMOOTH",
"543 995 OFFCURVE",
"570 1042 OFFCURVE",
"570 1083 CURVE SMOOTH",
"570 1125 OFFCURVE",
"543 1171 OFFCURVE",
"479 1171 CURVE SMOOTH",
"145 1171 LINE SMOOTH",
"82 1171 OFFCURVE",
"56 1125 OFFCURVE",
"56 1083 CURVE SMOOTH",
"56 1042 OFFCURVE",
"81 995 OFFCURVE",
"144 995 CURVE SMOOTH",
"190 995 LINE",
"546 39 LINE SMOOTH",
"560 2 OFFCURVE",
"594 -17 OFFCURVE",
"640 -17 CURVE SMOOTH"
);
}
);
width = 1240;
}
);
unicode = 0056;
},
{
glyphname = W;
lastChange = "2017-07-07 02:01:42 +0000";
layers = (
{
anchors = (
{
name = bottom;
position = "{620, 0}";
},
{
name = top;
position = "{640, 1171}";
}
);
layerId = "840BD324-B0A6-42B0-BD23-CB5E8C19394F";
paths = (
{
closed = 1;
nodes = (
"420 -17 OFFCURVE",
"444 -3 OFFCURVE",
"452 27 CURVE SMOOTH",
"635 716 LINE",
"802 35 LINE SMOOTH",
"810 1 OFFCURVE",
"837 -17 OFFCURVE",
"858 -17 CURVE SMOOTH",
"883 -17 OFFCURVE",
"906 -3 OFFCURVE",
"911 27 CURVE SMOOTH",
"1071 1085 LINE",
"1144 1085 LINE SMOOTH",
"1178 1085 OFFCURVE",
"1195 1107 OFFCURVE",
"1195 1129 CURVE SMOOTH",
"1195 1150 OFFCURVE",
"1178 1171 OFFCURVE",
"1145 1171 CURVE SMOOTH",
"866 1171 LINE SMOOTH",
"833 1171 OFFCURVE",
"817 1150 OFFCURVE",
"817 1129 CURVE SMOOTH",
"817 1107 OFFCURVE",
"834 1085 OFFCURVE",
"867 1085 CURVE SMOOTH",
"974 1085 LINE",
"853 171 LINE",
"685 845 LINE SMOOTH",
"679 869 OFFCURVE",
"659 881 OFFCURVE",
"640 881 CURVE SMOOTH",
"621 881 OFFCURVE",
"599 869 OFFCURVE",
"593 845 CURVE SMOOTH",
"413 172 LINE",
"280 1085 LINE",
"394 1085 LINE SMOOTH",
"428 1085 OFFCURVE",
"445 1107 OFFCURVE",
"445 1129 CURVE SMOOTH",
"445 1150 OFFCURVE",
"429 1171 OFFCURVE",
"396 1171 CURVE SMOOTH",
"94 1171 LINE SMOOTH",
"61 1171 OFFCURVE",
"45 1150 OFFCURVE",
"45 1129 CURVE SMOOTH",
"45 1107 OFFCURVE",
"62 1085 OFFCURVE",
"95 1085 CURVE SMOOTH",
"182 1085 LINE",
"345 35 LINE SMOOTH",
"349 1 OFFCURVE",
"374 -17 OFFCURVE",
"398 -17 CURVE SMOOTH"
);
}
);
width = 1240;
},
{
anchors = (
{
name = bottom;
position = "{620, 0}";
},
{
name = top;
position = "{620, 1171}";
}
);
layerId = "F2E12B84-E402-48AA-89E7-06534AE23493";
paths = (
{
closed = 1;
nodes = (
"421 -17 OFFCURVE",
"471 -2 OFFCURVE",
"490 56 CURVE SMOOTH",
"623 456 LINE",
"767 64 LINE SMOOTH",
"790 2 OFFCURVE",
"838 -17 OFFCURVE",
"869 -17 CURVE SMOOTH",
"904 -17 OFFCURVE",
"957 -3 OFFCURVE",
"966 57 CURVE SMOOTH",
"1101 995 LINE",
"1124 995 LINE SMOOTH",
"1188 995 OFFCURVE",
"1215 1042 OFFCURVE",
"1215 1084 CURVE SMOOTH",
"1215 1125 OFFCURVE",
"1188 1171 OFFCURVE",
"1125 1171 CURVE SMOOTH",
"876 1171 LINE SMOOTH",
"813 1171 OFFCURVE",
"787 1125 OFFCURVE",
"787 1084 CURVE SMOOTH",
"787 1042 OFFCURVE",
"814 995 OFFCURVE",
"877 995 CURVE SMOOTH",
"924 995 LINE",
"847 402 LINE",
"696 845 LINE SMOOTH",
"688 869 OFFCURVE",
"670 881 OFFCURVE",
"651 881 CURVE SMOOTH",
"632 881 OFFCURVE",
"613 869 OFFCURVE",
"604 845 CURVE SMOOTH",
"439 402 LINE",
"360 995 LINE",
"404 995 LINE SMOOTH",
"468 995 OFFCURVE",
"495 1042 OFFCURVE",
"495 1084 CURVE SMOOTH",
"495 1125 OFFCURVE",
"469 1171 OFFCURVE",
"406 1171 CURVE SMOOTH",
"114 1171 LINE SMOOTH",
"51 1171 OFFCURVE",
"25 1125 OFFCURVE",
"25 1084 CURVE SMOOTH",
"25 1042 OFFCURVE",
"52 995 OFFCURVE",
"115 995 CURVE SMOOTH",
"142 995 LINE",
"292 65 LINE SMOOTH",
"302 1 OFFCURVE",
"345 -17 OFFCURVE",
"389 -17 CURVE SMOOTH"
);
}
);
width = 1240;
}
);
unicode = 0057;
},
{
glyphname = X;
lastChange = "2017-07-07 02:20:22 +0000";
layers = (
{
anchors = (
{
name = bottom;
position = "{620, 0}";
},
{
name = top;
position = "{620, 1171}";
}
);
layerId = "840BD324-B0A6-42B0-BD23-CB5E8C19394F";
paths = (
{
closed = 1;
nodes = (
"477 0 LINE SMOOTH",
"510 0 OFFCURVE",
"527 22 OFFCURVE",
"527 43 CURVE SMOOTH",
"527 67 OFFCURVE",
"511 86 OFFCURVE",
"478 86 CURVE SMOOTH",
"330 86 LINE",
"646 554 LINE",
"665 575 LINE",
"1019 1085 LINE",
"1102 1085 LINE SMOOTH",
"1135 1085 OFFCURVE",
"1151 1106 OFFCURVE",
"1151 1127 CURVE SMOOTH",
"1151 1149 OFFCURVE",
"1134 1171 OFFCURVE",
"1101 1171 CURVE SMOOTH",
"802 1171 LINE SMOOTH",
"769 1171 OFFCURVE",
"752 1149 OFFCURVE",
"752 1127 CURVE SMOOTH",
"752 1106 OFFCURVE",
"768 1085 OFFCURVE",
"801 1085 CURVE SMOOTH",
"912 1085 LINE",
"613 651 LINE",
"592 630 LINE",
"219 86 LINE",
"138 86 LINE SMOOTH",
"105 86 OFFCURVE",
"89 67 OFFCURVE",
"89 43 CURVE SMOOTH",
"89 22 OFFCURVE",
"106 0 OFFCURVE",
"139 0 CURVE SMOOTH"
);
},
{
closed = 1;
nodes = (
"1095 0 LINE SMOOTH",
"1129 0 OFFCURVE",
"1146 23 OFFCURVE",
"1146 44 CURVE SMOOTH",
"1146 64 OFFCURVE",
"1130 86 OFFCURVE",
"1097 86 CURVE SMOOTH",
"1024 86 LINE",
"665 626 LINE",
"644 651 LINE",
"350 1085 LINE",
"498 1085 LINE SMOOTH",
"531 1085 OFFCURVE",
"547 1106 OFFCURVE",
"547 1127 CURVE SMOOTH",
"547 1149 OFFCURVE",
"530 1171 OFFCURVE",
"497 1171 CURVE SMOOTH",
"151 1171 LINE SMOOTH",
"118 1171 OFFCURVE",
"101 1149 OFFCURVE",
"101 1127 CURVE SMOOTH",
"101 1106 OFFCURVE",
"117 1085 OFFCURVE",
"150 1085 CURVE SMOOTH",
"242 1085 LINE",
"591 578 LINE",
"609 556 LINE",
"916 86 LINE",
"762 86 LINE SMOOTH",
"729 86 OFFCURVE",
"713 67 OFFCURVE",
"713 43 CURVE SMOOTH",
"713 22 OFFCURVE",
"730 0 OFFCURVE",
"763 0 CURVE SMOOTH"
);
}
);
width = 1240;
},
{
anchors = (
{
name = bottom;
position = "{620, 0}";
},
{
name = top;
position = "{620, 1171}";
}
);
layerId = "F2E12B84-E402-48AA-89E7-06534AE23493";
paths = (
{
closed = 1;
nodes = (
"467 0 LINE SMOOTH",
"530 0 OFFCURVE",
"557 47 OFFCURVE",
"557 88 CURVE SMOOTH",
"557 137 OFFCURVE",
"531 176 OFFCURVE",
"468 176 CURVE SMOOTH",
"440 176 LINE",
"716 554 LINE",
"735 575 LINE",
"1039 995 LINE",
"1092 995 LINE SMOOTH",
"1155 995 OFFCURVE",
"1181 1041 OFFCURVE",
"1181 1082 CURVE SMOOTH",
"1181 1124 OFFCURVE",
"1154 1171 OFFCURVE",
"1091 1171 CURVE SMOOTH",
"782 1171 LINE SMOOTH",
"719 1171 OFFCURVE",
"692 1124 OFFCURVE",
"692 1082 CURVE SMOOTH",
"692 1041 OFFCURVE",
"718 995 OFFCURVE",
"781 995 CURVE SMOOTH",
"812 995 LINE",
"563 651 LINE",
"532 630 LINE",
"209 176 LINE",
"158 176 LINE SMOOTH",
"95 176 OFFCURVE",
"69 132 OFFCURVE",
"69 88 CURVE SMOOTH",
"69 47 OFFCURVE",
"96 0 OFFCURVE",
"159 0 CURVE SMOOTH"
);
},
{
closed = 1;
nodes = (
"1100 0 LINE SMOOTH",
"1164 0 OFFCURVE",
"1191 48 OFFCURVE",
"1191 89 CURVE SMOOTH",
"1191 129 OFFCURVE",
"1165 176 OFFCURVE",
"1102 176 CURVE SMOOTH",
"1054 176 LINE",
"715 636 LINE",
"694 661 LINE",
"450 995 LINE",
"488 995 LINE SMOOTH",
"551 995 OFFCURVE",
"577 1041 OFFCURVE",
"577 1082 CURVE SMOOTH",
"577 1124 OFFCURVE",
"550 1171 OFFCURVE",
"487 1171 CURVE SMOOTH",
"136 1171 LINE SMOOTH",
"73 1171 OFFCURVE",
"46 1124 OFFCURVE",
"46 1082 CURVE SMOOTH",
"46 1041 OFFCURVE",
"72 995 OFFCURVE",
"135 995 CURVE SMOOTH",
"192 995 LINE",
"511 548 LINE",
"529 526 LINE",
"796 176 LINE",
"762 176 LINE SMOOTH",
"699 176 OFFCURVE",
"673 137 OFFCURVE",
"673 88 CURVE SMOOTH",
"673 47 OFFCURVE",
"700 0 OFFCURVE",
"763 0 CURVE SMOOTH"
);
}
);
width = 1240;
}
);
unicode = 0058;
},
{
glyphname = Y;
lastChange = "2017-07-07 02:19:42 +0000";
layers = (
{
anchors = (
{
name = bottom;
position = "{620, 0}";
},
{
name = top;
position = "{640, 1171}";
},
{
name = topleft;
position = "{20, 1171}";
}
);
layerId = "840BD324-B0A6-42B0-BD23-CB5E8C19394F";
paths = (
{
closed = 1;
nodes = (
"904 0 LINE SMOOTH",
"937 0 OFFCURVE",
"954 22 OFFCURVE",
"954 44 CURVE SMOOTH",
"954 65 OFFCURVE",
"938 86 OFFCURVE",
"906 86 CURVE SMOOTH",
"674 86 LINE",
"674 498 LINE",
"1007 1085 LINE",
"1112 1085 LINE SMOOTH",
"1145 1085 OFFCURVE",
"1161 1108 OFFCURVE",
"1161 1127 CURVE SMOOTH",
"1161 1146 OFFCURVE",
"1144 1171 OFFCURVE",
"1110 1171 CURVE SMOOTH",
"794 1171 LINE SMOOTH",
"761 1171 OFFCURVE",
"743 1147 OFFCURVE",
"743 1128 CURVE SMOOTH",
"743 1109 OFFCURVE",
"760 1085 OFFCURVE",
"793 1085 CURVE SMOOTH",
"909 1085 LINE",
"631 583 LINE",
"345 1085 LINE",
"481 1085 LINE SMOOTH",
"514 1085 OFFCURVE",
"531 1109 OFFCURVE",
"531 1128 CURVE SMOOTH",
"531 1147 OFFCURVE",
"514 1171 OFFCURVE",
"480 1171 CURVE SMOOTH",
"130 1171 LINE SMOOTH",
"97 1171 OFFCURVE",
"79 1147 OFFCURVE",
"79 1128 CURVE SMOOTH",
"79 1109 OFFCURVE",
"96 1085 OFFCURVE",
"129 1085 CURVE SMOOTH",
"233 1085 LINE",
"578 503 LINE",
"578 86 LINE",
"346 86 LINE SMOOTH",
"313 86 OFFCURVE",
"296 65 OFFCURVE",
"296 44 CURVE SMOOTH",
"296 22 OFFCURVE",
"314 0 OFFCURVE",
"348 0 CURVE SMOOTH"
);
}
);
width = 1240;
},
{
anchors = (
{
name = bottom;
position = "{620, 0}";
},
{
name = top;
position = "{620, 1171}";
},
{
name = topleft;
position = "{1220, 1171}";
}
);
layerId = "F2E12B84-E402-48AA-89E7-06534AE23493";
paths = (
{
closed = 1;
nodes = (
"836 0 LINE",
"908 0 OFFCURVE",
"939 41 OFFCURVE",
"939 87 CURVE SMOOTH",
"939 134 OFFCURVE",
"908 176 OFFCURVE",
"839 176 CURVE SMOOTH",
"732 176 LINE",
"732 503 LINE",
"1057 995 LINE",
"1111 995 LINE SMOOTH",
"1174 995 OFFCURVE",
"1201 1044 OFFCURVE",
"1201 1083 CURVE SMOOTH",
"1201 1122 OFFCURVE",
"1173 1171 OFFCURVE",
"1110 1171 CURVE SMOOTH",
"790 1171 LINE SMOOTH",
"726 1171 OFFCURVE",
"699 1122 OFFCURVE",
"699 1083 CURVE SMOOTH",
"699 1044 OFFCURVE",
"726 995 OFFCURVE",
"789 995 CURVE SMOOTH",
"845 995 LINE",
"633 663 LINE",
"421 995 LINE",
"467 995 LINE SMOOTH",
"530 995 OFFCURVE",
"557 1044 OFFCURVE",
"557 1083 CURVE SMOOTH",
"557 1122 OFFCURVE",
"529 1171 OFFCURVE",
"466 1171 CURVE SMOOTH",
"120 1171 LINE SMOOTH",
"56 1171 OFFCURVE",
"29 1121 OFFCURVE",
"29 1082 CURVE SMOOTH",
"29 1043 OFFCURVE",
"55 995 OFFCURVE",
"118 995 CURVE SMOOTH",
"173 995 LINE",
"487 498 LINE",
"486 176 LINE",
"380 176 LINE SMOOTH",
"318 176 OFFCURVE",
"284 134 OFFCURVE",
"284 87 CURVE SMOOTH",
"284 41 OFFCURVE",
"320 0 OFFCURVE",
"373 0 CURVE"
);
}
);
width = 1240;
}
);
unicode = 0059;
},
{
glyphname = Z;
lastChange = "2017-07-07 02:19:53 +0000";
layers = (
{
anchors = (
{
name = bottom;
position = "{620, 0}";
},
{
name = top;
position = "{620, 1171}";
}
);
layerId = "840BD324-B0A6-42B0-BD23-CB5E8C19394F";
paths = (
{
closed = 1;
nodes = (
"982 0 LINE SMOOTH",
"1011 0 OFFCURVE",
"1031 19 OFFCURVE",
"1033 53 CURVE SMOOTH",
"1053 385 LINE",
"1053 420 OFFCURVE",
"1033 435 OFFCURVE",
"1012 435 CURVE SMOOTH",
"989 435 OFFCURVE",
"963 416 OFFCURVE",
"961 384 CURVE",
"931 86 LINE",
"321 86 LINE",
"1030 1081 LINE SMOOTH",
"1038 1092 OFFCURVE",
"1040 1104 OFFCURVE",
"1040 1116 CURVE SMOOTH",
"1040 1144 OFFCURVE",
"1023 1171 OFFCURVE",
"991 1171 CURVE SMOOTH",
"280 1171 LINE SMOOTH",
"229 1171 OFFCURVE",
"213 1144 OFFCURVE",
"212 1116 CURVE",
"192 806 LINE SMOOTH",
"190 774 OFFCURVE",
"217 757 OFFCURVE",
"242 757 CURVE SMOOTH",
"264 757 OFFCURVE",
"283 770 OFFCURVE",
"286 797 CURVE SMOOTH",
"321 1085 LINE",
"926 1085 LINE",
"205 95 LINE SMOOTH",
"195 81 OFFCURVE",
"177 53 OFFCURVE",
"177 31 CURVE SMOOTH",
"177 14 OFFCURVE",
"190 0 OFFCURVE",
"229 0 CURVE SMOOTH"
);
}
);
width = 1240;
},
{
anchors = (
{
name = bottom;
position = "{620, 0}";
},
{
name = top;
position = "{620, 1171}";
}
);
layerId = "F2E12B84-E402-48AA-89E7-06534AE23493";
paths = (
{
closed = 1;
nodes = (
"1042 0 LINE SMOOTH",
"1081 0 OFFCURVE",
"1101 19 OFFCURVE",
"1103 53 CURVE SMOOTH",
"1122 355 LINE SMOOTH",
"1127 430 OFFCURVE",
"1077 465 OFFCURVE",
"1026 465 CURVE SMOOTH",
"973 465 OFFCURVE",
"925 426 OFFCURVE",
"917 374 CURVE SMOOTH",
"889 186 LINE",
"501 186 LINE",
"1090 1081 LINE SMOOTH",
"1097 1092 OFFCURVE",
"1100 1104 OFFCURVE",
"1100 1116 CURVE SMOOTH",
"1100 1144 OFFCURVE",
"1083 1171 OFFCURVE",
"1051 1171 CURVE SMOOTH",
"215 1171 LINE SMOOTH",
"179 1171 OFFCURVE",
"153 1144 OFFCURVE",
"151 1116 CURVE SMOOTH",
"131 836 LINE SMOOTH",
"126 764 OFFCURVE",
"174 727 OFFCURVE",
"229 727 CURVE SMOOTH",
"281 727 OFFCURVE",
"319 760 OFFCURVE",
"328 807 CURVE SMOOTH",
"361 985 LINE",
"746 985 LINE",
"162 122 LINE SMOOTH",
"153 108 OFFCURVE",
"135 72 OFFCURVE",
"135 50 CURVE SMOOTH",
"135 27 OFFCURVE",
"150 0 OFFCURVE",
"179 0 CURVE SMOOTH"
);
}
);
width = 1240;
}
);
unicode = 005A;
},
{
glyphname = a;
lastChange = "2017-07-06 17:20:34 +0000";
layers = (
{
anchors = (
{
name = bottom;
position = "{640, 0}";
},
{
name = ogonek;
position = "{1116, 10}";
},
{
name = top;
position = "{590, 774}";
}
);
layerId = "840BD324-B0A6-42B0-BD23-CB5E8C19394F";
paths = (
{
closed = 1;
nodes = (
"637 -16 OFFCURVE",
"760 44 OFFCURVE",
"821 113 CURVE",
"846 16 OFFCURVE",
"898 -7 OFFCURVE",
"965 -7 CURVE SMOOTH",
"1035 -7 OFFCURVE",
"1063 11 OFFCURVE",
"1091 37 CURVE SMOOTH",
"1106 51 OFFCURVE",
"1118 73 OFFCURVE",
"1118 90 CURVE SMOOTH",
"1118 116 OFFCURVE",
"1103 133 OFFCURVE",
"1078 133 CURVE SMOOTH",
"1057 133 OFFCURVE",
"1042 113 OFFCURVE",
"1032 102 CURVE SMOOTH",
"1021 90 OFFCURVE",
"1004 72 OFFCURVE",
"973 72 CURVE SMOOTH",
"945 72 OFFCURVE",
"910 93 OFFCURVE",
"910 162 CURVE SMOOTH",
"910 444 LINE SMOOTH",
"910 644 OFFCURVE",
"849 813 OFFCURVE",
"612 813 CURVE SMOOTH",
"405 813 OFFCURVE",
"264 725 OFFCURVE",
"264 603 CURVE SMOOTH",
"264 563 OFFCURVE",
"283 531 OFFCURVE",
"324 531 CURVE SMOOTH",
"372 531 OFFCURVE",
"385 593 OFFCURVE",
"390 686 CURVE",
"461 718 OFFCURVE",
"527 731 OFFCURVE",
"611 731 CURVE SMOOTH",
"756 731 OFFCURVE",
"814 623 OFFCURVE",
"814 484 CURVE",
"547 464 OFFCURVE",
"253 455 OFFCURVE",
"253 210 CURVE SMOOTH",
"253 74 OFFCURVE",
"340 -16 OFFCURVE",
"491 -16 CURVE SMOOTH"
);
},
{
closed = 1;
nodes = (
"417 72 OFFCURVE",
"350 120 OFFCURVE",
"350 210 CURVE SMOOTH",
"350 364 OFFCURVE",
"525 373 OFFCURVE",
"814 401 CURVE",
"814 204 LINE",
"742 128 OFFCURVE",
"621 72 OFFCURVE",
"502 72 CURVE SMOOTH"
);
}
);
width = 1240;
},
{
anchors = (
{
name = bottom;
position = "{620, 0}";
},
{
name = ogonek;
position = "{1116, 10}";
},
{
name = top;
position = "{610, 774}";
}
);
layerId = "F2E12B84-E402-48AA-89E7-06534AE23493";
paths = (
{
closed = 1;
nodes = (
"617 -16 OFFCURVE",
"710 44 OFFCURVE",
"745 93 CURVE",
"797 22 OFFCURVE",
"874 -16 OFFCURVE",
"975 -16 CURVE SMOOTH",
"1060 -16 OFFCURVE",
"1109 8 OFFCURVE",
"1148 50 CURVE SMOOTH",
"1166 69 OFFCURVE",
"1184 94 OFFCURVE",
"1184 135 CURVE SMOOTH",
"1184 169 OFFCURVE",
"1157 197 OFFCURVE",
"1124 197 CURVE SMOOTH",
"1096 197 OFFCURVE",
"1078 182 OFFCURVE",
"1068 165 CURVE SMOOTH",
"1058 148 OFFCURVE",
"1041 122 OFFCURVE",
"1011 122 CURVE SMOOTH",
"981 122 OFFCURVE",
"969 163 OFFCURVE",
"968 212 CURVE SMOOTH",
"963 494 LINE SMOOTH",
"959 724 OFFCURVE",
"799 813 OFFCURVE",
"572 813 CURVE SMOOTH",
"305 813 OFFCURVE",
"184 701 OFFCURVE",
"184 573 CURVE SMOOTH",
"184 503 OFFCURVE",
"237 474 OFFCURVE",
"303 474 CURVE SMOOTH",
"366 474 OFFCURVE",
"397 545 OFFCURVE",
"401 630 CURVE",
"418 643 OFFCURVE",
"484 657 OFFCURVE",
"542 657 CURVE SMOOTH",
"679 657 OFFCURVE",
"718 565 OFFCURVE",
"718 490 CURVE",
"450 436 OFFCURVE",
"192 415 OFFCURVE",
"186 200 CURVE SMOOTH",
"182 64 OFFCURVE",
"293 -16 OFFCURVE",
"481 -16 CURVE SMOOTH"
);
},
{
closed = 1;
nodes = (
"479 153 OFFCURVE",
"440 183 OFFCURVE",
"440 226 CURVE SMOOTH",
"440 297 OFFCURVE",
"578 321 OFFCURVE",
"718 355 CURVE",
"718 210 LINE",
"686 194 OFFCURVE",
"631 153 OFFCURVE",
"541 153 CURVE SMOOTH"
);
}
);
width = 1240;
}
);
unicode = 0061;
},
{
glyphname = ae;
lastChange = "2017-06-26 21:39:00 +0000";
layers = (
{
layerId = "840BD324-B0A6-42B0-BD23-CB5E8C19394F";
paths = (
{
closed = 1;
nodes = (
"572 162 OFFCURVE",
"570 386 CURVE SMOOTH",
"569 496 LINE SMOOTH",
"568 631 OFFCURVE",
"517 731 OFFCURVE",
"385 731 CURVE SMOOTH",
"327 731 OFFCURVE",
"270 711 OFFCURVE",
"247 701 CURVE",
"242 608 OFFCURVE",
"230 531 OFFCURVE",
"185 531 CURVE SMOOTH",
"147 531 OFFCURVE",
"129 563 OFFCURVE",
"129 603 CURVE SMOOTH",
"129 725 OFFCURVE",
"213 813 OFFCURVE",
"386 813 CURVE SMOOTH",
"500 813 OFFCURVE",
"606 737 OFFCURVE",
"624 642 CURVE",
"666 738 OFFCURVE",
"758 813 OFFCURVE",
"859 813 CURVE SMOOTH",
"1002 813 OFFCURVE",
"1112 699 OFFCURVE",
"1112 480 CURVE SMOOTH",
"1112 430 OFFCURVE",
"1084 400 OFFCURVE",
"1040 398 CURVE SMOOTH",
"583 379 LINE SMOOTH",
"297 367 OFFCURVE",
"203 345 OFFCURVE",
"203 203 CURVE SMOOTH",
"203 121 OFFCURVE",
"267 65 OFFCURVE",
"372 65 CURVE SMOOTH",
"469 65 OFFCURVE",
"559 103 OFFCURVE",
"604 198 CURVE",
"656 131 LINE",
"598 31 OFFCURVE",
"479 -17 OFFCURVE",
"355 -17 CURVE SMOOTH",
"221 -17 OFFCURVE",
"114 69 OFFCURVE",
"114 203 CURVE SMOOTH",
"114 423 OFFCURVE",
"303 450 OFFCURVE",
"572 459 CURVE SMOOTH",
"1029 475 LINE",
"1023 564 OFFCURVE",
"1005 731 OFFCURVE",
"860 731 CURVE SMOOTH",
"738 731 OFFCURVE",
"658 606 OFFCURVE",
"658 394 CURVE SMOOTH",
"658 176 OFFCURVE",
"739 65 OFFCURVE",
"884 65 CURVE SMOOTH",
"953 65 OFFCURVE",
"1005 104 OFFCURVE",
"1048 150 CURVE SMOOTH",
"1060 162 OFFCURVE",
"1075 167 OFFCURVE",
"1088 167 CURVE SMOOTH",
"1109 167 OFFCURVE",
"1121 148 OFFCURVE",
"1122 127 CURVE SMOOTH",
"1123 113 OFFCURVE",
"1117 98 OFFCURVE",
"1106 85 CURVE SMOOTH",
"1033 1 OFFCURVE",
"938 -17 OFFCURVE",
"876 -17 CURVE SMOOTH",
"670 -17 OFFCURVE"
);
}
);
width = 1240;
},
{
layerId = "F2E12B84-E402-48AA-89E7-06534AE23493";
width = 600;
}
);
unicode = 00E6;
},
{
glyphname = b;
lastChange = "2017-07-06 23:29:32 +0000";
layers = (
{
anchors = (
{
name = bottom;
position = "{620, 0}";
},
{
name = top;
position = "{700, 756}";
}
);
layerId = "840BD324-B0A6-42B0-BD23-CB5E8C19394F";
paths = (
{
closed = 1;
nodes = (
"290 7 OFFCURVE",
"310 -4 OFFCURVE",
"331 -4 CURVE SMOOTH",
"356 -4 OFFCURVE",
"391 0 OFFCURVE",
"382 102 CURVE SMOOTH",
"386 1141 LINE SMOOTH",
"389 1164 OFFCURVE",
"374 1180 OFFCURVE",
"345 1180 CURVE SMOOTH",
"339 1180 OFFCURVE",
"333 1179 OFFCURVE",
"325 1178 CURVE SMOOTH",
"136 1159 LINE",
"112 1154 OFFCURVE",
"103 1134 OFFCURVE",
"103 1118 CURVE SMOOTH",
"103 1098 OFFCURVE",
"118 1080 OFFCURVE",
"142 1080 CURVE SMOOTH",
"290 1091 LINE",
"290 74 LINE SMOOTH"
);
},
{
closed = 1;
nodes = (
"449 681 OFFCURVE",
"537 731 OFFCURVE",
"664 731 CURVE SMOOTH",
"855 731 OFFCURVE",
"952 575 OFFCURVE",
"952 398 CURVE SMOOTH",
"952 219 OFFCURVE",
"858 65 OFFCURVE",
"672 65 CURVE SMOOTH",
"537 65 OFFCURVE",
"444 127 OFFCURVE",
"382 210 CURVE",
"382 102 LINE",
"446 37 OFFCURVE",
"547 -17 OFFCURVE",
"674 -17 CURVE SMOOTH",
"909 -17 OFFCURVE",
"1048 156 OFFCURVE",
"1048 398 CURVE SMOOTH",
"1048 636 OFFCURVE",
"904 813 OFFCURVE",
"670 813 CURVE SMOOTH",
"541 813 OFFCURVE",
"460 771 OFFCURVE",
"385 707 CURVE",
"384 602 LINE"
);
}
);
width = 1240;
},
{
anchors = (
{
name = bottom;
position = "{620, 0}";
},
{
name = top;
position = "{620, 774}";
}
);
layerId = "F2E12B84-E402-48AA-89E7-06534AE23493";
paths = (
{
closed = 1;
nodes = (
"226 27 OFFCURVE",
"271 -17 OFFCURVE",
"356 -17 CURVE SMOOTH",
"431 -17 OFFCURVE",
"487 25 OFFCURVE",
"487 93 CURVE SMOOTH",
"484 1141 LINE SMOOTH",
"484 1164 OFFCURVE",
"472 1180 OFFCURVE",
"443 1180 CURVE SMOOTH",
"437 1180 OFFCURVE",
"431 1179 OFFCURVE",
"423 1178 CURVE SMOOTH",
"144 1157 LINE SMOOTH",
"90 1153 OFFCURVE",
"62 1118 OFFCURVE",
"62 1068 CURVE SMOOTH",
"62 1023 OFFCURVE",
"87 978 OFFCURVE",
"151 983 CURVE SMOOTH",
"228 988 LINE",
"226 103 LINE SMOOTH"
);
},
{
closed = 1;
nodes = (
"487 575 OFFCURVE",
"536 631 OFFCURVE",
"640 631 CURVE SMOOTH",
"771 631 OFFCURVE",
"858 525 OFFCURVE",
"858 398 CURVE SMOOTH",
"858 269 OFFCURVE",
"770 175 OFFCURVE",
"644 175 CURVE SMOOTH",
"539 175 OFFCURVE",
"487 242 OFFCURVE",
"462 270 CURVE",
"453 107 LINE",
"456 93 OFFCURVE",
"569 -17 OFFCURVE",
"716 -17 CURVE SMOOTH",
"951 -17 OFFCURVE",
"1104 146 OFFCURVE",
"1104 398 CURVE SMOOTH",
"1104 646 OFFCURVE",
"950 813 OFFCURVE",
"726 813 CURVE SMOOTH",
"577 813 OFFCURVE",
"479 724 OFFCURVE",
"480 712 CURVE",
"472 546 LINE"
);
}
);
width = 1240;
}
);
unicode = 0062;
},
{
glyphname = c;
lastChange = "2017-07-06 01:28:47 +0000";
layers = (
{
anchors = (
{
name = bottom;
position = "{620, 0}";
},
{
name = top;
position = "{640, 774}";
}
);
layerId = "840BD324-B0A6-42B0-BD23-CB5E8C19394F";
paths = (
{
closed = 1;
nodes = (
"794 -17 OFFCURVE",
"922 25 OFFCURVE",
"996 105 CURVE SMOOTH",
"1008 118 OFFCURVE",
"1019 137 OFFCURVE",
"1019 151 CURVE SMOOTH",
"1019 180 OFFCURVE",
"1007 202 OFFCURVE",
"978 202 CURVE SMOOTH",
"965 202 OFFCURVE",
"950 192 OFFCURVE",
"938 181 CURVE SMOOTH",
"859 108 OFFCURVE",
"784 69 OFFCURVE",
"662 69 CURVE SMOOTH",
"459 69 OFFCURVE",
"317 175 OFFCURVE",
"317 407 CURVE SMOOTH",
"317 609 OFFCURVE",
"454 727 OFFCURVE",
"674 727 CURVE SMOOTH",
"755 727 OFFCURVE",
"820 717 OFFCURVE",
"891 682 CURVE",
"906 560 OFFCURVE",
"909 480 OFFCURVE",
"957 480 CURVE SMOOTH",
"998 480 OFFCURVE",
"1017 515 OFFCURVE",
"1017 560 CURVE SMOOTH",
"1017 740 OFFCURVE",
"871 813 OFFCURVE",
"673 813 CURVE SMOOTH",
"425 813 OFFCURVE",
"221 663 OFFCURVE",
"221 407 CURVE SMOOTH",
"221 141 OFFCURVE",
"403 -17 OFFCURVE",
"662 -17 CURVE SMOOTH"
);
}
);
width = 1240;
},
{
anchors = (
{
name = bottom;
position = "{620, 0}";
},
{
name = top;
position = "{620, 774}";
}
);
layerId = "F2E12B84-E402-48AA-89E7-06534AE23493";
paths = (
{
closed = 1;
nodes = (
"804 -17 OFFCURVE",
"953 13 OFFCURVE",
"1035 94 CURVE SMOOTH",
"1047 106 OFFCURVE",
"1080 137 OFFCURVE",
"1080 190 CURVE SMOOTH",
"1080 250 OFFCURVE",
"1039 272 OFFCURVE",
"1001 272 CURVE SMOOTH",
"957 272 OFFCURVE",
"930 245 OFFCURVE",
"893 219 CURVE SMOOTH",
"849 188 OFFCURVE",
"794 149 OFFCURVE",
"707 149 CURVE SMOOTH",
"569 149 OFFCURVE",
"437 235 OFFCURVE",
"437 387 CURVE SMOOTH",
"437 549 OFFCURVE",
"564 647 OFFCURVE",
"707 647 CURVE SMOOTH",
"772 647 OFFCURVE",
"838 623 OFFCURVE",
"855 608 CURVE",
"859 534 OFFCURVE",
"890 463 OFFCURVE",
"963 463 CURVE SMOOTH",
"1029 463 OFFCURVE",
"1082 492 OFFCURVE",
"1082 562 CURVE SMOOTH",
"1082 700 OFFCURVE",
"960 813 OFFCURVE",
"683 813 CURVE SMOOTH",
"415 813 OFFCURVE",
"191 663 OFFCURVE",
"191 407 CURVE SMOOTH",
"191 141 OFFCURVE",
"393 -17 OFFCURVE",
"682 -17 CURVE SMOOTH"
);
}
);
width = 1240;
}
);
unicode = 0063;
},
{
glyphname = d;
lastChange = "2017-07-06 23:29:21 +0000";
layers = (
{
anchors = (
{
name = bottom;
position = "{620, 0}";
},
{
name = center;
position = "{620, 387}";
},
{
name = top;
position = "{544, 702}";
},
{
name = topright;
position = "{1220, 774}";
}
);
layerId = "840BD324-B0A6-42B0-BD23-CB5E8C19394F";
paths = (
{
closed = 1;
nodes = (
"701 -17 OFFCURVE",
"808 36 OFFCURVE",
"877 107 CURVE",
"868 210 LINE",
"800 127 OFFCURVE",
"711 65 OFFCURVE",
"576 65 CURVE SMOOTH",
"390 65 OFFCURVE",
"292 219 OFFCURVE",
"292 398 CURVE SMOOTH",
"292 575 OFFCURVE",
"389 731 OFFCURVE",
"580 731 CURVE SMOOTH",
"707 731 OFFCURVE",
"795 681 OFFCURVE",
"861 601 CURVE",
"858 707 LINE",
"784 771 OFFCURVE",
"703 813 OFFCURVE",
"574 813 CURVE SMOOTH",
"340 813 OFFCURVE",
"196 636 OFFCURVE",
"196 398 CURVE SMOOTH",
"196 156 OFFCURVE",
"339 -17 OFFCURVE",
"574 -17 CURVE SMOOTH"
);
},
{
closed = 1;
nodes = (
"1110 17 LINE",
"1135 22 OFFCURVE",
"1148 42 OFFCURVE",
"1148 61 CURVE SMOOTH",
"1148 79 OFFCURVE",
"1136 96 OFFCURVE",
"1108 96 CURVE SMOOTH",
"954 85 LINE",
"954 1141 LINE SMOOTH",
"954 1164 OFFCURVE",
"942 1180 OFFCURVE",
"913 1180 CURVE SMOOTH",
"907 1180 OFFCURVE",
"901 1179 OFFCURVE",
"893 1178 CURVE SMOOTH",
"704 1159 LINE SMOOTH",
"680 1154 OFFCURVE",
"671 1134 OFFCURVE",
"671 1118 CURVE SMOOTH",
"671 1098 OFFCURVE",
"689 1079 OFFCURVE",
"710 1080 CURVE SMOOTH",
"858 1091 LINE",
"858 707 LINE",
"870 47 LINE SMOOTH",
"872 13 OFFCURVE",
"891 -3 OFFCURVE",
"917 -3 CURVE SMOOTH"
);
}
);
width = 1240;
},
{
anchors = (
{
name = bottom;
position = "{620, 0}";
},
{
name = center;
position = "{620, 387}";
},
{
name = top;
position = "{620, 774}";
},
{
name = topright;
position = "{1220, 774}";
}
);
layerId = "F2E12B84-E402-48AA-89E7-06534AE23493";
paths = (
{
closed = 1;
nodes = (
"668 -17 OFFCURVE",
"781 93 OFFCURVE",
"784 107 CURVE",
"775 270 LINE",
"750 242 OFFCURVE",
"698 175 OFFCURVE",
"593 175 CURVE SMOOTH",
"467 175 OFFCURVE",
"379 269 OFFCURVE",
"379 398 CURVE SMOOTH",
"379 525 OFFCURVE",
"466 631 OFFCURVE",
"597 631 CURVE SMOOTH",
"701 631 OFFCURVE",
"750 575 OFFCURVE",
"765 546 CURVE",
"759 712 LINE",
"760 724 OFFCURVE",
"660 813 OFFCURVE",
"511 813 CURVE SMOOTH",
"287 813 OFFCURVE",
"133 646 OFFCURVE",
"133 398 CURVE SMOOTH",
"133 146 OFFCURVE",
"286 -17 OFFCURVE",
"521 -17 CURVE SMOOTH"
);
},
{
closed = 1;
nodes = (
"1098 16 LINE SMOOTH",
"1139 19 OFFCURVE",
"1168 49 OFFCURVE",
"1168 95 CURVE SMOOTH",
"1168 148 OFFCURVE",
"1135 186 OFFCURVE",
"1079 182 CURVE SMOOTH",
"1014 177 LINE",
"1014 1141 LINE SMOOTH",
"1014 1164 OFFCURVE",
"1002 1180 OFFCURVE",
"973 1180 CURVE SMOOTH",
"967 1180 OFFCURVE",
"961 1179 OFFCURVE",
"953 1178 CURVE SMOOTH",
"684 1157 LINE SMOOTH",
"630 1153 OFFCURVE",
"602 1118 OFFCURVE",
"602 1068 CURVE SMOOTH",
"602 1023 OFFCURVE",
"627 978 OFFCURVE",
"701 984 CURVE SMOOTH",
"758 988 LINE",
"758 709 LINE",
"779 47 LINE SMOOTH",
"780 13 OFFCURVE",
"801 -3 OFFCURVE",
"827 -1 CURVE SMOOTH"
);
}
);
width = 1240;
}
);
unicode = 0064;
},
{
glyphname = eth;
lastChange = "2017-06-26 21:39:00 +0000";
layers = (
{
layerId = "840BD324-B0A6-42B0-BD23-CB5E8C19394F";
paths = (
{
closed = 1;
nodes = (
"602 69 CURVE SMOOTH",
"801 69 OFFCURVE",
"918 206 OFFCURVE",
"918 395 CURVE SMOOTH",
"918 590 OFFCURVE",
"780 735 OFFCURVE",
"608 735 CURVE SMOOTH",
"414 735 OFFCURVE",
"308 601 OFFCURVE",
"308 395 CURVE SMOOTH",
"308 196 OFFCURVE",
"433 69 OFFCURVE"
);
},
{
closed = 1;
nodes = (
"703 1116 LINE",
"914 920 OFFCURVE",
"1010 694 OFFCURVE",
"1010 457 CURVE SMOOTH",
"1010 161 OFFCURVE",
"881 -17 OFFCURVE",
"602 -17 CURVE SMOOTH",
"366 -17 OFFCURVE",
"212 158 OFFCURVE",
"212 398 CURVE SMOOTH",
"212 637 OFFCURVE",
"360 821 OFFCURVE",
"607 821 CURVE SMOOTH",
"731 821 OFFCURVE",
"874 740 OFFCURVE",
"919 617 CURVE",
"874 812 OFFCURVE",
"745 966 OFFCURVE",
"633 1069 CURVE",
"496 975 LINE SMOOTH",
"486 968 OFFCURVE",
"475 964 OFFCURVE",
"463 964 CURVE SMOOTH",
"442 964 OFFCURVE",
"428 985 OFFCURVE",
"428 1007 CURVE SMOOTH",
"428 1018 OFFCURVE",
"435 1030 OFFCURVE",
"446 1038 CURVE SMOOTH",
"567 1124 LINE",
"503 1177 OFFCURVE",
"449 1206 OFFCURVE",
"434 1218 CURVE SMOOTH",
"422 1228 OFFCURVE",
"417 1238 OFFCURVE",
"417 1257 CURVE SMOOTH",
"417 1279 OFFCURVE",
"432 1296 OFFCURVE",
"450 1296 CURVE SMOOTH",
"465 1296 OFFCURVE",
"477 1289 OFFCURVE",
"487 1282 CURVE SMOOTH",
"540 1247 OFFCURVE",
"592 1210 OFFCURVE",
"638 1172 CURVE",
"777 1269 LINE SMOOTH",
"783 1273 OFFCURVE",
"792 1278 OFFCURVE",
"804 1278 CURVE SMOOTH",
"831 1278 OFFCURVE",
"844 1256 OFFCURVE",
"844 1231 CURVE SMOOTH",
"844 1215 OFFCURVE",
"835 1206 OFFCURVE",
"825 1199 CURVE SMOOTH"
);
}
);
width = 1240;
},
{
layerId = "F2E12B84-E402-48AA-89E7-06534AE23493";
width = 600;
}
);
unicode = 00F0;
},
{
glyphname = dcroat;
lastChange = "2017-06-29 15:16:40 +0000";
layers = (
{
components = (
{
name = d;
}
);
layerId = "840BD324-B0A6-42B0-BD23-CB5E8C19394F";
paths = (
{
closed = 1;
nodes = (
"1070 917 OFFCURVE",
"1070 944 CURVE SMOOTH",
"1070 971 OFFCURVE",
"1054 979 OFFCURVE",
"1021 979 CURVE SMOOTH",
"660 979 LINE SMOOTH",
"626 979 OFFCURVE",
"610 971 OFFCURVE",
"610 944 CURVE SMOOTH",
"610 917 OFFCURVE",
"623 907 OFFCURVE",
"661 907 CURVE SMOOTH",
"1023 907 LINE SMOOTH",
"1056 907 OFFCURVE"
);
}
);
width = 1240;
},
{
layerId = "F2E12B84-E402-48AA-89E7-06534AE23493";
width = 600;
}
);
unicode = 0111;
},
{
glyphname = ddotaccent;
lastChange = "2017-06-29 15:18:38 +0000";
layers = (
{
anchors = (
{
name = bottom;
position = "{620, 0}";
},
{
name = center;
position = "{620, 387}";
},
{
name = top;
position = "{533, 732}";
},
{
name = topright;
position = "{1220, 774}";
}
);
components = (
{
name = dotaccentcomb;
transform = "{1, 0, 0, 1, -69, 369}";
}
);
layerId = "840BD324-B0A6-42B0-BD23-CB5E8C19394F";
paths = (
{
closed = 1;
nodes = (
"701 -17 OFFCURVE",
"808 36 OFFCURVE",
"867 107 CURVE",
"870 47 LINE SMOOTH",
"872 13 OFFCURVE",
"891 -3 OFFCURVE",
"917 -3 LINE SMOOTH",
"924 -3 LINE",
"1110 17 LINE",
"1135 22 OFFCURVE",
"1148 42 OFFCURVE",
"1148 61 CURVE SMOOTH",
"1148 79 OFFCURVE",
"1136 96 OFFCURVE",
"1108 96 CURVE SMOOTH",
"1102 96 LINE",
"954 85 LINE",
"954 1141 LINE SMOOTH",
"954 1164 OFFCURVE",
"942 1180 OFFCURVE",
"913 1180 CURVE SMOOTH",
"907 1180 OFFCURVE",
"901 1179 OFFCURVE",
"893 1178 CURVE SMOOTH",
"744 1159 LINE",
"720 1154 OFFCURVE",
"711 1134 OFFCURVE",
"711 1118 CURVE SMOOTH",
"711 1098 OFFCURVE",
"729 1079 OFFCURVE",
"750 1080 CURVE SMOOTH",
"774 1081 OFFCURVE",
"793 1087 OFFCURVE",
"858 1091 CURVE",
"858 707 LINE",
"784 771 OFFCURVE",
"703 813 OFFCURVE",
"574 813 CURVE SMOOTH",
"340 813 OFFCURVE",
"196 636 OFFCURVE",
"196 398 CURVE SMOOTH",
"196 156 OFFCURVE",
"339 -17 OFFCURVE",
"574 -17 CURVE SMOOTH"
);
},
{
closed = 1;
nodes = (
"390 65 OFFCURVE",
"292 219 OFFCURVE",
"292 398 CURVE SMOOTH",
"292 575 OFFCURVE",
"389 731 OFFCURVE",
"580 731 CURVE SMOOTH",
"707 731 OFFCURVE",
"795 681 OFFCURVE",
"858 602 CURVE",
"858 210 LINE",
"800 127 OFFCURVE",
"711 65 OFFCURVE",
"576 65 CURVE SMOOTH"
);
}
);
width = 1240;
},
{
layerId = "F2E12B84-E402-48AA-89E7-06534AE23493";
width = 600;
}
);
unicode = 1E0B;
},
{
glyphname = dz;
lastChange = "2017-06-26 21:39:00 +0000";
layers = (
{
layerId = "840BD324-B0A6-42B0-BD23-CB5E8C19394F";
paths = (
{
closed = 1;
nodes = (
"1089 772 LINE SMOOTH",
"1135 772 OFFCURVE",
"1150 759 OFFCURVE",
"1150 736 CURVE SMOOTH",
"1150 719 OFFCURVE",
"1138 695 OFFCURVE",
"1132 682 CURVE SMOOTH",
"850 82 LINE",
"1061 82 LINE",
"1082 259 LINE SMOOTH",
"1085 283 OFFCURVE",
"1102 297 OFFCURVE",
"1123 297 CURVE SMOOTH",
"1144 297 OFFCURVE",
"1162 284 OFFCURVE",
"1161 255 CURVE SMOOTH",
"1151 46 LINE SMOOTH",
"1150 21 OFFCURVE",
"1124 0 OFFCURVE",
"1100 0 CURVE SMOOTH",
"806 0 LINE SMOOTH",
"768 0 OFFCURVE",
"750 24 OFFCURVE",
"750 59 CURVE SMOOTH",
"750 81 OFFCURVE",
"761 97 OFFCURVE",
"767 109 CURVE SMOOTH",
"1045 692 LINE",
"836 692 LINE",
"818 535 LINE SMOOTH",
"815 505 OFFCURVE",
"799 490 OFFCURVE",
"778 490 CURVE SMOOTH",
"756 490 OFFCURVE",
"734 507 OFFCURVE",
"736 540 CURVE SMOOTH",
"746 726 LINE SMOOTH",
"747 750 OFFCURVE",
"768 772 OFFCURVE",
"792 772 CURVE SMOOTH"
);
},
{
closed = 1;
nodes = (
"497 47 CURVE SMOOTH",
"494 97 LINE",
"471 52 OFFCURVE",
"438 -16 OFFCURVE",
"338 -16 CURVE SMOOTH",
"177 -16 OFFCURVE",
"63 183 OFFCURVE",
"63 398 CURVE SMOOTH",
"63 621 OFFCURVE",
"164 813 OFFCURVE",
"329 813 CURVE SMOOTH",
"418 813 OFFCURVE",
"493 734 OFFCURVE",
"493 734 CURVE",
"493 1091 LINE",
"445 1088 OFFCURVE",
"343 1080 OFFCURVE",
"337 1080 CURVE SMOOTH",
"313 1080 OFFCURVE",
"298 1098 OFFCURVE",
"298 1118 CURVE SMOOTH",
"298 1134 OFFCURVE",
"307 1154 OFFCURVE",
"331 1159 CURVE",
"520 1178 LINE SMOOTH",
"528 1179 OFFCURVE",
"534 1180 OFFCURVE",
"540 1180 CURVE SMOOTH",
"569 1180 OFFCURVE",
"581 1164 OFFCURVE",
"581 1141 CURVE SMOOTH",
"581 85 LINE",
"637 91 LINE",
"643 91 LINE SMOOTH",
"671 91 OFFCURVE",
"683 74 OFFCURVE",
"683 56 CURVE SMOOTH",
"683 37 OFFCURVE",
"670 17 OFFCURVE",
"645 12 CURVE",
"551 -3 LINE",
"544 -3 LINE SMOOTH",
"518 -3 OFFCURVE",
"499 13 OFFCURVE"
);
},
{
closed = 1;
nodes = (
"159 398 CURVE SMOOTH",
"159 216 OFFCURVE",
"226 70 OFFCURVE",
"338 70 CURVE SMOOTH",
"418 70 OFFCURVE",
"476 137 OFFCURVE",
"493 210 CURVE",
"493 629 LINE",
"454 678 OFFCURVE",
"400 725 OFFCURVE",
"329 725 CURVE SMOOTH",
"213 725 OFFCURVE",
"159 580 OFFCURVE"
);
}
);
width = 1240;
},
{
layerId = "F2E12B84-E402-48AA-89E7-06534AE23493";
width = 600;
}
);
unicode = 01F3;
},
{
glyphname = dzcaron;
lastChange = "2017-06-26 21:39:00 +0000";
layers = (
{
components = (
{
name = caron;
transform = "{1, 0, 0, 1, 327, -44}";
}
);
layerId = "840BD324-B0A6-42B0-BD23-CB5E8C19394F";
paths = (
{
closed = 1;
nodes = (
"1089 772 LINE SMOOTH",
"1135 772 OFFCURVE",
"1150 759 OFFCURVE",
"1150 736 CURVE SMOOTH",
"1150 719 OFFCURVE",
"1138 695 OFFCURVE",
"1132 682 CURVE SMOOTH",
"850 82 LINE",
"1061 82 LINE",
"1082 259 LINE SMOOTH",
"1085 283 OFFCURVE",
"1102 297 OFFCURVE",
"1123 297 CURVE SMOOTH",
"1144 297 OFFCURVE",
"1162 284 OFFCURVE",
"1161 255 CURVE SMOOTH",
"1151 46 LINE SMOOTH",
"1150 21 OFFCURVE",
"1124 0 OFFCURVE",
"1100 0 CURVE SMOOTH",
"806 0 LINE SMOOTH",
"768 0 OFFCURVE",
"750 24 OFFCURVE",
"750 59 CURVE SMOOTH",
"750 81 OFFCURVE",
"761 97 OFFCURVE",
"767 109 CURVE SMOOTH",
"1045 692 LINE",
"836 692 LINE",
"818 535 LINE SMOOTH",
"815 505 OFFCURVE",
"799 490 OFFCURVE",
"778 490 CURVE SMOOTH",
"756 490 OFFCURVE",
"734 507 OFFCURVE",
"736 540 CURVE SMOOTH",
"746 726 LINE SMOOTH",
"747 750 OFFCURVE",
"768 772 OFFCURVE",
"792 772 CURVE SMOOTH"
);
},
{
closed = 1;
nodes = (
"497 47 CURVE SMOOTH",
"494 97 LINE",
"471 52 OFFCURVE",
"438 -16 OFFCURVE",
"338 -16 CURVE SMOOTH",
"177 -16 OFFCURVE",
"63 183 OFFCURVE",
"63 398 CURVE SMOOTH",
"63 621 OFFCURVE",
"164 813 OFFCURVE",
"329 813 CURVE SMOOTH",
"418 813 OFFCURVE",
"493 734 OFFCURVE",
"493 734 CURVE",
"493 1091 LINE",
"445 1088 OFFCURVE",
"343 1080 OFFCURVE",
"337 1080 CURVE SMOOTH",
"313 1080 OFFCURVE",
"298 1098 OFFCURVE",
"298 1118 CURVE SMOOTH",
"298 1134 OFFCURVE",
"307 1154 OFFCURVE",
"331 1159 CURVE",
"520 1178 LINE SMOOTH",
"528 1179 OFFCURVE",
"534 1180 OFFCURVE",
"540 1180 CURVE SMOOTH",
"569 1180 OFFCURVE",
"581 1164 OFFCURVE",
"581 1141 CURVE SMOOTH",
"581 85 LINE",
"637 91 LINE",
"643 91 LINE SMOOTH",
"671 91 OFFCURVE",
"683 74 OFFCURVE",
"683 56 CURVE SMOOTH",
"683 37 OFFCURVE",
"670 17 OFFCURVE",
"645 12 CURVE",
"551 -3 LINE",
"544 -3 LINE SMOOTH",
"518 -3 OFFCURVE",
"499 13 OFFCURVE"
);
},
{
closed = 1;
nodes = (
"159 398 CURVE SMOOTH",
"159 216 OFFCURVE",
"226 70 OFFCURVE",
"338 70 CURVE SMOOTH",
"418 70 OFFCURVE",
"476 137 OFFCURVE",
"493 210 CURVE",
"493 629 LINE",
"454 678 OFFCURVE",
"400 725 OFFCURVE",
"329 725 CURVE SMOOTH",
"213 725 OFFCURVE",
"159 580 OFFCURVE"
);
}
);
width = 1240;
},
{
layerId = "F2E12B84-E402-48AA-89E7-06534AE23493";
width = 600;
}
);
unicode = 01C6;
},
{
glyphname = e;
lastChange = "2017-07-03 16:03:13 +0000";
layers = (
{
anchors = (
{
name = bottom;
position = "{620, 0}";
},
{
name = ogonek;
position = "{1116, 10}";
},
{
name = top;
position = "{620, 774}";
}
);
layerId = "840BD324-B0A6-42B0-BD23-CB5E8C19394F";
paths = (
{
closed = 1;
nodes = (
"769 -17 OFFCURVE",
"920 28 OFFCURVE",
"997 105 CURVE SMOOTH",
"1009 117 OFFCURVE",
"1015 133 OFFCURVE",
"1015 147 CURVE SMOOTH",
"1015 171 OFFCURVE",
"1003 195 OFFCURVE",
"975 195 CURVE SMOOTH",
"963 195 OFFCURVE",
"948 191 OFFCURVE",
"934 178 CURVE SMOOTH",
"855 105 OFFCURVE",
"754 69 OFFCURVE",
"657 69 CURVE SMOOTH",
"438 69 OFFCURVE",
"308 185 OFFCURVE",
"308 407 CURVE SMOOTH",
"308 609 OFFCURVE",
"446 727 OFFCURVE",
"636 727 CURVE SMOOTH",
"813 727 OFFCURVE",
"925 621 OFFCURVE",
"931 467 CURVE",
"298 463 LINE",
"298 377 LINE",
"949 382 LINE SMOOTH",
"998 382 OFFCURVE",
"1025 423 OFFCURVE",
"1025 465 CURVE SMOOTH",
"1025 683 OFFCURVE",
"840 813 OFFCURVE",
"634 813 CURVE SMOOTH",
"403 813 OFFCURVE",
"212 673 OFFCURVE",
"212 407 CURVE SMOOTH",
"212 141 OFFCURVE",
"398 -17 OFFCURVE",
"657 -17 CURVE SMOOTH"
);
}
);
width = 1240;
},
{
anchors = (
{
name = bottom;
position = "{620, 0}";
},
{
name = ogonek;
position = "{1116, 10}";
},
{
name = top;
position = "{620, 774}";
}
);
layerId = "F2E12B84-E402-48AA-89E7-06534AE23493";
paths = (
{
closed = 1;
nodes = (
"789 -17 OFFCURVE",
"922 24 OFFCURVE",
"980 72 CURVE SMOOTH",
"1007 94 OFFCURVE",
"1037 122 OFFCURVE",
"1037 162 CURVE SMOOTH",
"1037 207 OFFCURVE",
"1012 250 OFFCURVE",
"952 250 CURVE SMOOTH",
"915 250 OFFCURVE",
"875 228 OFFCURVE",
"851 214 CURVE SMOOTH",
"802 186 OFFCURVE",
"757 138 OFFCURVE",
"654 138 CURVE SMOOTH",
"513 138 OFFCURVE",
"418 230 OFFCURVE",
"418 404 CURVE SMOOTH",
"418 557 OFFCURVE",
"511 656 OFFCURVE",
"630 656 CURVE SMOOTH",
"740 656 OFFCURVE",
"816 583 OFFCURVE",
"820 492 CURVE",
"298 492 LINE",
"298 337 LINE",
"979 342 LINE SMOOTH",
"1028 342 OFFCURVE",
"1055 383 OFFCURVE",
"1055 425 CURVE SMOOTH",
"1055 688 OFFCURVE",
"840 813 OFFCURVE",
"634 813 CURVE SMOOTH",
"383 813 OFFCURVE",
"182 673 OFFCURVE",
"182 407 CURVE SMOOTH",
"182 141 OFFCURVE",
"378 -17 OFFCURVE",
"657 -17 CURVE SMOOTH"
);
}
);
width = 1240;
}
);
unicode = 0065;
},
{
glyphname = f;
lastChange = "2017-07-07 01:20:32 +0000";
layers = (
{
anchors = (
{
name = bottom;
position = "{620, 0}";
},
{
name = top;
position = "{620, 1070}";
}
);
layerId = "840BD324-B0A6-42B0-BD23-CB5E8C19394F";
paths = (
{
closed = 1;
nodes = (
"970 0 LINE SMOOTH",
"997 0 OFFCURVE",
"1010 20 OFFCURVE",
"1010 41 CURVE SMOOTH",
"1010 61 OFFCURVE",
"997 82 OFFCURVE",
"971 82 CURVE SMOOTH",
"609 82 LINE",
"608 692 LINE",
"917 692 LINE SMOOTH",
"944 692 OFFCURVE",
"958 712 OFFCURVE",
"958 733 CURVE SMOOTH",
"958 753 OFFCURVE",
"945 774 OFFCURVE",
"918 774 CURVE SMOOTH",
"609 774 LINE",
"609 802 LINE SMOOTH",
"609 1008 OFFCURVE",
"723 1098 OFFCURVE",
"886 1114 CURVE",
"987 1042 OFFCURVE",
"1048 991 OFFCURVE",
"1080 1026 CURVE SMOOTH",
"1108 1057 OFFCURVE",
"1097 1100 OFFCURVE",
"1063 1130 CURVE SMOOTH",
"1020 1168 OFFCURVE",
"975 1191 OFFCURVE",
"902 1191 CURVE SMOOTH",
"685 1191 OFFCURVE",
"512 1069 OFFCURVE",
"512 802 CURVE SMOOTH",
"512 774 LINE",
"297 774 LINE SMOOTH",
"269 774 OFFCURVE",
"255 754 OFFCURVE",
"255 734 CURVE SMOOTH",
"255 713 OFFCURVE",
"270 692 OFFCURVE",
"301 692 CURVE SMOOTH",
"512 692 LINE",
"512 82 LINE",
"272 82 LINE SMOOTH",
"244 82 OFFCURVE",
"230 62 OFFCURVE",
"230 42 CURVE SMOOTH",
"230 21 OFFCURVE",
"245 0 OFFCURVE",
"276 0 CURVE SMOOTH"
);
}
);
width = 1240;
},
{
anchors = (
{
name = bottom;
position = "{620, 0}";
},
{
name = top;
position = "{620, 774}";
}
);
layerId = "F2E12B84-E402-48AA-89E7-06534AE23493";
paths = (
{
closed = 1;
nodes = (
"950 0 LINE SMOOTH",
"1011 0 OFFCURVE",
"1040 45 OFFCURVE",
"1040 88 CURVE SMOOTH",
"1040 130 OFFCURVE",
"1011 176 OFFCURVE",
"951 176 CURVE SMOOTH",
"669 176 LINE",
"668 612 LINE",
"907 612 LINE SMOOTH",
"958 612 OFFCURVE",
"988 652 OFFCURVE",
"988 693 CURVE SMOOTH",
"988 733 OFFCURVE",
"959 774 OFFCURVE",
"908 774 CURVE SMOOTH",
"669 774 LINE",
"669 802 LINE SMOOTH",
"669 938 OFFCURVE",
"759 1038 OFFCURVE",
"910 1048 CURVE",
"958 1005 OFFCURVE",
"1021 938 OFFCURVE",
"1077 966 CURVE SMOOTH",
"1123 989 OFFCURVE",
"1142 1070 OFFCURVE",
"1093 1120 CURVE SMOOTH",
"1053 1161 OFFCURVE",
"1001 1191 OFFCURVE",
"888 1191 CURVE SMOOTH",
"625 1191 OFFCURVE",
"422 1069 OFFCURVE",
"422 782 CURVE SMOOTH",
"422 774 LINE",
"317 774 LINE SMOOTH",
"269 774 OFFCURVE",
"235 734 OFFCURVE",
"235 694 CURVE SMOOTH",
"235 633 OFFCURVE",
"270 612 OFFCURVE",
"321 612 CURVE SMOOTH",
"422 612 LINE",
"422 176 LINE",
"302 176 LINE SMOOTH",
"244 176 OFFCURVE",
"210 131 OFFCURVE",
"210 89 CURVE SMOOTH",
"210 46 OFFCURVE",
"245 0 OFFCURVE",
"306 0 CURVE SMOOTH"
);
}
);
width = 1240;
}
);
unicode = 0066;
},
{
glyphname = g;
lastChange = "2017-07-04 00:17:39 +0000";
layers = (
{
anchors = (
{
name = bottom;
position = "{620, 0}";
},
{
name = top;
position = "{620, 774}";
},
{
name = topright;
position = "{621, 890}";
}
);
layerId = "840BD324-B0A6-42B0-BD23-CB5E8C19394F";
paths = (
{
closed = 1;
nodes = (
"696 361 OFFCURVE",
"811 397 OFFCURVE",
"811 534 CURVE SMOOTH",
"811 679 OFFCURVE",
"702 731 OFFCURVE",
"580 731 CURVE SMOOTH",
"457 731 OFFCURVE",
"355 676 OFFCURVE",
"355 542 CURVE SMOOTH",
"355 420 OFFCURVE",
"453 361 OFFCURVE",
"574 361 CURVE SMOOTH"
);
},
{
closed = 1;
nodes = (
"823 748 OFFCURVE",
"888 828 OFFCURVE",
"977 828 CURVE SMOOTH",
"1047 828 OFFCURVE",
"1121 797 OFFCURVE",
"1121 742 CURVE SMOOTH",
"1121 720 OFFCURVE",
"1105 697 OFFCURVE",
"1074 697 CURVE SMOOTH",
"1032 697 OFFCURVE",
"983 723 OFFCURVE",
"938 745 CURVE",
"840 678 LINE",
"794 718 LINE"
);
},
{
closed = 1;
nodes = (
"395 280 OFFCURVE",
"259 390 OFFCURVE",
"259 545 CURVE SMOOTH",
"259 729 OFFCURVE",
"410 813 OFFCURVE",
"582 813 CURVE SMOOTH",
"763 813 OFFCURVE",
"907 706 OFFCURVE",
"907 540 CURVE SMOOTH",
"907 362 OFFCURVE",
"772 280 OFFCURVE",
"571 280 CURVE SMOOTH"
);
},
{
closed = 1;
nodes = (
"434 319 OFFCURVE",
"349 280 OFFCURVE",
"349 214 CURVE SMOOTH",
"349 136 OFFCURVE",
"422 130 OFFCURVE",
"517 128 CURVE SMOOTH",
"676 125 LINE SMOOTH",
"885 121 OFFCURVE",
"994 39 OFFCURVE",
"994 -128 CURVE SMOOTH",
"994 -308 OFFCURVE",
"789 -382 OFFCURVE",
"605 -382 CURVE SMOOTH",
"418 -382 OFFCURVE",
"228 -316 OFFCURVE",
"228 -118 CURVE SMOOTH",
"228 -17 OFFCURVE",
"281 56 OFFCURVE",
"317 99 CURVE",
"397 56 LINE",
"378 41 OFFCURVE",
"324 -35 OFFCURVE",
"324 -118 CURVE SMOOTH",
"324 -238 OFFCURVE",
"457 -295 OFFCURVE",
"603 -295 CURVE SMOOTH",
"725 -295 OFFCURVE",
"898 -252 OFFCURVE",
"898 -128 CURVE SMOOTH",
"898 14 OFFCURVE",
"767 43 OFFCURVE",
"641 43 CURVE SMOOTH",
"533 43 LINE SMOOTH",
"375 44 OFFCURVE",
"253 56 OFFCURVE",
"253 201 CURVE SMOOTH",
"253 295 OFFCURVE",
"317 341 OFFCURVE",
"349 371 CURVE",
"436 321 LINE"
);
}
);
width = 1240;
},
{
anchors = (
{
name = bottom;
position = "{620, 0}";
},
{
name = top;
position = "{620, 774}";
},
{
name = topright;
position = "{621, 890}";
}
);
layerId = "F2E12B84-E402-48AA-89E7-06534AE23493";
paths = (
{
closed = 1;
nodes = (
"669 421 OFFCURVE",
"736 459 OFFCURVE",
"736 539 CURVE SMOOTH",
"736 624 OFFCURVE",
"673 671 OFFCURVE",
"591 671 CURVE SMOOTH",
"510 671 OFFCURVE",
"450 622 OFFCURVE",
"450 544 CURVE SMOOTH",
"450 472 OFFCURVE",
"507 421 OFFCURVE",
"588 421 CURVE SMOOTH"
);
},
{
closed = 1;
nodes = (
"854 749 OFFCURVE",
"912 833 OFFCURVE",
"1047 833 CURVE SMOOTH",
"1110 833 OFFCURVE",
"1210 817 OFFCURVE",
"1210 732 CURVE SMOOTH",
"1210 656 OFFCURVE",
"1150 632 OFFCURVE",
"1119 632 CURVE SMOOTH",
"1074 632 OFFCURVE",
"1022 660 OFFCURVE",
"989 689 CURVE",
"904 633 LINE",
"824 717 LINE"
);
},
{
closed = 1;
nodes = (
"375 280 OFFCURVE",
"209 390 OFFCURVE",
"209 545 CURVE SMOOTH",
"209 729 OFFCURVE",
"360 813 OFFCURVE",
"592 813 CURVE SMOOTH",
"813 813 OFFCURVE",
"957 706 OFFCURVE",
"957 540 CURVE SMOOTH",
"957 362 OFFCURVE",
"822 280 OFFCURVE",
"581 280 CURVE SMOOTH"
);
},
{
closed = 1;
nodes = (
"457 319 OFFCURVE",
"419 280 OFFCURVE",
"419 231 CURVE SMOOTH",
"419 174 OFFCURVE",
"487 160 OFFCURVE",
"545 157 CURVE SMOOTH",
"728 149 LINE SMOOTH",
"956 139 OFFCURVE",
"1054 35 OFFCURVE",
"1054 -108 CURVE SMOOTH",
"1054 -308 OFFCURVE",
"849 -382 OFFCURVE",
"605 -382 CURVE SMOOTH",
"358 -382 OFFCURVE",
"168 -306 OFFCURVE",
"168 -118 CURVE SMOOTH",
"168 -17 OFFCURVE",
"229 77 OFFCURVE",
"317 99 CURVE",
"484 18 LINE",
"458 24 OFFCURVE",
"404 -53 OFFCURVE",
"404 -108 CURVE SMOOTH",
"404 -178 OFFCURVE",
"477 -235 OFFCURVE",
"605 -235 CURVE SMOOTH",
"725 -235 OFFCURVE",
"808 -192 OFFCURVE",
"808 -118 CURVE SMOOTH",
"808 -26 OFFCURVE",
"698 0 OFFCURVE",
"623 2 CURVE SMOOTH",
"557 4 LINE SMOOTH",
"384 9 OFFCURVE",
"223 49 OFFCURVE",
"223 201 CURVE SMOOTH",
"223 295 OFFCURVE",
"287 341 OFFCURVE",
"329 381 CURVE",
"506 321 LINE"
);
}
);
width = 1240;
}
);
unicode = 0067;
},
{
glyphname = h;
lastChange = "2017-07-06 23:29:42 +0000";
layers = (
{
anchors = (
{
name = bottom;
position = "{620, 0}";
},
{
name = center;
position = "{620, 387}";
},
{
name = top;
position = "{347, 1080}";
}
);
layerId = "840BD324-B0A6-42B0-BD23-CB5E8C19394F";
paths = (
{
closed = 1;
nodes = (
"1099 0 LINE SMOOTH",
"1127 0 OFFCURVE",
"1141 21 OFFCURVE",
"1141 42 CURVE SMOOTH",
"1141 62 OFFCURVE",
"1128 82 OFFCURVE",
"1101 82 CURVE SMOOTH",
"992 82 LINE",
"992 523 LINE SMOOTH",
"992 707 OFFCURVE",
"894 813 OFFCURVE",
"691 813 CURVE SMOOTH",
"533 813 OFFCURVE",
"413 716 OFFCURVE",
"394 686 CURVE",
"396 567 LINE",
"420 621 OFFCURVE",
"535 731 OFFCURVE",
"696 731 CURVE SMOOTH",
"827 731 OFFCURVE",
"896 659 OFFCURVE",
"896 520 CURVE SMOOTH",
"896 82 LINE",
"750 82 LINE SMOOTH",
"722 82 OFFCURVE",
"708 63 OFFCURVE",
"708 43 CURVE SMOOTH",
"708 22 OFFCURVE",
"723 0 OFFCURVE",
"754 0 CURVE SMOOTH"
);
},
{
closed = 1;
nodes = (
"499 0 LINE SMOOTH",
"532 0 OFFCURVE",
"549 21 OFFCURVE",
"549 42 CURVE SMOOTH",
"549 62 OFFCURVE",
"533 82 OFFCURVE",
"501 82 CURVE SMOOTH",
"396 82 LINE",
"396 1141 LINE SMOOTH",
"396 1164 OFFCURVE",
"384 1180 OFFCURVE",
"355 1180 CURVE SMOOTH",
"349 1180 OFFCURVE",
"343 1179 OFFCURVE",
"335 1178 CURVE SMOOTH",
"146 1159 LINE SMOOTH",
"122 1157 OFFCURVE",
"113 1134 OFFCURVE",
"113 1118 CURVE SMOOTH",
"113 1098 OFFCURVE",
"128 1081 OFFCURVE",
"152 1082 CURVE SMOOTH",
"300 1091 LINE",
"300 82 LINE",
"192 82 LINE SMOOTH",
"164 82 OFFCURVE",
"150 63 OFFCURVE",
"150 43 CURVE SMOOTH",
"150 22 OFFCURVE",
"165 0 OFFCURVE",
"196 0 CURVE SMOOTH"
);
}
);
width = 1240;
},
{
anchors = (
{
name = bottom;
position = "{620, 0}";
},
{
name = center;
position = "{620, 387}";
},
{
name = top;
position = "{620, 774}";
}
);
layerId = "F2E12B84-E402-48AA-89E7-06534AE23493";
paths = (
{
closed = 1;
nodes = (
"1108 0 LINE SMOOTH",
"1166 0 OFFCURVE",
"1190 41 OFFCURVE",
"1190 87 CURVE SMOOTH",
"1190 132 OFFCURVE",
"1167 172 OFFCURVE",
"1110 172 CURVE SMOOTH",
"1061 172 LINE",
"1061 493 LINE SMOOTH",
"1061 697 OFFCURVE",
"953 813 OFFCURVE",
"720 813 CURVE SMOOTH",
"562 813 OFFCURVE",
"432 696 OFFCURVE",
"413 666 CURVE",
"415 497 LINE",
"431 559 OFFCURVE",
"534 641 OFFCURVE",
"645 641 CURVE SMOOTH",
"756 641 OFFCURVE",
"815 569 OFFCURVE",
"815 460 CURVE SMOOTH",
"815 172 LINE",
"759 172 LINE SMOOTH",
"706 172 OFFCURVE",
"677 133 OFFCURVE",
"677 85 CURVE SMOOTH",
"677 42 OFFCURVE",
"707 0 OFFCURVE",
"763 0 CURVE SMOOTH"
);
},
{
closed = 1;
nodes = (
"527 0 LINE SMOOTH",
"580 0 OFFCURVE",
"607 42 OFFCURVE",
"607 84 CURVE SMOOTH",
"607 132 OFFCURVE",
"581 172 OFFCURVE",
"529 172 CURVE SMOOTH",
"464 172 LINE",
"464 1141 LINE SMOOTH",
"464 1164 OFFCURVE",
"452 1180 OFFCURVE",
"425 1180 CURVE SMOOTH",
"420 1180 OFFCURVE",
"414 1179 OFFCURVE",
"407 1178 CURVE SMOOTH",
"130 1143 LINE SMOOTH",
"70 1136 OFFCURVE",
"51 1099 OFFCURVE",
"51 1057 CURVE SMOOTH",
"51 1010 OFFCURVE",
"82 972 OFFCURVE",
"146 978 CURVE SMOOTH",
"218 985 LINE",
"218 172 LINE",
"150 172 LINE SMOOTH",
"102 172 OFFCURVE",
"78 128 OFFCURVE",
"78 83 CURVE SMOOTH",
"78 38 OFFCURVE",
"102 0 OFFCURVE",
"154 0 CURVE SMOOTH"
);
}
);
width = 1240;
}
);
unicode = 0068;
},
{
glyphname = hbar;
lastChange = "2017-06-26 22:00:10 +0000";
layers = (
{
components = (
{
name = h;
}
);
layerId = "840BD324-B0A6-42B0-BD23-CB5E8C19394F";
paths = (
{
closed = 1;
nodes = (
"542 907 CURVE SMOOTH",
"180 907 LINE SMOOTH",
"142 907 OFFCURVE",
"129 917 OFFCURVE",
"129 944 CURVE SMOOTH",
"129 971 OFFCURVE",
"145 979 OFFCURVE",
"179 979 CURVE SMOOTH",
"540 979 LINE SMOOTH",
"573 979 OFFCURVE",
"589 971 OFFCURVE",
"589 944 CURVE SMOOTH",
"589 917 OFFCURVE",
"575 907 OFFCURVE"
);
}
);
width = 1240;
},
{
layerId = "F2E12B84-E402-48AA-89E7-06534AE23493";
width = 600;
}
);
unicode = 0127;
},
{
glyphname = i;
lastChange = "2017-07-06 23:31:04 +0000";
layers = (
{
anchors = (
{
name = bottom;
position = "{620, 0}";
}
);
layerId = "840BD324-B0A6-42B0-BD23-CB5E8C19394F";
paths = (
{
closed = 1;
nodes = (
"1044 0 LINE SMOOTH",
"1071 0 OFFCURVE",
"1085 22 OFFCURVE",
"1085 43 CURVE SMOOTH",
"1085 63 OFFCURVE",
"1072 86 OFFCURVE",
"1045 86 CURVE SMOOTH",
"712 86 LINE",
"712 779 LINE SMOOTH",
"712 799 OFFCURVE",
"697 811 OFFCURVE",
"676 811 CURVE SMOOTH",
"671 811 OFFCURVE",
"668 810 OFFCURVE",
"665 810 CURVE SMOOTH",
"267 755 LINE SMOOTH",
"245 752 OFFCURVE",
"235 734 OFFCURVE",
"235 715 CURVE SMOOTH",
"235 694 OFFCURVE",
"249 673 OFFCURVE",
"276 673 CURVE SMOOTH",
"275 673 OFFCURVE",
"548 710 OFFCURVE",
"616 719 CURVE",
"616 86 LINE",
"244 86 LINE SMOOTH",
"216 86 OFFCURVE",
"202 65 OFFCURVE",
"202 45 CURVE SMOOTH",
"202 24 OFFCURVE",
"217 0 OFFCURVE",
"248 0 CURVE SMOOTH"
);
},
{
closed = 1;
nodes = (
"691 990 OFFCURVE",
"731 1029 OFFCURVE",
"731 1080 CURVE SMOOTH",
"731 1130 OFFCURVE",
"691 1171 OFFCURVE",
"641 1171 CURVE SMOOTH",
"590 1171 OFFCURVE",
"550 1130 OFFCURVE",
"550 1080 CURVE SMOOTH",
"550 1029 OFFCURVE",
"590 990 OFFCURVE",
"641 990 CURVE SMOOTH"
);
}
);
width = 1240;
},
{
anchors = (
{
name = bottom;
position = "{620, 0}";
}
);
layerId = "F2E12B84-E402-48AA-89E7-06534AE23493";
paths = (
{
closed = 1;
nodes = (
"1004 0 LINE SMOOTH",
"1061 0 OFFCURVE",
"1085 47 OFFCURVE",
"1085 88 CURVE SMOOTH",
"1085 128 OFFCURVE",
"1062 176 OFFCURVE",
"1004 176 CURVE SMOOTH",
"792 176 LINE",
"792 779 LINE SMOOTH",
"792 799 OFFCURVE",
"777 811 OFFCURVE",
"756 811 CURVE SMOOTH",
"751 811 OFFCURVE",
"748 810 OFFCURVE",
"745 810 CURVE SMOOTH",
"307 759 LINE SMOOTH",
"255 753 OFFCURVE",
"235 717 OFFCURVE",
"235 676 CURVE SMOOTH",
"235 626 OFFCURVE",
"267 581 OFFCURVE",
"323 588 CURVE SMOOTH",
"334 589 OFFCURVE",
"451 605 OFFCURVE",
"536 613 CURVE",
"536 176 LINE",
"288 176 LINE SMOOTH",
"226 176 OFFCURVE",
"202 130 OFFCURVE",
"202 90 CURVE SMOOTH",
"202 49 OFFCURVE",
"227 0 OFFCURVE",
"288 0 CURVE SMOOTH"
);
},
{
closed = 1;
nodes = (
"748 953 OFFCURVE",
"824 1022 OFFCURVE",
"824 1109 CURVE SMOOTH",
"824 1193 OFFCURVE",
"748 1266 OFFCURVE",
"652 1266 CURVE SMOOTH",
"555 1266 OFFCURVE",
"479 1193 OFFCURVE",
"479 1109 CURVE SMOOTH",
"479 1022 OFFCURVE",
"555 953 OFFCURVE",
"652 953 CURVE SMOOTH"
);
}
);
width = 1240;
}
);
unicode = 0069;
},
{
glyphname = idotless;
lastChange = "2017-06-26 22:00:10 +0000";
layers = (
{
anchors = (
{
name = bottom;
position = "{620, 0}";
},
{
name = ogonek;
position = "{1116, 10}";
},
{
name = top;
position = "{670, 774}";
}
);
layerId = "840BD324-B0A6-42B0-BD23-CB5E8C19394F";
paths = (
{
closed = 1;
nodes = (
"299 0 LINE SMOOTH",
"268 0 OFFCURVE",
"253 24 OFFCURVE",
"253 45 CURVE SMOOTH",
"253 65 OFFCURVE",
"267 86 OFFCURVE",
"295 86 CURVE SMOOTH",
"667 86 LINE",
"667 719 LINE",
"334 674 LINE SMOOTH",
"331 674 OFFCURVE",
"329 673 OFFCURVE",
"327 673 CURVE SMOOTH",
"300 673 OFFCURVE",
"286 694 OFFCURVE",
"286 715 CURVE SMOOTH",
"286 734 OFFCURVE",
"296 752 OFFCURVE",
"318 755 CURVE SMOOTH",
"716 810 LINE SMOOTH",
"719 811 OFFCURVE",
"722 811 OFFCURVE",
"727 811 CURVE SMOOTH",
"748 811 OFFCURVE",
"763 799 OFFCURVE",
"763 779 CURVE SMOOTH",
"763 86 LINE",
"1096 86 LINE SMOOTH",
"1123 86 OFFCURVE",
"1136 63 OFFCURVE",
"1136 43 CURVE SMOOTH",
"1136 22 OFFCURVE",
"1122 0 OFFCURVE",
"1095 0 CURVE SMOOTH"
);
}
);
width = 1240;
},
{
layerId = "F2E12B84-E402-48AA-89E7-06534AE23493";
width = 600;
}
);
unicode = 0131;
},
{
glyphname = ij;
lastChange = "2017-06-26 22:00:10 +0000";
layers = (
{
layerId = "840BD324-B0A6-42B0-BD23-CB5E8C19394F";
paths = (
{
closed = 1;
nodes = (
"794 1130 OFFCURVE",
"834 1171 OFFCURVE",
"885 1171 CURVE SMOOTH",
"935 1171 OFFCURVE",
"975 1130 OFFCURVE",
"975 1080 CURVE SMOOTH",
"975 1029 OFFCURVE",
"935 990 OFFCURVE",
"885 990 CURVE SMOOTH",
"834 990 OFFCURVE",
"794 1029 OFFCURVE",
"794 1080 CURVE SMOOTH"
);
},
{
closed = 1;
nodes = (
"275 1130 OFFCURVE",
"315 1171 OFFCURVE",
"366 1171 CURVE SMOOTH",
"416 1171 OFFCURVE",
"456 1130 OFFCURVE",
"456 1080 CURVE SMOOTH",
"456 1029 OFFCURVE",
"416 990 OFFCURVE",
"366 990 CURVE SMOOTH",
"315 990 OFFCURVE",
"275 1029 OFFCURVE",
"275 1080 CURVE SMOOTH"
);
},
{
closed = 1;
nodes = (
"665 706 OFFCURVE",
"649 726 OFFCURVE",
"649 753 CURVE SMOOTH",
"649 772 OFFCURVE",
"662 789 OFFCURVE",
"700 792 CURVE SMOOTH",
"936 813 LINE SMOOTH",
"956 815 OFFCURVE",
"972 805 OFFCURVE",
"972 784 CURVE SMOOTH",
"972 50 LINE SMOOTH",
"972 -198 OFFCURVE",
"829 -309 OFFCURVE",
"584 -309 CURVE SMOOTH",
"551 -309 OFFCURVE",
"533 -287 OFFCURVE",
"533 -265 CURVE SMOOTH",
"533 -243 OFFCURVE",
"552 -220 OFFCURVE",
"591 -220 CURVE SMOOTH",
"766 -220 OFFCURVE",
"876 -155 OFFCURVE",
"876 50 CURVE SMOOTH",
"876 724 LINE",
"702 709 LINE SMOOTH"
);
},
{
closed = 1;
nodes = (
"317 727 LINE",
"147 711 LINE SMOOTH",
"110 708 OFFCURVE",
"96 733 OFFCURVE",
"96 754 CURVE SMOOTH",
"96 773 OFFCURVE",
"106 789 OFFCURVE",
"147 793 CURVE SMOOTH",
"374 813 LINE SMOOTH",
"398 815 OFFCURVE",
"413 798 OFFCURVE",
"413 774 CURVE SMOOTH",
"413 332 LINE SMOOTH",
"413 156 OFFCURVE",
"499 86 OFFCURVE",
"633 86 CURVE SMOOTH",
"771 86 OFFCURVE",
"876 168 OFFCURVE",
"876 321 CURVE",
"952 321 LINE",
"952 138 OFFCURVE",
"838 0 OFFCURVE",
"633 0 CURVE SMOOTH",
"426 0 OFFCURVE",
"317 113 OFFCURVE",
"317 332 CURVE SMOOTH"
);
}
);
width = 1240;
},
{
layerId = "F2E12B84-E402-48AA-89E7-06534AE23493";
width = 600;
}
);
unicode = 0133;
},
{
glyphname = j;
lastChange = "2017-07-06 23:31:42 +0000";
layers = (
{
layerId = "840BD324-B0A6-42B0-BD23-CB5E8C19394F";
paths = (
{
closed = 1;
nodes = (
"635 -310 OFFCURVE",
"825 -123 OFFCURVE",
"825 209 CURVE SMOOTH",
"825 784 LINE SMOOTH",
"825 805 OFFCURVE",
"809 815 OFFCURVE",
"789 813 CURVE SMOOTH",
"269 763 LINE SMOOTH",
"243 761 OFFCURVE",
"228 741 OFFCURVE",
"228 721 CURVE SMOOTH",
"228 700 OFFCURVE",
"244 678 OFFCURVE",
"273 681 CURVE SMOOTH",
"729 725 LINE",
"729 209 LINE SMOOTH",
"729 -66 OFFCURVE",
"573 -219 OFFCURVE",
"297 -219 CURVE SMOOTH",
"265 -219 OFFCURVE",
"246 -243 OFFCURVE",
"246 -265 CURVE SMOOTH",
"246 -287 OFFCURVE",
"264 -310 OFFCURVE",
"297 -310 CURVE SMOOTH"
);
},
{
closed = 1;
nodes = (
"789 990 OFFCURVE",
"829 1029 OFFCURVE",
"829 1080 CURVE SMOOTH",
"829 1130 OFFCURVE",
"789 1171 OFFCURVE",
"739 1171 CURVE SMOOTH",
"688 1171 OFFCURVE",
"648 1130 OFFCURVE",
"648 1080 CURVE SMOOTH",
"648 1029 OFFCURVE",
"688 990 OFFCURVE",
"739 990 CURVE SMOOTH"
);
}
);
width = 1240;
},
{
layerId = "F2E12B84-E402-48AA-89E7-06534AE23493";
paths = (
{
closed = 1;
nodes = (
"694 -325 OFFCURVE",
"895 -132 OFFCURVE",
"895 229 CURVE SMOOTH",
"895 774 LINE SMOOTH",
"895 805 OFFCURVE",
"879 815 OFFCURVE",
"851 813 CURVE SMOOTH",
"305 769 LINE SMOOTH",
"251 765 OFFCURVE",
"227 720 OFFCURVE",
"228 679 CURVE SMOOTH",
"229 625 OFFCURVE",
"266 576 OFFCURVE",
"334 582 CURVE SMOOTH",
"649 610 LINE",
"649 209 LINE SMOOTH",
"649 -6 OFFCURVE",
"532 -124 OFFCURVE",
"337 -124 CURVE SMOOTH",
"266 -124 OFFCURVE",
"226 -172 OFFCURVE",
"226 -225 CURVE SMOOTH",
"226 -274 OFFCURVE",
"266 -325 OFFCURVE",
"337 -325 CURVE SMOOTH"
);
},
{
closed = 1;
nodes = (
"834 953 OFFCURVE",
"910 1022 OFFCURVE",
"910 1109 CURVE SMOOTH",
"910 1193 OFFCURVE",
"834 1266 OFFCURVE",
"738 1266 CURVE SMOOTH",
"641 1266 OFFCURVE",
"565 1193 OFFCURVE",
"565 1109 CURVE SMOOTH",
"565 1022 OFFCURVE",
"641 953 OFFCURVE",
"738 953 CURVE SMOOTH"
);
}
);
width = 1240;
}
);
unicode = 006A;
},
{
glyphname = jdotless;
lastChange = "2017-06-26 22:00:10 +0000";
layers = (
{
anchors = (
{
name = bottom;
position = "{620, 0}";
},
{
name = top;
position = "{767, 774}";
}
);
layerId = "840BD324-B0A6-42B0-BD23-CB5E8C19394F";
paths = (
{
closed = 1;
nodes = (
"825 -123 OFFCURVE",
"635 -310 OFFCURVE",
"297 -310 CURVE SMOOTH",
"264 -310 OFFCURVE",
"246 -288 OFFCURVE",
"246 -266 CURVE SMOOTH",
"246 -244 OFFCURVE",
"265 -221 OFFCURVE",
"297 -221 CURVE SMOOTH",
"573 -221 OFFCURVE",
"729 -66 OFFCURVE",
"729 209 CURVE SMOOTH",
"729 725 LINE",
"273 681 LINE SMOOTH",
"244 678 OFFCURVE",
"228 700 OFFCURVE",
"228 721 CURVE SMOOTH",
"228 741 OFFCURVE",
"243 761 OFFCURVE",
"269 763 CURVE SMOOTH",
"789 813 LINE SMOOTH",
"809 815 OFFCURVE",
"825 805 OFFCURVE",
"825 784 CURVE SMOOTH",
"825 209 LINE SMOOTH"
);
}
);
width = 1240;
},
{
layerId = "F2E12B84-E402-48AA-89E7-06534AE23493";
width = 600;
}
);
unicode = 0237;
},
{
glyphname = k;
lastChange = "2017-07-06 23:32:49 +0000";
layers = (
{
anchors = (
{
name = bottom;
position = "{620, 0}";
},
{
name = top;
position = "{620, 774}";
}
);
layerId = "840BD324-B0A6-42B0-BD23-CB5E8C19394F";
paths = (
{
closed = 1;
nodes = (
"514 0 LINE SMOOTH",
"541 0 OFFCURVE",
"554 20 OFFCURVE",
"554 41 CURVE SMOOTH",
"554 61 OFFCURVE",
"541 82 OFFCURVE",
"515 82 CURVE SMOOTH",
"424 82 LINE",
"424 1150 LINE SMOOTH",
"424 1170 OFFCURVE",
"409 1182 OFFCURVE",
"388 1182 CURVE SMOOTH",
"383 1182 OFFCURVE",
"378 1181 OFFCURVE",
"376 1181 CURVE SMOOTH",
"142 1139 LINE SMOOTH",
"120 1135 OFFCURVE",
"110 1116 OFFCURVE",
"110 1092 CURVE SMOOTH",
"110 1071 OFFCURVE",
"135 1052 OFFCURVE",
"165 1057 CURVE SMOOTH",
"328 1082 LINE",
"328 82 LINE",
"196 82 LINE SMOOTH",
"168 82 OFFCURVE",
"154 62 OFFCURVE",
"154 42 CURVE SMOOTH",
"154 21 OFFCURVE",
"170 0 OFFCURVE",
"200 0 CURVE SMOOTH"
);
},
{
closed = 1;
nodes = (
"1048 0 LINE SMOOTH",
"1074 0 OFFCURVE",
"1088 20 OFFCURVE",
"1088 41 CURVE SMOOTH",
"1088 61 OFFCURVE",
"1075 82 OFFCURVE",
"1048 82 CURVE SMOOTH",
"961 82 LINE",
"620 446 LINE",
"550 400 LINE",
"849 82 LINE",
"749 82 LINE SMOOTH",
"718 82 OFFCURVE",
"703 62 OFFCURVE",
"703 41 CURVE SMOOTH",
"703 21 OFFCURVE",
"717 0 OFFCURVE",
"745 0 CURVE SMOOTH"
);
},
{
closed = 1;
nodes = (
"937 692 LINE",
"1026 692 LINE SMOOTH",
"1048 692 OFFCURVE",
"1066 711 OFFCURVE",
"1066 729 CURVE SMOOTH",
"1066 753 OFFCURVE",
"1054 775 OFFCURVE",
"1025 775 CURVE SMOOTH",
"718 775 LINE SMOOTH",
"687 775 OFFCURVE",
"672 754 OFFCURVE",
"672 733 CURVE SMOOTH",
"672 712 OFFCURVE",
"686 692 OFFCURVE",
"714 692 CURVE SMOOTH",
"807 692 LINE",
"424 387 LINE",
"424 284 LINE"
);
}
);
width = 1240;
},
{
anchors = (
{
name = bottom;
position = "{620, 0}";
},
{
name = top;
position = "{620, 774}";
}
);
layerId = "F2E12B84-E402-48AA-89E7-06534AE23493";
paths = (
{
closed = 1;
nodes = (
"504 0 LINE SMOOTH",
"561 0 OFFCURVE",
"584 48 OFFCURVE",
"584 89 CURVE SMOOTH",
"584 129 OFFCURVE",
"562 176 OFFCURVE",
"505 176 CURVE SMOOTH",
"487 176 LINE",
"484 1141 LINE SMOOTH",
"484 1164 OFFCURVE",
"472 1180 OFFCURVE",
"443 1180 CURVE SMOOTH",
"437 1180 OFFCURVE",
"431 1179 OFFCURVE",
"423 1178 CURVE SMOOTH",
"154 1157 LINE SMOOTH",
"100 1153 OFFCURVE",
"72 1125 OFFCURVE",
"72 1082 CURVE SMOOTH",
"72 1035 OFFCURVE",
"97 995 OFFCURVE",
"162 1000 CURVE SMOOTH",
"228 1005 LINE",
"226 176 LINE",
"176 176 LINE SMOOTH",
"118 176 OFFCURVE",
"94 130 OFFCURVE",
"94 90 CURVE SMOOTH",
"94 49 OFFCURVE",
"120 0 OFFCURVE",
"180 0 CURVE SMOOTH"
);
},
{
closed = 1;
nodes = (
"1076 0 LINE SMOOTH",
"1132 0 OFFCURVE",
"1156 47 OFFCURVE",
"1156 88 CURVE SMOOTH",
"1156 128 OFFCURVE",
"1134 176 OFFCURVE",
"1076 176 CURVE SMOOTH",
"1031 176 LINE",
"780 506 LINE",
"600 410 LINE",
"789 176 LINE",
"749 176 LINE SMOOTH",
"698 176 OFFCURVE",
"673 129 OFFCURVE",
"673 88 CURVE SMOOTH",
"673 48 OFFCURVE",
"697 0 OFFCURVE",
"745 0 CURVE SMOOTH"
);
},
{
closed = 1;
nodes = (
"947 602 LINE",
"1026 602 LINE SMOOTH",
"1074 602 OFFCURVE",
"1096 647 OFFCURVE",
"1096 689 CURVE SMOOTH",
"1096 729 OFFCURVE",
"1074 775 OFFCURVE",
"1025 775 CURVE SMOOTH",
"658 775 LINE SMOOTH",
"607 775 OFFCURVE",
"582 729 OFFCURVE",
"582 688 CURVE SMOOTH",
"582 647 OFFCURVE",
"606 602 OFFCURVE",
"658 602 CURVE SMOOTH",
"693 602 LINE",
"463 410 LINE",
"473 217 LINE"
);
}
);
width = 1240;
}
);
unicode = 006B;
},
{
glyphname = kgreenlandic;
lastChange = "2017-06-26 22:00:10 +0000";
layers = (
{
layerId = "840BD324-B0A6-42B0-BD23-CB5E8C19394F";
paths = (
{
closed = 1;
nodes = (
"464 377 LINE",
"851 692 LINE",
"744 692 LINE SMOOTH",
"716 692 OFFCURVE",
"702 712 OFFCURVE",
"702 733 CURVE SMOOTH",
"702 754 OFFCURVE",
"717 775 OFFCURVE",
"748 775 CURVE SMOOTH",
"1065 775 LINE SMOOTH",
"1094 775 OFFCURVE",
"1106 753 OFFCURVE",
"1106 729 CURVE SMOOTH",
"1106 711 OFFCURVE",
"1088 692 OFFCURVE",
"1066 692 CURVE SMOOTH",
"971 692 LINE",
"662 429 LINE",
"1001 82 LINE",
"1088 82 LINE SMOOTH",
"1115 82 OFFCURVE",
"1128 61 OFFCURVE",
"1128 41 CURVE SMOOTH",
"1128 20 OFFCURVE",
"1114 0 OFFCURVE",
"1088 0 CURVE SMOOTH",
"775 0 LINE SMOOTH",
"747 0 OFFCURVE",
"733 21 OFFCURVE",
"733 41 CURVE SMOOTH",
"733 62 OFFCURVE",
"748 82 OFFCURVE",
"779 82 CURVE SMOOTH",
"884 82 LINE",
"595 381 LINE",
"464 283 LINE",
"464 82 LINE",
"535 82 LINE SMOOTH",
"561 82 OFFCURVE",
"574 61 OFFCURVE",
"574 41 CURVE SMOOTH",
"574 20 OFFCURVE",
"561 0 OFFCURVE",
"534 0 CURVE SMOOTH",
"200 0 LINE SMOOTH",
"170 0 OFFCURVE",
"154 21 OFFCURVE",
"154 42 CURVE SMOOTH",
"154 62 OFFCURVE",
"168 82 OFFCURVE",
"196 82 CURVE SMOOTH",
"371 82 LINE",
"371 692 LINE",
"193 692 LINE SMOOTH",
"160 692 OFFCURVE",
"150 713 OFFCURVE",
"150 734 CURVE SMOOTH",
"150 753 OFFCURVE",
"162 774 OFFCURVE",
"189 774 CURVE SMOOTH",
"428 774 LINE SMOOTH",
"449 774 OFFCURVE",
"464 760 OFFCURVE",
"464 736 CURVE SMOOTH"
);
}
);
width = 1240;
},
{
layerId = "F2E12B84-E402-48AA-89E7-06534AE23493";
width = 600;
}
);
unicode = 0138;
},
{
glyphname = l;
lastChange = "2017-07-06 23:33:53 +0000";
layers = (
{
anchors = (
{
name = bottom;
position = "{620, 0}";
},
{
name = center;
position = "{620, 387}";
},
{
name = top;
position = "{620, 1120}";
},
{
name = topright;
position = "{1110, 774}";
}
);
layerId = "840BD324-B0A6-42B0-BD23-CB5E8C19394F";
paths = (
{
closed = 1;
nodes = (
"1048 0 LINE SMOOTH",
"1085 0 OFFCURVE",
"1098 22 OFFCURVE",
"1098 43 CURVE SMOOTH",
"1098 63 OFFCURVE",
"1085 86 OFFCURVE",
"1049 86 CURVE SMOOTH",
"719 86 LINE",
"719 1150 LINE SMOOTH",
"719 1170 OFFCURVE",
"704 1182 OFFCURVE",
"683 1182 CURVE SMOOTH",
"678 1182 OFFCURVE",
"675 1181 OFFCURVE",
"672 1181 CURVE SMOOTH",
"254 1143 LINE SMOOTH",
"232 1140 OFFCURVE",
"222 1122 OFFCURVE",
"222 1103 CURVE SMOOTH",
"222 1082 OFFCURVE",
"236 1061 OFFCURVE",
"263 1061 CURVE SMOOTH",
"623 1090 LINE",
"623 86 LINE",
"264 86 LINE SMOOTH",
"226 86 OFFCURVE",
"212 64 OFFCURVE",
"212 44 CURVE SMOOTH",
"212 23 OFFCURVE",
"227 0 OFFCURVE",
"268 0 CURVE SMOOTH"
);
}
);
width = 1240;
},
{
anchors = (
{
name = bottom;
position = "{620, 0}";
},
{
name = center;
position = "{620, 387}";
},
{
name = top;
position = "{620, 1174}";
},
{
name = topright;
position = "{1220, 774}";
}
);
layerId = "F2E12B84-E402-48AA-89E7-06534AE23493";
paths = (
{
closed = 1;
nodes = (
"1009 0 LINE SMOOTH",
"1076 0 OFFCURVE",
"1098 47 OFFCURVE",
"1098 88 CURVE SMOOTH",
"1098 128 OFFCURVE",
"1076 176 OFFCURVE",
"1010 176 CURVE SMOOTH",
"789 176 LINE",
"789 1147 LINE SMOOTH",
"789 1170 OFFCURVE",
"774 1182 OFFCURVE",
"753 1182 CURVE SMOOTH",
"748 1182 OFFCURVE",
"745 1181 OFFCURVE",
"742 1181 CURVE SMOOTH",
"287 1144 LINE SMOOTH",
"248 1141 OFFCURVE",
"222 1109 OFFCURVE",
"222 1060 CURVE SMOOTH",
"222 1009 OFFCURVE",
"255 966 OFFCURVE",
"309 970 CURVE SMOOTH",
"543 987 LINE",
"543 176 LINE",
"303 176 LINE SMOOTH",
"241 176 OFFCURVE",
"212 129 OFFCURVE",
"212 89 CURVE SMOOTH",
"212 48 OFFCURVE",
"242 0 OFFCURVE",
"303 0 CURVE SMOOTH"
);
}
);
width = 1240;
}
);
unicode = 006C;
},
{
glyphname = lj;
lastChange = "2017-06-26 22:00:10 +0000";
layers = (
{
layerId = "840BD324-B0A6-42B0-BD23-CB5E8C19394F";
paths = (
{
closed = 1;
nodes = (
"461 1182 OFFCURVE",
"476 1170 OFFCURVE",
"476 1150 CURVE SMOOTH",
"476 82 LINE",
"696 82 LINE SMOOTH",
"722 82 OFFCURVE",
"735 61 OFFCURVE",
"735 41 CURVE SMOOTH",
"735 20 OFFCURVE",
"722 0 OFFCURVE",
"695 0 CURVE SMOOTH",
"146 0 LINE SMOOTH",
"115 0 OFFCURVE",
"100 21 OFFCURVE",
"100 42 CURVE SMOOTH",
"100 62 OFFCURVE",
"114 82 OFFCURVE",
"142 82 CURVE SMOOTH",
"380 82 LINE",
"380 1090 LINE",
"146 1061 LINE SMOOTH",
"143 1061 OFFCURVE",
"141 1060 OFFCURVE",
"139 1060 CURVE SMOOTH",
"112 1060 OFFCURVE",
"98 1081 OFFCURVE",
"98 1102 CURVE SMOOTH",
"98 1121 OFFCURVE",
"108 1139 OFFCURVE",
"130 1142 CURVE SMOOTH",
"429 1181 LINE SMOOTH",
"432 1181 OFFCURVE",
"435 1182 OFFCURVE",
"440 1182 CURVE SMOOTH"
);
},
{
closed = 1;
nodes = (
"908 1130 OFFCURVE",
"948 1171 OFFCURVE",
"999 1171 CURVE SMOOTH",
"1049 1171 OFFCURVE",
"1089 1130 OFFCURVE",
"1089 1080 CURVE SMOOTH",
"1089 1029 OFFCURVE",
"1049 990 OFFCURVE",
"999 990 CURVE SMOOTH",
"948 990 OFFCURVE",
"908 1029 OFFCURVE",
"908 1080 CURVE SMOOTH"
);
},
{
closed = 1;
nodes = (
"1066 -198 OFFCURVE",
"923 -309 OFFCURVE",
"678 -309 CURVE SMOOTH",
"645 -309 OFFCURVE",
"627 -287 OFFCURVE",
"627 -265 CURVE SMOOTH",
"627 -243 OFFCURVE",
"646 -220 OFFCURVE",
"685 -220 CURVE SMOOTH",
"860 -220 OFFCURVE",
"970 -155 OFFCURVE",
"970 50 CURVE SMOOTH",
"970 732 LINE",
"704 702 LINE SMOOTH",
"675 699 OFFCURVE",
"660 724 OFFCURVE",
"660 745 CURVE SMOOTH",
"660 765 OFFCURVE",
"674 782 OFFCURVE",
"700 784 CURVE SMOOTH",
"1030 814 LINE SMOOTH",
"1050 816 OFFCURVE",
"1066 806 OFFCURVE",
"1066 785 CURVE SMOOTH",
"1066 50 LINE SMOOTH"
);
}
);
width = 1240;
},
{
layerId = "F2E12B84-E402-48AA-89E7-06534AE23493";
width = 600;
}
);
unicode = 01C9;
},
{
glyphname = lslash;
lastChange = "2017-06-26 22:00:10 +0000";
layers = (
{
components = (
{
name = l;
}
);
layerId = "840BD324-B0A6-42B0-BD23-CB5E8C19394F";
paths = (
{
closed = 1;
nodes = (
"918 807 OFFCURVE",
"924 807 OFFCURVE",
"930 807 CURVE SMOOTH",
"955 807 OFFCURVE",
"971 789 OFFCURVE",
"971 761 CURVE SMOOTH",
"971 742 OFFCURVE",
"959 735 OFFCURVE",
"933 724 CURVE SMOOTH",
"388 500 LINE SMOOTH",
"380 497 OFFCURVE",
"372 497 OFFCURVE",
"366 497 CURVE SMOOTH",
"341 497 OFFCURVE",
"326 515 OFFCURVE",
"326 543 CURVE SMOOTH",
"326 562 OFFCURVE",
"339 572 OFFCURVE",
"366 583 CURVE SMOOTH",
"911 804 LINE SMOOTH"
);
}
);
width = 1240;
},
{
layerId = "F2E12B84-E402-48AA-89E7-06534AE23493";
width = 600;
}
);
unicode = 0142;
},
{
glyphname = m;
lastChange = "2017-07-07 00:38:04 +0000";
layers = (
{
anchors = (
{
name = bottom;
position = "{620, 0}";
},
{
name = top;
position = "{620, 774}";
}
);
layerId = "840BD324-B0A6-42B0-BD23-CB5E8C19394F";
paths = (
{
closed = 1;
nodes = (
"394 0 LINE SMOOTH",
"427 0 OFFCURVE",
"444 21 OFFCURVE",
"444 42 CURVE SMOOTH",
"444 62 OFFCURVE",
"428 82 OFFCURVE",
"396 82 CURVE SMOOTH",
"311 82 LINE",
"311 639 LINE",
"302 759 LINE SMOOTH",
"300 782 OFFCURVE",
"290 798 OFFCURVE",
"263 798 CURVE SMOOTH",
"258 798 OFFCURVE",
"252 797 OFFCURVE",
"245 796 CURVE SMOOTH",
"81 763 LINE",
"57 757 OFFCURVE",
"48 738 OFFCURVE",
"48 722 CURVE SMOOTH",
"48 702 OFFCURVE",
"63 679 OFFCURVE",
"87 684 CURVE SMOOTH",
"215 709 LINE",
"215 82 LINE",
"107 82 LINE SMOOTH",
"79 82 OFFCURVE",
"65 63 OFFCURVE",
"65 43 CURVE SMOOTH",
"65 22 OFFCURVE",
"80 0 OFFCURVE",
"111 0 CURVE SMOOTH"
);
},
{
closed = 1;
nodes = (
"803 0 LINE SMOOTH",
"831 0 OFFCURVE",
"845 21 OFFCURVE",
"845 42 CURVE SMOOTH",
"845 62 OFFCURVE",
"832 82 OFFCURVE",
"805 82 CURVE SMOOTH",
"690 82 LINE",
"690 533 LINE SMOOTH",
"690 724 OFFCURVE",
"606 813 OFFCURVE",
"481 813 CURVE SMOOTH",
"339 813 OFFCURVE",
"285 684 OFFCURVE",
"280 669 CURVE",
"301 562 LINE",
"300 607 OFFCURVE",
"365 731 OFFCURVE",
"475 731 CURVE SMOOTH",
"556 731 OFFCURVE",
"594 659 OFFCURVE",
"594 540 CURVE SMOOTH",
"594 43 LINE SMOOTH",
"594 22 OFFCURVE",
"609 0 OFFCURVE",
"640 0 CURVE SMOOTH"
);
},
{
closed = 1;
nodes = (
"1178 0 LINE SMOOTH",
"1206 0 OFFCURVE",
"1220 21 OFFCURVE",
"1220 42 CURVE SMOOTH",
"1220 62 OFFCURVE",
"1207 82 OFFCURVE",
"1180 82 CURVE SMOOTH",
"1071 82 LINE",
"1071 533 LINE SMOOTH",
"1071 724 OFFCURVE",
"987 813 OFFCURVE",
"862 813 CURVE SMOOTH",
"719 813 OFFCURVE",
"651 709 OFFCURVE",
"641 695 CURVE",
"664 600 LINE",
"690 639 OFFCURVE",
"737 732 OFFCURVE",
"856 731 CURVE SMOOTH",
"937 730 OFFCURVE",
"975 659 OFFCURVE",
"975 540 CURVE SMOOTH",
"975 43 LINE SMOOTH",
"975 22 OFFCURVE",
"990 0 OFFCURVE",
"1021 0 CURVE SMOOTH"
);
}
);
width = 1240;
},
{
anchors = (
{
name = bottom;
position = "{620, 0}";
},
{
name = top;
position = "{620, 774}";
}
);
layerId = "F2E12B84-E402-48AA-89E7-06534AE23493";
paths = (
{
closed = 1;
nodes = (
"406 0 LINE SMOOTH",
"464 0 OFFCURVE",
"491 41 OFFCURVE",
"491 84 CURVE SMOOTH",
"491 132 OFFCURVE",
"465 172 OFFCURVE",
"408 172 CURVE SMOOTH",
"388 172 LINE",
"388 639 LINE",
"379 769 LINE SMOOTH",
"377 792 OFFCURVE",
"367 808 OFFCURVE",
"340 808 CURVE SMOOTH",
"335 808 OFFCURVE",
"329 807 OFFCURVE",
"322 806 CURVE SMOOTH",
"94 774 LINE SMOOTH",
"54 768 OFFCURVE",
"35 725 OFFCURVE",
"35 693 CURVE SMOOTH",
"35 639 OFFCURVE",
"60 595 OFFCURVE",
"120 601 CURVE SMOOTH",
"182 607 LINE",
"182 172 LINE",
"134 172 LINE SMOOTH",
"81 172 OFFCURVE",
"52 128 OFFCURVE",
"52 83 CURVE SMOOTH",
"52 37 OFFCURVE",
"82 0 OFFCURVE",
"138 0 CURVE SMOOTH"
);
},
{
closed = 1;
nodes = (
"768 0 LINE SMOOTH",
"826 0 OFFCURVE",
"850 41 OFFCURVE",
"850 87 CURVE SMOOTH",
"850 132 OFFCURVE",
"827 172 OFFCURVE",
"770 172 CURVE SMOOTH",
"761 172 LINE",
"761 493 LINE SMOOTH",
"761 697 OFFCURVE",
"683 813 OFFCURVE",
"540 813 CURVE SMOOTH",
"382 813 OFFCURVE",
"363 696 OFFCURVE",
"364 686 CURVE",
"369 607 LINE",
"399 642 OFFCURVE",
"419 661 OFFCURVE",
"455 661 CURVE SMOOTH",
"518 661 OFFCURVE",
"555 569 OFFCURVE",
"555 460 CURVE SMOOTH",
"555 117 LINE SMOOTH",
"555 74 OFFCURVE",
"573 0 OFFCURVE",
"646 0 CURVE SMOOTH"
);
},
{
closed = 1;
nodes = (
"1148 0 LINE SMOOTH",
"1206 0 OFFCURVE",
"1230 41 OFFCURVE",
"1230 87 CURVE SMOOTH",
"1230 132 OFFCURVE",
"1207 172 OFFCURVE",
"1150 172 CURVE SMOOTH",
"1121 172 LINE",
"1121 493 LINE SMOOTH",
"1121 697 OFFCURVE",
"1043 813 OFFCURVE",
"900 813 CURVE SMOOTH",
"742 813 OFFCURVE",
"703 696 OFFCURVE",
"684 666 CURVE",
"729 597 LINE",
"759 642 OFFCURVE",
"779 651 OFFCURVE",
"815 651 CURVE SMOOTH",
"878 651 OFFCURVE",
"915 569 OFFCURVE",
"915 460 CURVE SMOOTH",
"915 117 LINE SMOOTH",
"915 74 OFFCURVE",
"933 0 OFFCURVE",
"1006 0 CURVE SMOOTH"
);
}
);
width = 1240;
}
);
unicode = 006D;
},
{
glyphname = n;
lastChange = "2017-07-07 00:37:51 +0000";
layers = (
{
anchors = (
{
name = apo;
position = "{262, 942}";
},
{
name = bottom;
position = "{620, 0}";
},
{
name = top;
position = "{620, 774}";
}
);
layerId = "840BD324-B0A6-42B0-BD23-CB5E8C19394F";
paths = (
{
closed = 1;
nodes = (
"1099 0 LINE SMOOTH",
"1127 0 OFFCURVE",
"1141 21 OFFCURVE",
"1141 42 CURVE SMOOTH",
"1141 62 OFFCURVE",
"1128 82 OFFCURVE",
"1101 82 CURVE SMOOTH",
"992 82 LINE",
"992 523 LINE SMOOTH",
"992 707 OFFCURVE",
"894 813 OFFCURVE",
"691 813 CURVE SMOOTH",
"533 813 OFFCURVE",
"413 716 OFFCURVE",
"394 686 CURVE",
"396 567 LINE",
"420 621 OFFCURVE",
"535 731 OFFCURVE",
"696 731 CURVE SMOOTH",
"827 731 OFFCURVE",
"896 659 OFFCURVE",
"896 520 CURVE SMOOTH",
"896 82 LINE",
"750 82 LINE SMOOTH",
"722 82 OFFCURVE",
"708 63 OFFCURVE",
"708 43 CURVE SMOOTH",
"708 22 OFFCURVE",
"723 0 OFFCURVE",
"754 0 CURVE SMOOTH"
);
},
{
closed = 1;
nodes = (
"502 0 LINE SMOOTH",
"535 0 OFFCURVE",
"552 21 OFFCURVE",
"552 42 CURVE SMOOTH",
"552 62 OFFCURVE",
"536 82 OFFCURVE",
"504 82 CURVE SMOOTH",
"399 82 LINE",
"399 639 LINE",
"390 759 LINE SMOOTH",
"388 782 OFFCURVE",
"378 798 OFFCURVE",
"351 798 CURVE SMOOTH",
"346 798 OFFCURVE",
"340 797 OFFCURVE",
"333 796 CURVE SMOOTH",
"169 763 LINE",
"145 757 OFFCURVE",
"136 738 OFFCURVE",
"136 722 CURVE SMOOTH",
"136 702 OFFCURVE",
"151 684 OFFCURVE",
"175 684 CURVE SMOOTH",
"303 709 LINE",
"303 82 LINE",
"195 82 LINE SMOOTH",
"167 82 OFFCURVE",
"153 63 OFFCURVE",
"153 43 CURVE SMOOTH",
"153 22 OFFCURVE",
"168 0 OFFCURVE",
"199 0 CURVE SMOOTH"
);
}
);
width = 1240;
},
{
anchors = (
{
name = apo;
position = "{262, 942}";
},
{
name = bottom;
position = "{620, 0}";
},
{
name = top;
position = "{620, 774}";
}
);
layerId = "F2E12B84-E402-48AA-89E7-06534AE23493";
paths = (
{
closed = 1;
nodes = (
"1108 0 LINE SMOOTH",
"1166 0 OFFCURVE",
"1190 41 OFFCURVE",
"1190 87 CURVE SMOOTH",
"1190 132 OFFCURVE",
"1167 172 OFFCURVE",
"1110 172 CURVE SMOOTH",
"1061 172 LINE",
"1061 493 LINE SMOOTH",
"1061 697 OFFCURVE",
"953 813 OFFCURVE",
"720 813 CURVE SMOOTH",
"562 813 OFFCURVE",
"432 696 OFFCURVE",
"413 666 CURVE",
"415 497 LINE",
"431 559 OFFCURVE",
"534 641 OFFCURVE",
"645 641 CURVE SMOOTH",
"756 641 OFFCURVE",
"815 569 OFFCURVE",
"815 460 CURVE SMOOTH",
"815 172 LINE",
"759 172 LINE SMOOTH",
"706 172 OFFCURVE",
"677 133 OFFCURVE",
"677 85 CURVE SMOOTH",
"677 42 OFFCURVE",
"707 0 OFFCURVE",
"763 0 CURVE SMOOTH"
);
},
{
closed = 1;
nodes = (
"526 0 LINE SMOOTH",
"584 0 OFFCURVE",
"611 41 OFFCURVE",
"611 84 CURVE SMOOTH",
"611 132 OFFCURVE",
"585 172 OFFCURVE",
"528 172 CURVE SMOOTH",
"468 172 LINE",
"468 639 LINE",
"459 769 LINE SMOOTH",
"457 792 OFFCURVE",
"447 808 OFFCURVE",
"420 808 CURVE SMOOTH",
"415 808 OFFCURVE",
"409 807 OFFCURVE",
"402 806 CURVE SMOOTH",
"144 777 LINE SMOOTH",
"94 771 OFFCURVE",
"65 738 OFFCURVE",
"65 692 CURVE SMOOTH",
"65 638 OFFCURVE",
"100 597 OFFCURVE",
"150 600 CURVE SMOOTH",
"222 605 LINE",
"222 172 LINE",
"164 172 LINE SMOOTH",
"111 172 OFFCURVE",
"82 128 OFFCURVE",
"82 83 CURVE SMOOTH",
"82 37 OFFCURVE",
"112 0 OFFCURVE",
"168 0 CURVE SMOOTH"
);
}
);
width = 1240;
}
);
unicode = 006E;
},
{
glyphname = eng;
lastChange = "2017-06-26 22:00:10 +0000";
layers = (
{
layerId = "840BD324-B0A6-42B0-BD23-CB5E8C19394F";
paths = (
{
closed = 1;
nodes = (
"545 731 OFFCURVE",
"430 621 OFFCURVE",
"406 567 CURVE",
"406 691 LINE",
"425 721 OFFCURVE",
"553 813 OFFCURVE",
"711 813 CURVE SMOOTH",
"894 813 OFFCURVE",
"1012 707 OFFCURVE",
"1012 483 CURVE SMOOTH",
"1012 31 LINE SMOOTH",
"1012 -247 OFFCURVE",
"739 -358 OFFCURVE",
"514 -358 CURVE SMOOTH",
"481 -358 OFFCURVE",
"463 -336 OFFCURVE",
"463 -314 CURVE SMOOTH",
"463 -292 OFFCURVE",
"482 -269 OFFCURVE",
"521 -269 CURVE SMOOTH",
"676 -269 OFFCURVE",
"916 -204 OFFCURVE",
"916 41 CURVE SMOOTH",
"916 490 LINE SMOOTH",
"916 659 OFFCURVE",
"837 731 OFFCURVE",
"716 731 CURVE SMOOTH"
);
},
{
closed = 1;
nodes = (
"416 82 LINE",
"521 82 LINE SMOOTH",
"553 82 OFFCURVE",
"569 62 OFFCURVE",
"569 42 CURVE SMOOTH",
"569 21 OFFCURVE",
"552 0 OFFCURVE",
"519 0 CURVE SMOOTH",
"216 0 LINE SMOOTH",
"185 0 OFFCURVE",
"170 22 OFFCURVE",
"170 43 CURVE SMOOTH",
"170 63 OFFCURVE",
"184 82 OFFCURVE",
"212 82 CURVE SMOOTH",
"320 82 LINE",
"320 709 LINE",
"212 687 LINE SMOOTH",
"205 685 OFFCURVE",
"198 684 OFFCURVE",
"192 684 CURVE SMOOTH",
"168 684 OFFCURVE",
"153 702 OFFCURVE",
"153 722 CURVE SMOOTH",
"153 738 OFFCURVE",
"162 757 OFFCURVE",
"186 763 CURVE",
"350 796 LINE SMOOTH",
"357 797 OFFCURVE",
"363 798 OFFCURVE",
"368 798 CURVE SMOOTH",
"395 798 OFFCURVE",
"405 782 OFFCURVE",
"407 759 CURVE SMOOTH",
"416 639 LINE",
"416 503 LINE"
);
}
);
width = 1240;
},
{
layerId = "F2E12B84-E402-48AA-89E7-06534AE23493";
width = 600;
}
);
unicode = 014B;
},
{
glyphname = nj;
lastChange = "2017-06-26 22:00:10 +0000";
layers = (
{
layerId = "840BD324-B0A6-42B0-BD23-CB5E8C19394F";
paths = (
{
closed = 1;
nodes = (
"238 82 LINE",
"333 82 LINE SMOOTH",
"365 82 OFFCURVE",
"381 62 OFFCURVE",
"381 42 CURVE SMOOTH",
"381 21 OFFCURVE",
"364 0 OFFCURVE",
"331 0 CURVE SMOOTH",
"88 0 LINE SMOOTH",
"57 0 OFFCURVE",
"42 22 OFFCURVE",
"42 43 CURVE SMOOTH",
"42 63 OFFCURVE",
"56 82 OFFCURVE",
"84 82 CURVE SMOOTH",
"142 82 LINE",
"142 709 LINE",
"84 699 LINE SMOOTH",
"77 697 OFFCURVE",
"70 696 OFFCURVE",
"64 696 CURVE SMOOTH",
"40 696 OFFCURVE",
"25 714 OFFCURVE",
"25 734 CURVE SMOOTH",
"25 750 OFFCURVE",
"34 769 OFFCURVE",
"58 775 CURVE",
"172 796 LINE SMOOTH",
"179 797 OFFCURVE",
"185 798 OFFCURVE",
"190 798 CURVE SMOOTH",
"217 798 OFFCURVE",
"226 782 OFFCURVE",
"229 759 CURVE SMOOTH",
"238 699 LINE"
);
},
{
closed = 1;
nodes = (
"953 1130 OFFCURVE",
"993 1171 OFFCURVE",
"1044 1171 CURVE SMOOTH",
"1094 1171 OFFCURVE",
"1134 1130 OFFCURVE",
"1134 1080 CURVE SMOOTH",
"1134 1029 OFFCURVE",
"1094 990 OFFCURVE",
"1044 990 CURVE SMOOTH",
"993 990 OFFCURVE",
"953 1029 OFFCURVE",
"953 1080 CURVE SMOOTH"
);
},
{
closed = 1;
nodes = (
"1136 -178 OFFCURVE",
"973 -309 OFFCURVE",
"748 -309 CURVE SMOOTH",
"715 -309 OFFCURVE",
"697 -287 OFFCURVE",
"697 -265 CURVE SMOOTH",
"697 -243 OFFCURVE",
"716 -220 OFFCURVE",
"755 -220 CURVE SMOOTH",
"910 -220 OFFCURVE",
"1040 -135 OFFCURVE",
"1040 40 CURVE SMOOTH",
"1040 727 LINE",
"854 712 LINE SMOOTH",
"825 710 OFFCURVE",
"810 734 OFFCURVE",
"810 755 CURVE SMOOTH",
"810 775 OFFCURVE",
"824 792 OFFCURVE",
"850 794 CURVE SMOOTH",
"1100 814 LINE SMOOTH",
"1120 816 OFFCURVE",
"1136 806 OFFCURVE",
"1136 785 CURVE SMOOTH",
"1136 37 LINE SMOOTH"
);
},
{
closed = 1;
nodes = (
"255 721 OFFCURVE",
"373 813 OFFCURVE",
"491 813 CURVE SMOOTH",
"664 813 OFFCURVE",
"745 707 OFFCURVE",
"747 523 CURVE SMOOTH",
"752 82 LINE",
"851 82 LINE SMOOTH",
"878 82 OFFCURVE",
"891 62 OFFCURVE",
"891 42 CURVE SMOOTH",
"891 21 OFFCURVE",
"877 0 OFFCURVE",
"849 0 CURVE SMOOTH",
"564 0 LINE SMOOTH",
"533 0 OFFCURVE",
"518 22 OFFCURVE",
"518 43 CURVE SMOOTH",
"518 63 OFFCURVE",
"532 82 OFFCURVE",
"560 82 CURVE SMOOTH",
"656 82 LINE",
"654 519 LINE SMOOTH",
"653 659 OFFCURVE",
"597 731 OFFCURVE",
"496 731 CURVE SMOOTH",
"365 731 OFFCURVE",
"260 631 OFFCURVE",
"236 567 CURVE",
"236 691 LINE"
);
}
);
width = 1240;
},
{
layerId = "F2E12B84-E402-48AA-89E7-06534AE23493";
width = 600;
}
);
unicode = 01CC;
},
{
glyphname = o;
lastChange = "2017-06-29 14:46:04 +0000";
layers = (
{
anchors = (
{
name = bottom;
position = "{620, 0}";
},
{
name = center;
position = "{620, 387}";
},
{
name = ogonek;
position = "{1116, 10}";
},
{
name = top;
position = "{620, 774}";
},
{
name = topright;
position = "{1257, 790}";
}
);
layerId = "840BD324-B0A6-42B0-BD23-CB5E8C19394F";
paths = (
{
closed = 1;
nodes = (
"873 -17 OFFCURVE",
"1044 145 OFFCURVE",
"1044 398 CURVE SMOOTH",
"1044 654 OFFCURVE",
"873 813 OFFCURVE",
"620 813 CURVE SMOOTH",
"367 813 OFFCURVE",
"196 654 OFFCURVE",
"196 398 CURVE SMOOTH",
"196 145 OFFCURVE",
"367 -17 OFFCURVE",
"620 -17 CURVE SMOOTH"
);
},
{
closed = 1;
nodes = (
"419 69 OFFCURVE",
"294 207 OFFCURVE",
"294 398 CURVE SMOOTH",
"294 588 OFFCURVE",
"419 727 OFFCURVE",
"620 727 CURVE SMOOTH",
"821 727 OFFCURVE",
"946 588 OFFCURVE",
"946 398 CURVE SMOOTH",
"946 207 OFFCURVE",
"821 69 OFFCURVE",
"620 69 CURVE SMOOTH"
);
}
);
width = 1240;
},
{
anchors = (
{
name = bottom;
position = "{620, 0}";
},
{
name = center;
position = "{620, 387}";
},
{
name = ogonek;
position = "{1116, 10}";
},
{
name = top;
position = "{620, 774}";
},
{
name = topright;
position = "{1220, 774}";
}
);
layerId = "F2E12B84-E402-48AA-89E7-06534AE23493";
paths = (
{
closed = 1;
nodes = (
"893 -17 OFFCURVE",
"1065 155 OFFCURVE",
"1065 398 CURVE SMOOTH",
"1065 644 OFFCURVE",
"893 813 OFFCURVE",
"620 813 CURVE SMOOTH",
"347 813 OFFCURVE",
"175 644 OFFCURVE",
"175 398 CURVE SMOOTH",
"175 155 OFFCURVE",
"347 -17 OFFCURVE",
"620 -17 CURVE SMOOTH"
);
},
{
closed = 1;
nodes = (
"491 165 OFFCURVE",
"422 270 OFFCURVE",
"422 397 CURVE SMOOTH",
"422 523 OFFCURVE",
"491 631 OFFCURVE",
"619 631 CURVE SMOOTH",
"749 631 OFFCURVE",
"819 523 OFFCURVE",
"819 397 CURVE SMOOTH",
"819 270 OFFCURVE",
"749 165 OFFCURVE",
"619 165 CURVE SMOOTH"
);
}
);
width = 1240;
}
);
unicode = 006F;
},
{
glyphname = oslash;
lastChange = "2017-06-26 22:00:10 +0000";
layers = (
{
components = (
{
name = o;
}
);
layerId = "840BD324-B0A6-42B0-BD23-CB5E8C19394F";
paths = (
{
closed = 1;
nodes = (
"396 -142 OFFCURVE",
"404 -134 OFFCURVE",
"410 -121 CURVE SMOOTH",
"891 888 LINE SMOOTH",
"893 892 OFFCURVE",
"894 896 OFFCURVE",
"894 900 CURVE SMOOTH",
"894 922 OFFCURVE",
"881 934 OFFCURVE",
"861 934 CURVE SMOOTH",
"848 934 OFFCURVE",
"839 929 OFFCURVE",
"834 917 CURVE SMOOTH",
"350 -95 LINE SMOOTH",
"348 -99 OFFCURVE",
"347 -103 OFFCURVE",
"347 -108 CURVE SMOOTH",
"347 -129 OFFCURVE",
"360 -142 OFFCURVE",
"380 -142 CURVE SMOOTH"
);
}
);
width = 1240;
},
{
layerId = "F2E12B84-E402-48AA-89E7-06534AE23493";
width = 600;
}
);
unicode = 00F8;
},
{
glyphname = oe;
lastChange = "2017-06-26 22:00:10 +0000";
layers = (
{
layerId = "840BD324-B0A6-42B0-BD23-CB5E8C19394F";
paths = (
{
closed = 1;
nodes = (
"671 465 LINE",
"1043 464 LINE",
"1043 641 OFFCURVE",
"960 732 OFFCURVE",
"877 732 CURVE SMOOTH",
"763 732 OFFCURVE",
"675 616 OFFCURVE",
"675 398 CURVE SMOOTH",
"675 164 OFFCURVE",
"774 72 OFFCURVE",
"876 72 CURVE SMOOTH",
"953 72 OFFCURVE",
"1003 112 OFFCURVE",
"1043 150 CURVE SMOOTH",
"1055 162 OFFCURVE",
"1070 167 OFFCURVE",
"1083 167 CURVE SMOOTH",
"1104 167 OFFCURVE",
"1116 148 OFFCURVE",
"1117 127 CURVE SMOOTH",
"1118 113 OFFCURVE",
"1112 98 OFFCURVE",
"1101 85 CURVE SMOOTH",
"1034 7 OFFCURVE",
"938 -10 OFFCURVE",
"876 -10 CURVE SMOOTH",
"765 -10 OFFCURVE",
"673 53 OFFCURVE",
"627 183 CURVE",
"584 75 OFFCURVE",
"517 -10 OFFCURVE",
"391 -10 CURVE SMOOTH",
"238 -10 OFFCURVE",
"115 126 OFFCURVE",
"115 398 CURVE SMOOTH",
"115 671 OFFCURVE",
"241 807 OFFCURVE",
"391 807 CURVE SMOOTH",
"513 807 OFFCURVE",
"599 727 OFFCURVE",
"625 615 CURVE",
"672 749 OFFCURVE",
"782 812 OFFCURVE",
"882 812 CURVE SMOOTH",
"1005 812 OFFCURVE",
"1128 695 OFFCURVE",
"1128 449 CURVE SMOOTH",
"1128 399 OFFCURVE",
"1098 372 OFFCURVE",
"1051 372 CURVE SMOOTH",
"672 372 LINE"
);
},
{
closed = 1;
nodes = (
"486 72 OFFCURVE",
"584 181 OFFCURVE",
"584 398 CURVE SMOOTH",
"584 615 OFFCURVE",
"486 723 OFFCURVE",
"391 723 CURVE SMOOTH",
"296 723 OFFCURVE",
"205 615 OFFCURVE",
"205 398 CURVE SMOOTH",
"205 181 OFFCURVE",
"296 72 OFFCURVE",
"391 72 CURVE SMOOTH"
);
}
);
width = 1240;
},
{
layerId = "F2E12B84-E402-48AA-89E7-06534AE23493";
width = 600;
}
);
unicode = 0153;
},
{
glyphname = p;
lastChange = "2017-07-07 00:43:20 +0000";
layers = (
{
anchors = (
{
name = bottom;
position = "{620, 0}";
},
{
name = top;
position = "{620, 774}";
}
);
layerId = "840BD324-B0A6-42B0-BD23-CB5E8C19394F";
paths = (
{
closed = 1;
nodes = (
"597 -370 LINE SMOOTH",
"628 -370 OFFCURVE",
"643 -348 OFFCURVE",
"643 -327 CURVE SMOOTH",
"643 -307 OFFCURVE",
"629 -288 OFFCURVE",
"601 -288 CURVE SMOOTH",
"385 -288 LINE",
"379 690 LINE",
"376 759 LINE SMOOTH",
"375 782 OFFCURVE",
"364 798 OFFCURVE",
"337 798 CURVE SMOOTH",
"332 798 OFFCURVE",
"326 797 OFFCURVE",
"319 796 CURVE SMOOTH",
"155 763 LINE",
"131 757 OFFCURVE",
"122 738 OFFCURVE",
"122 722 CURVE SMOOTH",
"122 702 OFFCURVE",
"137 684 OFFCURVE",
"161 684 CURVE SMOOTH",
"166 684 OFFCURVE",
"175 686 OFFCURVE",
"289 708 CURVE",
"289 -288 LINE",
"199 -288 LINE SMOOTH",
"172 -288 OFFCURVE",
"159 -308 OFFCURVE",
"159 -328 CURVE SMOOTH",
"159 -349 OFFCURVE",
"173 -370 OFFCURVE",
"201 -370 CURVE SMOOTH"
);
},
{
closed = 1;
nodes = (
"903 -17 OFFCURVE",
"1047 160 OFFCURVE",
"1047 398 CURVE SMOOTH",
"1047 640 OFFCURVE",
"908 813 OFFCURVE",
"673 813 CURVE SMOOTH",
"546 813 OFFCURVE",
"443 755 OFFCURVE",
"373 690 CURVE",
"379 586 LINE",
"443 669 OFFCURVE",
"536 731 OFFCURVE",
"671 731 CURVE SMOOTH",
"857 731 OFFCURVE",
"951 577 OFFCURVE",
"951 398 CURVE SMOOTH",
"951 221 OFFCURVE",
"854 65 OFFCURVE",
"663 65 CURVE SMOOTH",
"536 65 OFFCURVE",
"448 115 OFFCURVE",
"379 194 CURVE",
"379 89 LINE",
"459 25 OFFCURVE",
"540 -17 OFFCURVE",
"669 -17 CURVE SMOOTH"
);
}
);
width = 1240;
},
{
anchors = (
{
name = bottom;
position = "{620, 0}";
},
{
name = top;
position = "{620, 774}";
}
);
layerId = "F2E12B84-E402-48AA-89E7-06534AE23493";
paths = (
{
closed = 1;
nodes = (
"611 -401 LINE SMOOTH",
"673 -401 OFFCURVE",
"707 -364 OFFCURVE",
"707 -318 CURVE SMOOTH",
"707 -271 OFFCURVE",
"673 -227 OFFCURVE",
"611 -227 CURVE SMOOTH",
"487 -227 LINE",
"484 652 LINE",
"484 767 LINE SMOOTH",
"484 790 OFFCURVE",
"472 806 OFFCURVE",
"443 806 CURVE SMOOTH",
"437 806 OFFCURVE",
"431 805 OFFCURVE",
"423 804 CURVE SMOOTH",
"154 775 LINE SMOOTH",
"110 770 OFFCURVE",
"82 734 OFFCURVE",
"82 689 CURVE SMOOTH",
"82 639 OFFCURVE",
"117 596 OFFCURVE",
"171 599 CURVE SMOOTH",
"187 600 OFFCURVE",
"212 602 OFFCURVE",
"228 603 CURVE",
"226 -232 LINE",
"187 -232 LINE SMOOTH",
"122 -232 OFFCURVE",
"85 -260 OFFCURVE",
"85 -312 CURVE SMOOTH",
"85 -364 OFFCURVE",
"122 -401 OFFCURVE",
"187 -401 CURVE SMOOTH"
);
},
{
closed = 1;
nodes = (
"954 -17 OFFCURVE",
"1107 146 OFFCURVE",
"1107 398 CURVE SMOOTH",
"1107 646 OFFCURVE",
"953 813 OFFCURVE",
"729 813 CURVE SMOOTH",
"580 813 OFFCURVE",
"482 724 OFFCURVE",
"483 712 CURVE",
"475 546 LINE",
"490 575 OFFCURVE",
"539 631 OFFCURVE",
"643 631 CURVE SMOOTH",
"774 631 OFFCURVE",
"861 525 OFFCURVE",
"861 398 CURVE SMOOTH",
"861 269 OFFCURVE",
"773 175 OFFCURVE",
"647 175 CURVE SMOOTH",
"542 175 OFFCURVE",
"490 242 OFFCURVE",
"465 270 CURVE",
"456 107 LINE",
"459 93 OFFCURVE",
"572 -17 OFFCURVE",
"719 -17 CURVE SMOOTH"
);
}
);
width = 1240;
}
);
unicode = 0070;
},
{
glyphname = thorn;
lastChange = "2017-06-26 22:00:10 +0000";
layers = (
{
layerId = "840BD324-B0A6-42B0-BD23-CB5E8C19394F";
paths = (
{
closed = 1;
nodes = (
"409 1150 CURVE SMOOTH",
"409 690 LINE",
"473 755 OFFCURVE",
"570 813 OFFCURVE",
"697 813 CURVE SMOOTH",
"932 813 OFFCURVE",
"1071 640 OFFCURVE",
"1071 398 CURVE SMOOTH",
"1071 160 OFFCURVE",
"927 -17 OFFCURVE",
"693 -17 CURVE SMOOTH",
"564 -17 OFFCURVE",
"483 25 OFFCURVE",
"409 89 CURVE",
"409 -288 LINE",
"625 -288 LINE SMOOTH",
"653 -288 OFFCURVE",
"667 -307 OFFCURVE",
"667 -327 CURVE SMOOTH",
"667 -348 OFFCURVE",
"652 -370 OFFCURVE",
"621 -370 CURVE SMOOTH",
"225 -370 LINE SMOOTH",
"197 -370 OFFCURVE",
"183 -349 OFFCURVE",
"183 -328 CURVE SMOOTH",
"183 -308 OFFCURVE",
"196 -288 OFFCURVE",
"223 -288 CURVE SMOOTH",
"313 -288 LINE",
"313 1082 LINE",
"288 1079 OFFCURVE",
"153 1057 OFFCURVE",
"136 1057 CURVE SMOOTH",
"109 1057 OFFCURVE",
"96 1078 OFFCURVE",
"96 1099 CURVE SMOOTH",
"96 1118 OFFCURVE",
"106 1136 OFFCURVE",
"128 1139 CURVE SMOOTH",
"362 1181 LINE SMOOTH",
"364 1181 OFFCURVE",
"368 1182 OFFCURVE",
"373 1182 CURVE SMOOTH",
"394 1182 OFFCURVE",
"409 1170 OFFCURVE"
);
},
{
closed = 1;
nodes = (
"975 398 CURVE SMOOTH",
"975 577 OFFCURVE",
"881 731 OFFCURVE",
"695 731 CURVE SMOOTH",
"560 731 OFFCURVE",
"467 669 OFFCURVE",
"409 586 CURVE",
"409 194 LINE",
"472 115 OFFCURVE",
"560 65 OFFCURVE",
"687 65 CURVE SMOOTH",
"878 65 OFFCURVE",
"975 221 OFFCURVE"
);
}
);
width = 1240;
},
{
layerId = "F2E12B84-E402-48AA-89E7-06534AE23493";
width = 600;
}
);
unicode = 00FE;
},
{
glyphname = q;
lastChange = "2017-07-07 00:44:26 +0000";
layers = (
{
anchors = (
{
name = bottom;
position = "{620, 0}";
},
{
name = top;
position = "{620, 774}";
}
);
layerId = "840BD324-B0A6-42B0-BD23-CB5E8C19394F";
paths = (
{
closed = 1;
nodes = (
"1066 -370 LINE SMOOTH",
"1094 -370 OFFCURVE",
"1108 -349 OFFCURVE",
"1108 -328 CURVE SMOOTH",
"1108 -308 OFFCURVE",
"1095 -288 OFFCURVE",
"1068 -288 CURVE SMOOTH",
"982 -288 LINE",
"982 724 LINE SMOOTH",
"982 791 OFFCURVE",
"957 800 OFFCURVE",
"934 800 CURVE SMOOTH",
"912 800 OFFCURVE",
"886 791 OFFCURVE",
"886 729 CURVE",
"882 -288 LINE",
"666 -288 LINE SMOOTH",
"638 -288 OFFCURVE",
"624 -307 OFFCURVE",
"624 -327 CURVE SMOOTH",
"624 -348 OFFCURVE",
"639 -370 OFFCURVE",
"670 -370 CURVE SMOOTH"
);
},
{
closed = 1;
nodes = (
"727 -17 OFFCURVE",
"808 25 OFFCURVE",
"885 89 CURVE",
"885 194 LINE",
"819 115 OFFCURVE",
"731 65 OFFCURVE",
"604 65 CURVE SMOOTH",
"413 65 OFFCURVE",
"316 221 OFFCURVE",
"316 398 CURVE SMOOTH",
"316 577 OFFCURVE",
"410 731 OFFCURVE",
"596 731 CURVE SMOOTH",
"741 731 OFFCURVE",
"804 682 OFFCURVE",
"886 586 CURVE",
"890 694 LINE",
"822 759 OFFCURVE",
"721 813 OFFCURVE",
"594 813 CURVE SMOOTH",
"359 813 OFFCURVE",
"220 640 OFFCURVE",
"220 398 CURVE SMOOTH",
"220 160 OFFCURVE",
"364 -17 OFFCURVE",
"598 -17 CURVE SMOOTH"
);
}
);
width = 1240;
},
{
anchors = (
{
name = bottom;
position = "{620, 0}";
},
{
name = top;
position = "{620, 774}";
}
);
layerId = "F2E12B84-E402-48AA-89E7-06534AE23493";
paths = (
{
closed = 1;
nodes = (
"1061 -401 LINE",
"1129 -401 OFFCURVE",
"1167 -369 OFFCURVE",
"1167 -318 CURVE SMOOTH",
"1167 -265 OFFCURVE",
"1131 -232 OFFCURVE",
"1061 -232 CURVE SMOOTH",
"1026 -232 LINE",
"1027 712 LINE SMOOTH",
"1027 768 OFFCURVE",
"982 822 OFFCURVE",
"897 822 CURVE SMOOTH",
"822 822 OFFCURVE",
"766 780 OFFCURVE",
"766 712 CURVE SMOOTH",
"769 -227 LINE",
"655 -227 LINE SMOOTH",
"584 -227 OFFCURVE",
"545 -271 OFFCURVE",
"545 -318 CURVE SMOOTH",
"545 -364 OFFCURVE",
"584 -401 OFFCURVE",
"655 -401 CURVE"
);
},
{
closed = 1;
nodes = (
"686 -17 OFFCURVE",
"799 93 OFFCURVE",
"802 107 CURVE",
"793 270 LINE",
"768 242 OFFCURVE",
"716 175 OFFCURVE",
"611 175 CURVE SMOOTH",
"485 175 OFFCURVE",
"397 269 OFFCURVE",
"397 398 CURVE SMOOTH",
"397 525 OFFCURVE",
"484 631 OFFCURVE",
"615 631 CURVE SMOOTH",
"719 631 OFFCURVE",
"768 575 OFFCURVE",
"783 546 CURVE",
"775 712 LINE",
"776 724 OFFCURVE",
"678 813 OFFCURVE",
"529 813 CURVE SMOOTH",
"305 813 OFFCURVE",
"151 646 OFFCURVE",
"151 398 CURVE SMOOTH",
"151 146 OFFCURVE",
"304 -17 OFFCURVE",
"539 -17 CURVE SMOOTH"
);
}
);
width = 1240;
}
);
unicode = 0071;
},
{
glyphname = r;
lastChange = "2017-07-07 00:48:23 +0000";
layers = (
{
anchors = (
{
name = bottom;
position = "{620, 0}";
},
{
name = top;
position = "{670, 774}";
}
);
layerId = "840BD324-B0A6-42B0-BD23-CB5E8C19394F";
paths = (
{
closed = 1;
nodes = (
"875 0 LINE SMOOTH",
"902 0 OFFCURVE",
"916 21 OFFCURVE",
"916 41 CURVE SMOOTH",
"916 62 OFFCURVE",
"903 82 OFFCURVE",
"876 82 CURVE SMOOTH",
"540 82 LINE",
"540 516 LINE",
"605 643 OFFCURVE",
"749 720 OFFCURVE",
"920 720 CURVE",
"925 627 OFFCURVE",
"938 561 OFFCURVE",
"986 561 CURVE SMOOTH",
"1027 561 OFFCURVE",
"1046 593 OFFCURVE",
"1046 633 CURVE SMOOTH",
"1046 699 OFFCURVE",
"1014 797 OFFCURVE",
"904 797 CURVE SMOOTH",
"721 797 OFFCURVE",
"585 709 OFFCURVE",
"536 638 CURVE",
"532 742 LINE SMOOTH",
"531 775 OFFCURVE",
"526 798 OFFCURVE",
"494 798 CURVE SMOOTH",
"488 798 OFFCURVE",
"480 797 OFFCURVE",
"471 795 CURVE SMOOTH",
"300 761 LINE SMOOTH",
"280 757 OFFCURVE",
"270 740 OFFCURVE",
"270 723 CURVE SMOOTH",
"270 703 OFFCURVE",
"283 683 OFFCURVE",
"310 683 CURVE SMOOTH",
"444 709 LINE",
"444 82 LINE",
"261 82 LINE SMOOTH",
"233 82 OFFCURVE",
"219 62 OFFCURVE",
"219 42 CURVE SMOOTH",
"219 21 OFFCURVE",
"234 0 OFFCURVE",
"265 0 CURVE SMOOTH"
);
}
);
width = 1240;
},
{
anchors = (
{
name = bottom;
position = "{620, 0}";
},
{
name = top;
position = "{620, 774}";
}
);
layerId = "F2E12B84-E402-48AA-89E7-06534AE23493";
paths = (
{
closed = 1;
nodes = (
"813 0 LINE SMOOTH",
"881 0 OFFCURVE",
"908 43 OFFCURVE",
"908 86 CURVE SMOOTH",
"908 134 OFFCURVE",
"882 176 OFFCURVE",
"815 176 CURVE SMOOTH",
"605 176 LINE",
"605 443 LINE",
"671 566 OFFCURVE",
"848 612 OFFCURVE",
"917 612 CURVE",
"921 558 OFFCURVE",
"953 450 OFFCURVE",
"1031 450 CURVE SMOOTH",
"1101 450 OFFCURVE",
"1144 502 OFFCURVE",
"1144 609 CURVE SMOOTH",
"1144 710 OFFCURVE",
"1094 797 OFFCURVE",
"961 797 CURVE SMOOTH",
"778 797 OFFCURVE",
"638 693 OFFCURVE",
"605 639 CURVE",
"596 769 LINE SMOOTH",
"594 792 OFFCURVE",
"584 808 OFFCURVE",
"557 808 CURVE SMOOTH",
"552 808 OFFCURVE",
"546 807 OFFCURVE",
"539 806 CURVE SMOOTH",
"231 775 LINE SMOOTH",
"191 771 OFFCURVE",
"162 734 OFFCURVE",
"162 684 CURVE SMOOTH",
"162 640 OFFCURVE",
"197 596 OFFCURVE",
"257 601 CURVE SMOOTH",
"359 610 LINE",
"359 176 LINE",
"271 176 LINE SMOOTH",
"208 176 OFFCURVE",
"179 130 OFFCURVE",
"179 85 CURVE SMOOTH",
"179 39 OFFCURVE",
"209 0 OFFCURVE",
"275 0 CURVE SMOOTH"
);
}
);
width = 1240;
}
);
unicode = 0072;
},
{
glyphname = s;
lastChange = "2017-07-06 15:38:05 +0000";
layers = (
{
anchors = (
{
name = bottom;
position = "{620, 0}";
},
{
name = top;
position = "{620, 774}";
}
);
layerId = "840BD324-B0A6-42B0-BD23-CB5E8C19394F";
paths = (
{
closed = 1;
nodes = (
"400 693 OFFCURVE",
"492 731 OFFCURVE",
"599 731 CURVE SMOOTH",
"739 731 OFFCURVE",
"877 656 OFFCURVE",
"893 564 CURVE SMOOTH",
"898 537 OFFCURVE",
"907 519 OFFCURVE",
"928 519 CURVE SMOOTH",
"954 519 OFFCURVE",
"962 538 OFFCURVE",
"961 563 CURVE SMOOTH",
"950 759 LINE SMOOTH",
"948 786 OFFCURVE",
"933 810 OFFCURVE",
"904 810 CURVE SMOOTH",
"876 810 OFFCURVE",
"850 797 OFFCURVE",
"859 758 CURVE SMOOTH",
"865 734 OFFCURVE",
"870 709 OFFCURVE",
"876 685 CURVE",
"865 730 OFFCURVE",
"744 813 OFFCURVE",
"599 813 CURVE SMOOTH",
"430 813 OFFCURVE",
"297 742 OFFCURVE",
"297 611 CURVE SMOOTH",
"297 330 OFFCURVE",
"871 419 OFFCURVE",
"871 199 CURVE SMOOTH",
"871 107 OFFCURVE",
"763 69 OFFCURVE",
"656 69 CURVE SMOOTH",
"514 69 OFFCURVE",
"380 171 OFFCURVE",
"361 265 CURVE SMOOTH",
"356 290 OFFCURVE",
"353 315 OFFCURVE",
"325 315 CURVE SMOOTH",
"301 315 OFFCURVE",
"289 298 OFFCURVE",
"290 261 CURVE SMOOTH",
"293 48 LINE SMOOTH",
"293 24 OFFCURVE",
"311 0 OFFCURVE",
"338 0 CURVE SMOOTH",
"369 0 OFFCURVE",
"389 24 OFFCURVE",
"386 51 CURVE SMOOTH",
"382 79 OFFCURVE",
"378 106 OFFCURVE",
"374 134 CURVE",
"418 47 OFFCURVE",
"545 -17 OFFCURVE",
"662 -17 CURVE SMOOTH",
"820 -17 OFFCURVE",
"968 55 OFFCURVE",
"968 198 CURVE SMOOTH",
"968 507 OFFCURVE",
"400 412 OFFCURVE",
"400 611 CURVE SMOOTH"
);
}
);
width = 1240;
},
{
anchors = (
{
name = bottom;
position = "{620, 0}";
},
{
name = top;
position = "{620, 774}";
}
);
hints = (
{
horizontal = 1;
origin = "{0, 35}";
type = Delta;
settings = {
deltaV = {
"{100, 300, 0, 0, 0}" = {
"0" = 4;
};
};
};
}
);
layerId = "F2E12B84-E402-48AA-89E7-06534AE23493";
paths = (
{
closed = 1;
nodes = (
"474 633 OFFCURVE",
"542 671 OFFCURVE",
"629 671 CURVE SMOOTH",
"719 671 OFFCURVE",
"828 627 OFFCURVE",
"867 544 CURVE SMOOTH",
"882 512 OFFCURVE",
"912 499 OFFCURVE",
"946 499 CURVE SMOOTH",
"994 499 OFFCURVE",
"1022 518 OFFCURVE",
"1020 563 CURVE SMOOTH",
"1012 729 LINE SMOOTH",
"1009 786 OFFCURVE",
"963 810 OFFCURVE",
"914 810 CURVE SMOOTH",
"876 810 OFFCURVE",
"823 794 OFFCURVE",
"823 742 CURVE SMOOTH",
"823 732 OFFCURVE",
"828 721 OFFCURVE",
"830 711 CURVE",
"825 725 OFFCURVE",
"724 813 OFFCURVE",
"579 813 CURVE SMOOTH",
"390 813 OFFCURVE",
"247 742 OFFCURVE",
"247 591 CURVE SMOOTH",
"247 280 OFFCURVE",
"791 369 OFFCURVE",
"791 209 CURVE SMOOTH",
"791 157 OFFCURVE",
"713 129 OFFCURVE",
"646 129 CURVE SMOOTH",
"504 129 OFFCURVE",
"396 217 OFFCURVE",
"384 272 CURVE SMOOTH",
"375 314 OFFCURVE",
"343 335 OFFCURVE",
"305 335 CURVE SMOOTH",
"271 335 OFFCURVE",
"237 318 OFFCURVE",
"236 271 CURVE SMOOTH",
"232 98 LINE SMOOTH",
"231 24 OFFCURVE",
"276 0 OFFCURVE",
"333 0 CURVE SMOOTH",
"384 0 OFFCURVE",
"423 20 OFFCURVE",
"423 62 CURVE SMOOTH",
"423 69 OFFCURVE",
"422 80 OFFCURVE",
"419 93 CURVE",
"458 47 OFFCURVE",
"545 -17 OFFCURVE",
"712 -17 CURVE SMOOTH",
"900 -17 OFFCURVE",
"1033 55 OFFCURVE",
"1028 209 CURVE SMOOTH",
"1018 537 OFFCURVE",
"474 442 OFFCURVE",
"474 591 CURVE SMOOTH"
);
}
);
width = 1240;
}
);
unicode = 0073;
},
{
glyphname = germandbls;
lastChange = "2017-06-26 22:00:10 +0000";
layers = (
{
layerId = "840BD324-B0A6-42B0-BD23-CB5E8C19394F";
paths = (
{
closed = 1;
nodes = (
"958 894 CURVE SMOOTH",
"958 767 OFFCURVE",
"877 671 OFFCURVE",
"755 654 CURVE",
"941 634 OFFCURVE",
"1072 509 OFFCURVE",
"1072 323 CURVE SMOOTH",
"1072 137 OFFCURVE",
"955 0 OFFCURVE",
"769 0 CURVE SMOOTH",
"631 0 OFFCURVE",
"516 99 OFFCURVE",
"516 171 CURVE SMOOTH",
"516 193 OFFCURVE",
"532 211 OFFCURVE",
"555 211 CURVE SMOOTH",
"583 211 OFFCURVE",
"597 192 OFFCURVE",
"615 163 CURVE SMOOTH",
"646 113 OFFCURVE",
"716 85 OFFCURVE",
"769 85 CURVE SMOOTH",
"896 85 OFFCURVE",
"974 192 OFFCURVE",
"974 325 CURVE SMOOTH",
"974 470 OFFCURVE",
"852 570 OFFCURVE",
"679 606 CURVE SMOOTH",
"651 611 OFFCURVE",
"632 630 OFFCURVE",
"632 653 CURVE SMOOTH",
"632 672 OFFCURVE",
"651 689 OFFCURVE",
"679 695 CURVE SMOOTH",
"791 717 OFFCURVE",
"865 798 OFFCURVE",
"865 898 CURVE SMOOTH",
"865 1020 OFFCURVE",
"771 1101 OFFCURVE",
"631 1101 CURVE SMOOTH",
"484 1101 OFFCURVE",
"396 977 OFFCURVE",
"396 790 CURVE",
"396 40 LINE",
"396 15 OFFCURVE",
"377 0 OFFCURVE",
"345 0 CURVE SMOOTH",
"175 0 LINE SMOOTH",
"143 0 OFFCURVE",
"124 19 OFFCURVE",
"124 40 CURVE SMOOTH",
"124 67 OFFCURVE",
"139 86 OFFCURVE",
"173 86 CURVE SMOOTH",
"304 86 LINE",
"304 790 LINE SMOOTH",
"304 1029 OFFCURVE",
"429 1188 OFFCURVE",
"631 1188 CURVE SMOOTH",
"827 1188 OFFCURVE",
"958 1070 OFFCURVE"
);
}
);
width = 1240;
},
{
layerId = "F2E12B84-E402-48AA-89E7-06534AE23493";
width = 600;
}
);
unicode = 00DF;
},
{
glyphname = t;
lastChange = "2017-06-29 17:36:44 +0000";
layers = (
{
anchors = (
{
name = bottom;
position = "{620, 0}";
},
{
name = center;
position = "{620, 387}";
},
{
name = top;
position = "{690, 774}";
},
{
name = topright;
position = "{685, 1290}";
}
);
layerId = "840BD324-B0A6-42B0-BD23-CB5E8C19394F";
paths = (
{
closed = 1;
nodes = (
"867 -17 OFFCURVE",
"942 61 OFFCURVE",
"984 108 CURVE SMOOTH",
"990 115 OFFCURVE",
"997 125 OFFCURVE",
"997 139 CURVE SMOOTH",
"997 161 OFFCURVE",
"982 184 OFFCURVE",
"956 184 CURVE SMOOTH",
"945 184 OFFCURVE",
"937 181 OFFCURVE",
"928 173 CURVE SMOOTH",
"876 126 OFFCURVE",
"822 69 OFFCURVE",
"697 69 CURVE SMOOTH",
"593 69 OFFCURVE",
"495 126 OFFCURVE",
"495 268 CURVE SMOOTH",
"495 692 LINE",
"866 692 LINE SMOOTH",
"893 692 OFFCURVE",
"906 712 OFFCURVE",
"906 733 CURVE SMOOTH",
"906 753 OFFCURVE",
"893 774 OFFCURVE",
"867 774 CURVE SMOOTH",
"495 774 LINE",
"495 1013 LINE SMOOTH",
"495 1037 OFFCURVE",
"482 1058 OFFCURVE",
"449 1058 CURVE SMOOTH",
"423 1058 OFFCURVE",
"400 1037 OFFCURVE",
"400 1013 CURVE SMOOTH",
"400 966 OFFCURVE",
"399 893 OFFCURVE",
"399 774 CURVE",
"252 774 LINE SMOOTH",
"224 774 OFFCURVE",
"210 755 OFFCURVE",
"210 735 CURVE SMOOTH",
"210 714 OFFCURVE",
"225 692 OFFCURVE",
"256 692 CURVE SMOOTH",
"399 692 LINE",
"399 260 LINE SMOOTH",
"399 80 OFFCURVE",
"539 -17 OFFCURVE",
"687 -17 CURVE SMOOTH"
);
}
);
width = 1240;
},
{
anchors = (
{
name = bottom;
position = "{620, 0}";
},
{
name = center;
position = "{620, 387}";
},
{
name = top;
position = "{620, 774}";
},
{
name = topright;
position = "{1220, 774}";
}
);
layerId = "F2E12B84-E402-48AA-89E7-06534AE23493";
paths = (
{
closed = 1;
nodes = (
"847 -17 OFFCURVE",
"945 43 OFFCURVE",
"988 91 CURVE SMOOTH",
"1014 120 OFFCURVE",
"1032 148 OFFCURVE",
"1032 196 CURVE SMOOTH",
"1032 237 OFFCURVE",
"1002 274 OFFCURVE",
"951 274 CURVE SMOOTH",
"919 274 OFFCURVE",
"893 258 OFFCURVE",
"872 233 CURVE SMOOTH",
"839 193 OFFCURVE",
"812 159 OFFCURVE",
"737 159 CURVE SMOOTH",
"653 159 OFFCURVE",
"595 216 OFFCURVE",
"595 308 CURVE SMOOTH",
"595 612 LINE",
"836 612 LINE SMOOTH",
"893 612 OFFCURVE",
"926 652 OFFCURVE",
"926 693 CURVE SMOOTH",
"926 743 OFFCURVE",
"893 774 OFFCURVE",
"837 774 CURVE SMOOTH",
"595 774 LINE",
"595 943 LINE SMOOTH",
"595 1017 OFFCURVE",
"540 1058 OFFCURVE",
"474 1058 CURVE SMOOTH",
"408 1058 OFFCURVE",
"350 1017 OFFCURVE",
"350 943 CURVE SMOOTH",
"350 926 OFFCURVE",
"349 883 OFFCURVE",
"349 774 CURVE",
"282 774 LINE SMOOTH",
"224 774 OFFCURVE",
"190 745 OFFCURVE",
"190 695 CURVE SMOOTH",
"190 654 OFFCURVE",
"225 612 OFFCURVE",
"286 612 CURVE SMOOTH",
"349 612 LINE",
"349 260 LINE SMOOTH",
"349 60 OFFCURVE",
"539 -17 OFFCURVE",
"687 -17 CURVE SMOOTH"
);
}
);
width = 1240;
}
);
unicode = 0074;
},
{
glyphname = tbar;
lastChange = "2017-06-26 22:00:10 +0000";
layers = (
{
components = (
{
name = t;
}
);
layerId = "840BD324-B0A6-42B0-BD23-CB5E8C19394F";
paths = (
{
closed = 1;
nodes = (
"763 428 LINE SMOOTH",
"796 428 OFFCURVE",
"804 448 OFFCURVE",
"804 467 CURVE SMOOTH",
"804 486 OFFCURVE",
"798 504 OFFCURVE",
"765 504 CURVE SMOOTH",
"316 504 LINE SMOOTH",
"281 504 OFFCURVE",
"274 486 OFFCURVE",
"274 467 CURVE SMOOTH",
"274 448 OFFCURVE",
"283 428 OFFCURVE",
"320 428 CURVE SMOOTH"
);
}
);
width = 1240;
},
{
layerId = "F2E12B84-E402-48AA-89E7-06534AE23493";
width = 600;
}
);
unicode = 0167;
},
{
glyphname = u;
lastChange = "2017-07-07 01:18:41 +0000";
layers = (
{
anchors = (
{
name = bottom;
position = "{620, 0}";
},
{
name = ogonek;
position = "{1116, 10}";
},
{
name = top;
position = "{620, 774}";
},
{
name = topright;
position = "{1257, 790}";
}
);
layerId = "840BD324-B0A6-42B0-BD23-CB5E8C19394F";
paths = (
{
closed = 1;
nodes = (
"719 -17 OFFCURVE",
"812 40 OFFCURVE",
"873 109 CURVE",
"866 226 LINE",
"812 138 OFFCURVE",
"710 65 OFFCURVE",
"572 65 CURVE SMOOTH",
"438 65 OFFCURVE",
"366 148 OFFCURVE",
"366 269 CURVE SMOOTH",
"366 768 LINE SMOOTH",
"366 787 OFFCURVE",
"352 802 OFFCURVE",
"332 802 CURVE SMOOTH",
"330 802 OFFCURVE",
"324 801 OFFCURVE",
"145 765 CURVE SMOOTH",
"120 760 OFFCURVE",
"109 744 OFFCURVE",
"109 727 CURVE SMOOTH",
"109 706 OFFCURVE",
"127 684 OFFCURVE",
"155 684 CURVE SMOOTH",
"162 684 OFFCURVE",
"160 684 OFFCURVE",
"270 706 CURVE",
"270 272 LINE SMOOTH",
"270 91 OFFCURVE",
"387 -17 OFFCURVE",
"571 -17 CURVE SMOOTH"
);
},
{
closed = 1;
nodes = (
"1118 17 LINE SMOOTH",
"1143 20 OFFCURVE",
"1156 42 OFFCURVE",
"1156 61 CURVE SMOOTH",
"1156 79 OFFCURVE",
"1144 96 OFFCURVE",
"1116 96 CURVE SMOOTH",
"962 85 LINE",
"962 768 LINE SMOOTH",
"962 787 OFFCURVE",
"948 802 OFFCURVE",
"928 802 CURVE SMOOTH",
"926 802 OFFCURVE",
"920 801 OFFCURVE",
"742 765 CURVE SMOOTH",
"716 760 OFFCURVE",
"704 743 OFFCURVE",
"704 726 CURVE SMOOTH",
"704 705 OFFCURVE",
"722 683 OFFCURVE",
"751 683 CURVE SMOOTH",
"756 683 OFFCURVE",
"766 685 OFFCURVE",
"866 706 CURVE",
"866 134 LINE",
"878 47 LINE SMOOTH",
"883 13 OFFCURVE",
"899 -3 OFFCURVE",
"925 -3 CURVE SMOOTH"
);
}
);
width = 1240;
},
{
anchors = (
{
name = bottom;
position = "{620, 0}";
},
{
name = ogonek;
position = "{1109, 10}";
},
{
name = top;
position = "{620, 774}";
},
{
name = topright;
position = "{1220, 774}";
}
);
layerId = "F2E12B84-E402-48AA-89E7-06534AE23493";
paths = (
{
closed = 1;
nodes = (
"703 0 OFFCURVE",
"823 117 OFFCURVE",
"842 147 CURVE",
"840 316 LINE",
"824 254 OFFCURVE",
"701 172 OFFCURVE",
"590 172 CURVE SMOOTH",
"509 172 OFFCURVE",
"460 244 OFFCURVE",
"460 353 CURVE",
"460 737 LINE",
"460 780 OFFCURVE",
"456 813 OFFCURVE",
"410 813 CURVE SMOOTH",
"401 813 OFFCURVE",
"224 790 OFFCURVE",
"140 776 CURVE SMOOTH",
"93 768 OFFCURVE",
"65 729 OFFCURVE",
"65 686 CURVE SMOOTH",
"65 649 OFFCURVE",
"94 601 OFFCURVE",
"152 606 CURVE SMOOTH",
"164 607 OFFCURVE",
"214 612 OFFCURVE",
"214 612 CURVE",
"214 320 LINE SMOOTH",
"214 116 OFFCURVE",
"322 0 OFFCURVE",
"535 0 CURVE SMOOTH"
);
},
{
closed = 1;
nodes = (
"1107 12 LINE SMOOTH",
"1157 16 OFFCURVE",
"1180 53 OFFCURVE",
"1180 106 CURVE SMOOTH",
"1180 147 OFFCURVE",
"1151 179 OFFCURVE",
"1085 177 CURVE SMOOTH",
"1033 175 LINE",
"1032 737 LINE",
"1032 780 OFFCURVE",
"1028 813 OFFCURVE",
"982 813 CURVE SMOOTH",
"973 813 OFFCURVE",
"783 785 OFFCURVE",
"714 776 CURVE SMOOTH",
"663 769 OFFCURVE",
"637 727 OFFCURVE",
"637 684 CURVE SMOOTH",
"637 636 OFFCURVE",
"676 601 OFFCURVE",
"735 606 CURVE SMOOTH",
"748 607 OFFCURVE",
"787 611 OFFCURVE",
"787 611 CURVE",
"787 154 LINE",
"806 31 LINE SMOOTH",
"810 5 OFFCURVE",
"818 -10 OFFCURVE",
"845 -8 CURVE SMOOTH"
);
}
);
width = 1240;
}
);
unicode = 0075;
},
{
glyphname = v;
lastChange = "2017-07-07 01:20:47 +0000";
layers = (
{
anchors = (
{
name = bottom;
position = "{620, 0}";
},
{
name = top;
position = "{620, 774}";
}
);
layerId = "840BD324-B0A6-42B0-BD23-CB5E8C19394F";
paths = (
{
closed = 1;
nodes = (
"674 -14 OFFCURVE",
"693 -8 OFFCURVE",
"719 54 CURVE SMOOTH",
"986 692 LINE",
"1075 692 LINE SMOOTH",
"1110 692 OFFCURVE",
"1123 711 OFFCURVE",
"1123 733 CURVE SMOOTH",
"1123 756 OFFCURVE",
"1109 774 OFFCURVE",
"1071 774 CURVE SMOOTH",
"807 774 LINE SMOOTH",
"774 774 OFFCURVE",
"762 753 OFFCURVE",
"762 730 CURVE SMOOTH",
"762 710 OFFCURVE",
"773 692 OFFCURVE",
"806 692 CURVE SMOOTH",
"891 692 LINE",
"647 92 LINE",
"383 692 LINE",
"492 692 LINE SMOOTH",
"524 692 OFFCURVE",
"535 710 OFFCURVE",
"535 730 CURVE SMOOTH",
"535 753 OFFCURVE",
"524 774 OFFCURVE",
"491 774 CURVE SMOOTH",
"176 774 LINE SMOOTH",
"138 774 OFFCURVE",
"125 756 OFFCURVE",
"125 733 CURVE SMOOTH",
"125 711 OFFCURVE",
"138 692 OFFCURVE",
"172 692 CURVE SMOOTH",
"273 692 LINE",
"567 59 LINE SMOOTH",
"598 -8 OFFCURVE",
"620 -14 OFFCURVE",
"647 -14 CURVE SMOOTH"
);
}
);
width = 1240;
},
{
anchors = (
{
name = bottom;
position = "{620, 0}";
},
{
name = top;
position = "{620, 774}";
}
);
layerId = "F2E12B84-E402-48AA-89E7-06534AE23493";
paths = (
{
closed = 1;
nodes = (
"659 -20 OFFCURVE",
"708 -11 OFFCURVE",
"742 56 CURVE SMOOTH",
"1026 613 LINE",
"1087 613 LINE SMOOTH",
"1141 613 OFFCURVE",
"1164 667 OFFCURVE",
"1164 699 CURVE SMOOTH",
"1164 732 OFFCURVE",
"1141 785 OFFCURVE",
"1083 785 CURVE SMOOTH",
"758 785 LINE SMOOTH",
"695 785 OFFCURVE",
"674 729 OFFCURVE",
"674 696 CURVE SMOOTH",
"674 666 OFFCURVE",
"695 613 OFFCURVE",
"757 613 CURVE SMOOTH",
"806 613 LINE",
"652 262 LINE",
"458 613 LINE",
"493 613 LINE SMOOTH",
"556 613 OFFCURVE",
"577 666 OFFCURVE",
"577 696 CURVE SMOOTH",
"577 729 OFFCURVE",
"555 785 OFFCURVE",
"492 785 CURVE SMOOTH",
"158 785 LINE SMOOTH",
"100 785 OFFCURVE",
"76 732 OFFCURVE",
"76 699 CURVE SMOOTH",
"76 667 OFFCURVE",
"99 613 OFFCURVE",
"154 613 CURVE SMOOTH",
"213 613 LINE",
"517 58 LINE SMOOTH",
"553 -8 OFFCURVE",
"605 -20 OFFCURVE",
"632 -20 CURVE SMOOTH"
);
}
);
width = 1240;
}
);
unicode = 0076;
},
